<?xml version="1.0" encoding="UTF-8" standalone="no"?>
<svg
   xmlns:osb="http://www.openswatchbook.org/uri/2009/osb"
   xmlns:dc="http://purl.org/dc/elements/1.1/"
   xmlns:cc="http://creativecommons.org/ns#"
   xmlns:rdf="http://www.w3.org/1999/02/22-rdf-syntax-ns#"
   xmlns:svg="http://www.w3.org/2000/svg"
   xmlns="http://www.w3.org/2000/svg"
   xmlns:xlink="http://www.w3.org/1999/xlink"
   xmlns:sodipodi="http://sodipodi.sourceforge.net/DTD/sodipodi-0.dtd"
   xmlns:inkscape="http://www.inkscape.org/namespaces/inkscape"
   sodipodi:docname="Agriculture.svg"
   inkscape:version="1.0 (4035a4fb49, 2020-05-01)"
   id="svg8"
   version="1.1"
   viewBox="0 0 210 210"
   height="210mm"
   width="210mm">
  <defs
     id="defs2">
    <linearGradient
       id="linearGradient1496"
       inkscape:collect="always">
      <stop
         id="stop1492"
         offset="0"
         style="stop-color:#ffffff;stop-opacity:1;" />
      <stop
         id="stop1494"
         offset="1"
         style="stop-color:#ffffff;stop-opacity:0;" />
    </linearGradient>
    <linearGradient
       osb:paint="solid"
       id="linearGradient6086">
      <stop
         id="stop6084"
         offset="0"
         style="stop-color:#000000;stop-opacity:1;" />
    </linearGradient>
    <clipPath
       id="clipPath1660"
       clipPathUnits="userSpaceOnUse">
      <path
         inkscape:connector-curvature="0"
         id="path1658"
         d="M 0,0 H 596 V 842 H 0 Z" />
    </clipPath>
    <clipPath
       id="clipPath1676"
       clipPathUnits="userSpaceOnUse">
      <path
         inkscape:connector-curvature="0"
         id="path1674"
         d="M 0,0 H 596 V 842 H 0 Z" />
    </clipPath>
    <clipPath
       id="clipPath1692"
       clipPathUnits="userSpaceOnUse">
      <path
         inkscape:connector-curvature="0"
         id="path1690"
         d="M 0,0 H 596 V 842 H 0 Z" />
    </clipPath>
    <clipPath
       id="clipPath1712"
       clipPathUnits="userSpaceOnUse">
      <path
         inkscape:connector-curvature="0"
         id="path1710"
         d="M 0,0 H 596 V 842 H 0 Z" />
    </clipPath>
    <clipPath
       id="clipPath1732"
       clipPathUnits="userSpaceOnUse">
      <path
         inkscape:connector-curvature="0"
         id="path1730"
         d="M 0,0 H 596 V 842 H 0 Z" />
    </clipPath>
    <clipPath
       id="clipPath1752"
       clipPathUnits="userSpaceOnUse">
      <path
         inkscape:connector-curvature="0"
         id="path1750"
         d="M 0,0 H 596 V 842 H 0 Z" />
    </clipPath>
    <clipPath
       id="clipPath1768"
       clipPathUnits="userSpaceOnUse">
      <path
         inkscape:connector-curvature="0"
         id="path1766"
         d="M 0,0 H 596 V 842 H 0 Z" />
    </clipPath>
    <clipPath
       id="clipPath1784"
       clipPathUnits="userSpaceOnUse">
      <path
         inkscape:connector-curvature="0"
         id="path1782"
         d="M 0,0 H 596 V 842 H 0 Z" />
    </clipPath>
    <clipPath
       id="clipPath1800"
       clipPathUnits="userSpaceOnUse">
      <path
         inkscape:connector-curvature="0"
         id="path1798"
         d="M 0,0 H 596 V 842 H 0 Z" />
    </clipPath>
    <clipPath
       id="clipPath1816"
       clipPathUnits="userSpaceOnUse">
      <path
         inkscape:connector-curvature="0"
         id="path1814"
         d="M 0,0 H 596 V 842 H 0 Z" />
    </clipPath>
    <clipPath
       id="clipPath1832"
       clipPathUnits="userSpaceOnUse">
      <path
         inkscape:connector-curvature="0"
         id="path1830"
         d="M 0,0 H 596 V 842 H 0 Z" />
    </clipPath>
    <clipPath
       id="clipPath1848"
       clipPathUnits="userSpaceOnUse">
      <path
         inkscape:connector-curvature="0"
         id="path1846"
         d="M 0,0 H 596 V 842 H 0 Z" />
    </clipPath>
    <clipPath
       id="clipPath1864"
       clipPathUnits="userSpaceOnUse">
      <path
         inkscape:connector-curvature="0"
         id="path1862"
         d="M 0,0 H 596 V 842 H 0 Z" />
    </clipPath>
    <clipPath
       id="clipPath1880"
       clipPathUnits="userSpaceOnUse">
      <path
         inkscape:connector-curvature="0"
         id="path1878"
         d="M 0,0 H 596 V 842 H 0 Z" />
    </clipPath>
    <clipPath
       id="clipPath1896"
       clipPathUnits="userSpaceOnUse">
      <path
         inkscape:connector-curvature="0"
         id="path1894"
         d="M 0,0 H 596 V 842 H 0 Z" />
    </clipPath>
    <clipPath
       id="clipPath2052"
       clipPathUnits="userSpaceOnUse">
      <path
         inkscape:connector-curvature="0"
         id="path2050"
         d="M 0,0 H 596 V 842 H 0 Z" />
    </clipPath>
    <clipPath
       id="clipPath2068"
       clipPathUnits="userSpaceOnUse">
      <path
         inkscape:connector-curvature="0"
         id="path2066"
         d="M 0,0 H 596 V 842 H 0 Z" />
    </clipPath>
    <clipPath
       clipPathUnits="userSpaceOnUse"
       id="clipPath1504">
      <path
         d="M 0,0 H 596 V 842 H 0 Z"
         id="path1502-8"
         inkscape:connector-curvature="0" />
    </clipPath>
    <clipPath
       clipPathUnits="userSpaceOnUse"
       id="clipPath1520">
      <path
         d="M 0,0 H 596 V 842 H 0 Z"
         id="path1518"
         inkscape:connector-curvature="0" />
    </clipPath>
    <clipPath
       clipPathUnits="userSpaceOnUse"
       id="clipPath1536">
      <path
         d="M 0,0 H 596 V 842 H 0 Z"
         id="path1534"
         inkscape:connector-curvature="0" />
    </clipPath>
    <clipPath
       clipPathUnits="userSpaceOnUse"
       id="clipPath1552">
      <path
         d="M 0,0 H 596 V 842 H 0 Z"
         id="path1550"
         inkscape:connector-curvature="0" />
    </clipPath>
    <clipPath
       clipPathUnits="userSpaceOnUse"
       id="clipPath1568">
      <path
         d="M 0,0 H 596 V 842 H 0 Z"
         id="path1566"
         inkscape:connector-curvature="0" />
    </clipPath>
    <clipPath
       clipPathUnits="userSpaceOnUse"
       id="clipPath1584">
      <path
         d="M 0,0 H 596 V 842 H 0 Z"
         id="path1582"
         inkscape:connector-curvature="0" />
    </clipPath>
    <clipPath
       clipPathUnits="userSpaceOnUse"
       id="clipPath1600">
      <path
         d="M 0,0 H 596 V 842 H 0 Z"
         id="path1598"
         inkscape:connector-curvature="0" />
    </clipPath>
    <clipPath
       clipPathUnits="userSpaceOnUse"
       id="clipPath1616">
      <path
         d="M 0,0 H 596 V 842 H 0 Z"
         id="path1614"
         inkscape:connector-curvature="0" />
    </clipPath>
    <clipPath
       clipPathUnits="userSpaceOnUse"
       id="clipPath1632">
      <path
         d="M 0,0 H 596 V 842 H 0 Z"
         id="path1630"
         inkscape:connector-curvature="0" />
    </clipPath>
    <clipPath
       clipPathUnits="userSpaceOnUse"
       id="clipPath1648">
      <path
         d="M 0,0 H 596 V 842 H 0 Z"
         id="path1646"
         inkscape:connector-curvature="0" />
    </clipPath>
    <clipPath
       clipPathUnits="userSpaceOnUse"
       id="clipPath1664">
      <path
         d="M 0,0 H 596 V 842 H 0 Z"
         id="path1662-3"
         inkscape:connector-curvature="0" />
    </clipPath>
    <clipPath
       clipPathUnits="userSpaceOnUse"
       id="clipPath1680">
      <path
         d="M 0,0 H 596 V 842 H 0 Z"
         id="path1678-3"
         inkscape:connector-curvature="0" />
    </clipPath>
    <clipPath
       clipPathUnits="userSpaceOnUse"
       id="clipPath1696">
      <path
         d="M 0,0 H 596 V 842 H 0 Z"
         id="path1694-7"
         inkscape:connector-curvature="0" />
    </clipPath>
    <clipPath
       clipPathUnits="userSpaceOnUse"
       id="clipPath1712-4">
      <path
         d="M 0,0 H 596 V 842 H 0 Z"
         id="path1710-3"
         inkscape:connector-curvature="0" />
    </clipPath>
    <clipPath
       clipPathUnits="userSpaceOnUse"
       id="clipPath1728">
      <path
         d="M 0,0 H 596 V 842 H 0 Z"
         id="path1726"
         inkscape:connector-curvature="0" />
    </clipPath>
    <clipPath
       clipPathUnits="userSpaceOnUse"
       id="clipPath1744">
      <path
         d="M 0,0 H 596 V 842 H 0 Z"
         id="path1742"
         inkscape:connector-curvature="0" />
    </clipPath>
    <clipPath
       clipPathUnits="userSpaceOnUse"
       id="clipPath1760">
      <path
         d="M 0,0 H 596 V 842 H 0 Z"
         id="path1758"
         inkscape:connector-curvature="0" />
    </clipPath>
    <clipPath
       clipPathUnits="userSpaceOnUse"
       id="clipPath1776">
      <path
         d="M 0,0 H 596 V 842 H 0 Z"
         id="path1774"
         inkscape:connector-curvature="0" />
    </clipPath>
    <clipPath
       clipPathUnits="userSpaceOnUse"
       id="clipPath1792">
      <path
         d="M 0,0 H 596 V 842 H 0 Z"
         id="path1790"
         inkscape:connector-curvature="0" />
    </clipPath>
    <clipPath
       clipPathUnits="userSpaceOnUse"
       id="clipPath1808">
      <path
         d="M 0,0 H 596 V 842 H 0 Z"
         id="path1806"
         inkscape:connector-curvature="0" />
    </clipPath>
    <clipPath
       id="clipPath1660-5"
       clipPathUnits="userSpaceOnUse">
      <path
         inkscape:connector-curvature="0"
         id="path1658-8"
         d="M 0,0 H 596 V 842 H 0 Z" />
    </clipPath>
    <clipPath
       id="clipPath1676-5"
       clipPathUnits="userSpaceOnUse">
      <path
         inkscape:connector-curvature="0"
         id="path1674-6"
         d="M 0,0 H 596 V 842 H 0 Z" />
    </clipPath>
    <clipPath
       id="clipPath1692-1"
       clipPathUnits="userSpaceOnUse">
      <path
         inkscape:connector-curvature="0"
         id="path1690-8"
         d="M 0,0 H 596 V 842 H 0 Z" />
    </clipPath>
    <clipPath
       id="clipPath1712-5"
       clipPathUnits="userSpaceOnUse">
      <path
         inkscape:connector-curvature="0"
         id="path1710-1"
         d="M 0,0 H 596 V 842 H 0 Z" />
    </clipPath>
    <clipPath
       id="clipPath1732-5"
       clipPathUnits="userSpaceOnUse">
      <path
         inkscape:connector-curvature="0"
         id="path1730-6"
         d="M 0,0 H 596 V 842 H 0 Z" />
    </clipPath>
    <clipPath
       id="clipPath1752-5"
       clipPathUnits="userSpaceOnUse">
      <path
         inkscape:connector-curvature="0"
         id="path1750-8"
         d="M 0,0 H 596 V 842 H 0 Z" />
    </clipPath>
    <clipPath
       id="clipPath1768-1"
       clipPathUnits="userSpaceOnUse">
      <path
         inkscape:connector-curvature="0"
         id="path1766-0"
         d="M 0,0 H 596 V 842 H 0 Z" />
    </clipPath>
    <clipPath
       id="clipPath1784-1"
       clipPathUnits="userSpaceOnUse">
      <path
         inkscape:connector-curvature="0"
         id="path1782-9"
         d="M 0,0 H 596 V 842 H 0 Z" />
    </clipPath>
    <clipPath
       id="clipPath1800-2"
       clipPathUnits="userSpaceOnUse">
      <path
         inkscape:connector-curvature="0"
         id="path1798-9"
         d="M 0,0 H 596 V 842 H 0 Z" />
    </clipPath>
    <clipPath
       id="clipPath1816-6"
       clipPathUnits="userSpaceOnUse">
      <path
         inkscape:connector-curvature="0"
         id="path1814-1"
         d="M 0,0 H 596 V 842 H 0 Z" />
    </clipPath>
    <clipPath
       id="clipPath1832-5"
       clipPathUnits="userSpaceOnUse">
      <path
         inkscape:connector-curvature="0"
         id="path1830-6"
         d="M 0,0 H 596 V 842 H 0 Z" />
    </clipPath>
    <clipPath
       id="clipPath1848-4"
       clipPathUnits="userSpaceOnUse">
      <path
         inkscape:connector-curvature="0"
         id="path1846-6"
         d="M 0,0 H 596 V 842 H 0 Z" />
    </clipPath>
    <clipPath
       id="clipPath1864-9"
       clipPathUnits="userSpaceOnUse">
      <path
         inkscape:connector-curvature="0"
         id="path1862-0"
         d="M 0,0 H 596 V 842 H 0 Z" />
    </clipPath>
    <clipPath
       id="clipPath1880-9"
       clipPathUnits="userSpaceOnUse">
      <path
         inkscape:connector-curvature="0"
         id="path1878-5"
         d="M 0,0 H 596 V 842 H 0 Z" />
    </clipPath>
    <clipPath
       id="clipPath1896-3"
       clipPathUnits="userSpaceOnUse">
      <path
         inkscape:connector-curvature="0"
         id="path1894-3"
         d="M 0,0 H 596 V 842 H 0 Z" />
    </clipPath>
    <clipPath
       id="clipPath2052-1"
       clipPathUnits="userSpaceOnUse">
      <path
         inkscape:connector-curvature="0"
         id="path2050-5"
         d="M 0,0 H 596 V 842 H 0 Z" />
    </clipPath>
    <clipPath
       id="clipPath2068-2"
       clipPathUnits="userSpaceOnUse">
      <path
         inkscape:connector-curvature="0"
         id="path2066-2"
         d="M 0,0 H 596 V 842 H 0 Z" />
    </clipPath>
    <clipPath
       clipPathUnits="userSpaceOnUse"
       id="clipPath1504-7">
      <path
         d="M 0,0 H 596 V 842 H 0 Z"
         id="path1502-8-1"
         inkscape:connector-curvature="0" />
    </clipPath>
    <clipPath
       clipPathUnits="userSpaceOnUse"
       id="clipPath1520-5">
      <path
         d="M 0,0 H 596 V 842 H 0 Z"
         id="path1518-9"
         inkscape:connector-curvature="0" />
    </clipPath>
    <clipPath
       clipPathUnits="userSpaceOnUse"
       id="clipPath1536-8">
      <path
         d="M 0,0 H 596 V 842 H 0 Z"
         id="path1534-7"
         inkscape:connector-curvature="0" />
    </clipPath>
    <clipPath
       clipPathUnits="userSpaceOnUse"
       id="clipPath1552-7">
      <path
         d="M 0,0 H 596 V 842 H 0 Z"
         id="path1550-8"
         inkscape:connector-curvature="0" />
    </clipPath>
    <clipPath
       clipPathUnits="userSpaceOnUse"
       id="clipPath1568-5">
      <path
         d="M 0,0 H 596 V 842 H 0 Z"
         id="path1566-7"
         inkscape:connector-curvature="0" />
    </clipPath>
    <clipPath
       clipPathUnits="userSpaceOnUse"
       id="clipPath1584-9">
      <path
         d="M 0,0 H 596 V 842 H 0 Z"
         id="path1582-6"
         inkscape:connector-curvature="0" />
    </clipPath>
    <clipPath
       clipPathUnits="userSpaceOnUse"
       id="clipPath1600-6">
      <path
         d="M 0,0 H 596 V 842 H 0 Z"
         id="path1598-0"
         inkscape:connector-curvature="0" />
    </clipPath>
    <clipPath
       clipPathUnits="userSpaceOnUse"
       id="clipPath1616-2">
      <path
         d="M 0,0 H 596 V 842 H 0 Z"
         id="path1614-2"
         inkscape:connector-curvature="0" />
    </clipPath>
    <clipPath
       clipPathUnits="userSpaceOnUse"
       id="clipPath1632-7">
      <path
         d="M 0,0 H 596 V 842 H 0 Z"
         id="path1630-6"
         inkscape:connector-curvature="0" />
    </clipPath>
    <clipPath
       clipPathUnits="userSpaceOnUse"
       id="clipPath1648-4">
      <path
         d="M 0,0 H 596 V 842 H 0 Z"
         id="path1646-8"
         inkscape:connector-curvature="0" />
    </clipPath>
    <clipPath
       clipPathUnits="userSpaceOnUse"
       id="clipPath1664-2">
      <path
         d="M 0,0 H 596 V 842 H 0 Z"
         id="path1662-3-8"
         inkscape:connector-curvature="0" />
    </clipPath>
    <clipPath
       clipPathUnits="userSpaceOnUse"
       id="clipPath1680-1">
      <path
         d="M 0,0 H 596 V 842 H 0 Z"
         id="path1678-3-9"
         inkscape:connector-curvature="0" />
    </clipPath>
    <clipPath
       clipPathUnits="userSpaceOnUse"
       id="clipPath1696-3">
      <path
         d="M 0,0 H 596 V 842 H 0 Z"
         id="path1694-7-7"
         inkscape:connector-curvature="0" />
    </clipPath>
    <clipPath
       clipPathUnits="userSpaceOnUse"
       id="clipPath1712-4-9">
      <path
         d="M 0,0 H 596 V 842 H 0 Z"
         id="path1710-3-0"
         inkscape:connector-curvature="0" />
    </clipPath>
    <clipPath
       clipPathUnits="userSpaceOnUse"
       id="clipPath1728-4">
      <path
         d="M 0,0 H 596 V 842 H 0 Z"
         id="path1726-9"
         inkscape:connector-curvature="0" />
    </clipPath>
    <clipPath
       clipPathUnits="userSpaceOnUse"
       id="clipPath1744-3">
      <path
         d="M 0,0 H 596 V 842 H 0 Z"
         id="path1742-8"
         inkscape:connector-curvature="0" />
    </clipPath>
    <clipPath
       clipPathUnits="userSpaceOnUse"
       id="clipPath1760-3">
      <path
         d="M 0,0 H 596 V 842 H 0 Z"
         id="path1758-1"
         inkscape:connector-curvature="0" />
    </clipPath>
    <clipPath
       clipPathUnits="userSpaceOnUse"
       id="clipPath1776-7">
      <path
         d="M 0,0 H 596 V 842 H 0 Z"
         id="path1774-7"
         inkscape:connector-curvature="0" />
    </clipPath>
    <clipPath
       clipPathUnits="userSpaceOnUse"
       id="clipPath1792-9">
      <path
         d="M 0,0 H 596 V 842 H 0 Z"
         id="path1790-5"
         inkscape:connector-curvature="0" />
    </clipPath>
    <clipPath
       clipPathUnits="userSpaceOnUse"
       id="clipPath1808-1">
      <path
         d="M 0,0 H 596 V 842 H 0 Z"
         id="path1806-8"
         inkscape:connector-curvature="0" />
    </clipPath>
    <linearGradient
       gradientTransform="scale(0.26458333)"
       gradientUnits="userSpaceOnUse"
       y2="-1387.1982"
       x2="-4242.354"
       y1="-1387.1982"
       x1="-4352.1968"
       id="linearGradient1498"
       xlink:href="#linearGradient1496"
       inkscape:collect="always" />
    <clipPath
       clipPathUnits="userSpaceOnUse"
       id="clipPath2839">
      <path
         d="M 0,0 H 596 V 842 H 0 Z"
         id="path2837"
         inkscape:connector-curvature="0" />
    </clipPath>
    <clipPath
       clipPathUnits="userSpaceOnUse"
       id="clipPath2855">
      <path
         d="M 0,0 H 596 V 842 H 0 Z"
         id="path2853"
         inkscape:connector-curvature="0" />
    </clipPath>
  </defs>
  <sodipodi:namedview
     inkscape:document-rotation="0"
     showguides="true"
     inkscape:window-maximized="1"
     inkscape:window-y="-8"
     inkscape:window-x="-8"
     inkscape:window-height="1017"
     inkscape:window-width="1920"
     showgrid="false"
     inkscape:current-layer="layer1"
     inkscape:document-units="mm"
     inkscape:cy="71.657642"
     inkscape:cx="2129.818"
     inkscape:zoom="0.125"
     inkscape:pageshadow="2"
     inkscape:pageopacity="0.0"
     borderopacity="1.0"
     bordercolor="#666666"
     pagecolor="#ffffff"
     id="base" />
  <metadata
     id="metadata5">
    <rdf:RDF>
      <cc:Work
         rdf:about="">
        <dc:format>image/svg+xml</dc:format>
        <dc:type
           rdf:resource="http://purl.org/dc/dcmitype/StillImage" />
        <dc:title></dc:title>
      </cc:Work>
    </rdf:RDF>
  </metadata>
  <g
     id="layer1"
     inkscape:groupmode="layer"
     inkscape:label="Layer 1">
    <circle
       r="101.10863"
       cy="104.42806"
       cx="105.33356"
       id="path1279-0-6-8-7"
       style="opacity:1;fill:#45ac4a;fill-opacity:1;stroke:none;stroke-width:0.3;stroke-linecap:round;stroke-linejoin:round;stroke-miterlimit:4.98667;stroke-dasharray:none;stroke-dashoffset:0;stroke-opacity:1;paint-order:fill markers stroke" />
    <text
       id="text1445"
       y="237.04974"
       x="51.63311"
       style="font-style:normal;font-weight:normal;font-size:14.1111px;line-height:1.25;font-family:sans-serif;text-align:start;letter-spacing:0px;word-spacing:0px;text-anchor:start;fill:#000000;fill-opacity:1;stroke:none;stroke-width:0.264583"
       xml:space="preserve"><tspan
         style="stroke:none;stroke-width:0.264583"
         y="237.04974"
         x="51.63311"
         id="tspan1443"
         sodipodi:role="line">AGRICULTURE</tspan></text>
    <g
       transform="translate(-1170.7618,-1821.1715)"
       id="g922" />
    <g
       transform="matrix(0.35277777,0,0,0.35277777,-1143.1293,-1214.9265)"
       id="g2835" />
    <g
       transform="matrix(0.35277777,0,0,0.35277777,-1143.1293,-1214.9265)"
       id="g2851" />
    <path
       d="m 205.11266,120.77175 -98.7433,-98.743319 -1.14461,165.476169 16.66661,16.66669 a 101.10863,101.10863 0 0 0 83.2213,-83.39954 z"
       style="opacity:1;fill:#000000;fill-opacity:0.137097;stroke:none;stroke-width:0.3;stroke-linecap:round;stroke-linejoin:round;stroke-miterlimit:4.98667;stroke-dasharray:none;stroke-dashoffset:0;stroke-opacity:1;paint-order:fill markers stroke"
       id="path1279-0-6-8" />
    <path
       id="path2347"
       style="fill:#fdfdfd;fill-opacity:1;stroke-width:1"
       d="m 74.926255,125.00716 c 0.1266,8.23929 -0.4799,16.90942 3.1502,24.53751 4.6782,8.4006 14.6547,11.241 22.863195,14.981 0.5694,0.14599 1.5909,0.20917 2.0753,-0.25683 z" />
    <path
       id="path2445"
       style="fill:#eaeaea;fill-opacity:1;stroke-width:1"
       d="m 74.926255,125.00716 28.088695,39.26168 c 0.1637,-0.15739 0.2673,-0.374 0.2698,-0.66973 0.179,-7.1746 -0.3813,-14.55141 -2.3807,-21.47052 -1.270295,-3.6962 -3.334495,-6.71975 -6.227595,-8.71265 -6.2611,-3.2908 -12.6021,-7.38921 -19.7502,-8.42841 1e-4,0.006 -1e-4,0.0131 0,0.0196 z" />
    <path
       id="path2341"
       style="fill:#fdfdfd;fill-opacity:1;stroke-width:1"
       d="m 135.17426,125.22937 c -0.8148,-0.53079 -2.1077,-0.40536 -4.024,0.83612 -7.5978,3.46169 -16.8477,6.53509 -20.6773,14.62959 -2.6398,7.3696 -3.1824,15.45661 -2.8526,23.22391 z" />
    <path
       id="path2339"
       style="fill:#eaeaea;fill-opacity:1;stroke-width:1"
       d="m 135.17426,125.22937 -27.5539,38.68962 c 0.018,0.6227 0.9626,0.7933 1.3855,0.478 6.6954,-1.9584 13.1767,-4.99725 18.7663,-9.19995 7.8871,-5.8367 7.7797,-16.51281 8.2372,-25.33541 0.4466,-2.17921 0.2054,-3.95447 -0.8351,-4.63226 z" />
    <path
       id="path2337"
       style="fill:#fdfdfd;fill-opacity:1;stroke-width:1"
       d="m 75.273055,91.092444 c -0.7872,5.78243 -0.174,11.882016 0.7544,17.671266 0.8404,6.1095 4.6585,11.29603 9.538,14.79083 4.8367,1.9251 9.9255,4.92098 15.122595,6.66987 0.6745,0.18753 1.6252,0.69541 2.2422,0.27853 z" />
    <path
       id="path2442"
       style="fill:#eaeaea;fill-opacity:1;stroke-width:1"
       d="m 75.273055,91.092444 27.657195,39.410496 c 0.1502,-0.10152 0.2866,-0.2416 0.3876,-0.47335 0.2795,-8.73799 -0.1659,-17.98303 -4.185295,-25.94053 -1.922,-3.9842 -7.0035,-5.896576 -10.7373,-8.479576 -4.1393,-1.4701 -8.4683,-4.61177 -13.1005,-4.77697 -0.012,0.0856 -0.01,0.17419 -0.022,0.25993 z" />
    <path
       id="path2335"
       style="fill:#fdfdfd;fill-opacity:1;stroke-width:1"
       d="m 135.18776,90.810804 c -0.1533,-0.10349 -0.3294,-0.17648 -0.5571,-0.17983 -0.5017,-0.007 -1.2004,0.2516 -2.1668,0.88005 -7.8927,3.2967 -17.254,6.41761 -21.5661,14.414096 -3.0322,7.5446 -3.5838,15.96222 -3.2918,24.00731 l 0.324,0.30335 z" />
    <path
       id="path2448"
       style="fill:#eaeaea;fill-opacity:1;stroke-width:1"
       d="m 135.18776,90.810804 -27.2578,39.424976 0.6485,0.0853 c 6.734,-1.52489 12.8982,-5.10954 18.6816,-8.80255 8.4527,-5.79989 8.2929,-17.25366 8.4956,-26.403556 0.097,-1.73273 0.292,-3.72347 -0.5679,-4.30413 z" />
    <path
       id="path2333"
       style="fill:#fdfdfd;fill-opacity:1;stroke-width:1"
       d="m 75.733455,56.760171 c -1.4076,1.04965 -1.5194,4.1909 -0.9891,6.80579 0.5759,7.7105 1.0579,16.36266 6.4094,22.34954 -0.042,-0.003 -0.093,0.0136 -0.1669,0.11782 0.1962,0.27542 0.2646,0.0842 0.2331,-0.0429 0.1392,0.15392 0.2671,0.31377 0.4129,0.46405 5.9147,3.937203 12.7923,7.579643 19.726995,9.994743 l 1.0345,0.34572 c 0.1166,-0.11705 0.2113,-0.25573 0.308,-0.39223 z" />
    <path
       id="path2439"
       style="fill:#eaeaea;fill-opacity:1;stroke-width:1"
       d="m 75.733455,56.760171 26.968895,39.642543 c 3.03411,-10.128723 -1.7721,-26.693733 -9.094995,-31.710213 -3.8695,-2.9237 -9.0731,-4.61933 -13.685,-6.89984 -1.3186,-1.02582 -2.3549,-1.44098 -3.1543,-1.4211 -0.413,0.0103 -0.7418,0.17028 -1.0346,0.38861 z"
       sodipodi:nodetypes="ccccsc" />
    <path
       id="path2331"
       style="fill:#fdfdfd;fill-opacity:1;stroke-width:1"
       d="m 105.22415,187.46535 c 6e-4,0.0303 -7e-4,0.005 0,0.0393 h 5e-4 c -3e-4,-0.0131 -2e-4,-0.0262 -5e-4,-0.0393 z" />
    <path
       id="path2328"
       style="fill:#fdfdfd;fill-opacity:1;stroke-width:1"
       d="m 106.53826,69.633291 -2.02001,-0.004 c 0.1494,39.278599 -0.1426,78.567189 0.7059,117.836209 -0.03,-1.56619 0.079,1.62499 0.21911,0.91984 l 0.079,-0.97772 c 0.5914,-39.0462 0.4472,-78.10444 0.6625,-117.156149 0.1086,-0.20879 0.2415,-0.41033 0.3535,-0.61805 z" />
    <path
       id="path2436"
       style="fill:#fdfdfd;fill-opacity:1;stroke-width:1"
       d="m 135.21926,56.057891 c -8.4956,3.78305 -18.0314,7.00427 -23.9469,14.60996 -3.7125,7.9514 -3.7334,17.042903 -3.7434,25.652693 z" />
    <path
       id="path2453"
       style="fill:#eaeaea;fill-opacity:1;stroke-width:1"
       d="m 135.21926,56.057891 -27.6903,40.262653 c 5.4027,-0.16389 11.4966,-4.5413 16.6977,-6.9019 6.7678,-3.011603 10.3563,-10.030513 10.8618,-17.157613 0.2983,-5.2903 2.0038,-11.29366 0.1458,-16.20986 0,0.002 -0.01,0.004 -0.015,0.007 z" />
    <path
       id="path2451"
       style="fill:#fdfdfd;fill-opacity:1;stroke-width:1"
       d="m 105.33376,21.142191 c -0.56371,0.066 -1.16191,0.36016 -1.80201,0.95498 -3.1077,3.6107 -4.857995,8.43308 -7.696195,11.96258 -2.0148,4.8389 -2.67,10.20641 -1.9115,15.49931 1.6833,7.4603 6.561095,13.71259 10.594195,20.07009 l 0.81551,0.002 z" />
    <path
       id="path2461"
       style="fill:#eaeaea;fill-opacity:1;stroke-width:1"
       d="m 105.33376,21.142191 v 48.48851 l 1.2045,0.003 c 2.8219,-5.23543 6.6406,-10.15919 8.8724,-15.78922 3.9328,-7.0115 1.5613,-15.39439 -2.127,-21.94129 -2.1747,-2.46846 -4.2102,-10.22686 -7.3696,-10.7518 -0.1823,-0.0303 -0.3681,-0.0363 -0.5581,-0.016 -0.01,7.7e-4 -0.015,0.006 -0.022,0.007 z m 4.1537,2.5802 c -0.042,-0.0148 -0.1056,0.0152 -0.1901,0.13385 0.2532,0.35587 0.3168,-0.0893 0.1901,-0.13385 z m 30.932,24.77369 -5.2002,7.56181 z" />
  </g>
</svg>
