<?xml version="1.0" encoding="UTF-8" standalone="no"?>
<svg
   xmlns:osb="http://www.openswatchbook.org/uri/2009/osb"
   xmlns:dc="http://purl.org/dc/elements/1.1/"
   xmlns:cc="http://creativecommons.org/ns#"
   xmlns:rdf="http://www.w3.org/1999/02/22-rdf-syntax-ns#"
   xmlns:svg="http://www.w3.org/2000/svg"
   xmlns="http://www.w3.org/2000/svg"
   xmlns:xlink="http://www.w3.org/1999/xlink"
   xmlns:sodipodi="http://sodipodi.sourceforge.net/DTD/sodipodi-0.dtd"
   xmlns:inkscape="http://www.inkscape.org/namespaces/inkscape"
   sodipodi:docname="Disability.svg"
   inkscape:version="1.0 (4035a4fb49, 2020-05-01)"
   id="svg8"
   version="1.1"
   viewBox="0 0 210 210"
   height="210mm"
   width="210mm">
  <defs
     id="defs2">
    <linearGradient
       id="linearGradient1496"
       inkscape:collect="always">
      <stop
         id="stop1492"
         offset="0"
         style="stop-color:#ffffff;stop-opacity:1;" />
      <stop
         id="stop1494"
         offset="1"
         style="stop-color:#ffffff;stop-opacity:0;" />
    </linearGradient>
    <linearGradient
       osb:paint="solid"
       id="linearGradient6086">
      <stop
         id="stop6084"
         offset="0"
         style="stop-color:#000000;stop-opacity:1;" />
    </linearGradient>
    <clipPath
       id="clipPath1660"
       clipPathUnits="userSpaceOnUse">
      <path
         inkscape:connector-curvature="0"
         id="path1658"
         d="M 0,0 H 596 V 842 H 0 Z" />
    </clipPath>
    <clipPath
       id="clipPath1676"
       clipPathUnits="userSpaceOnUse">
      <path
         inkscape:connector-curvature="0"
         id="path1674"
         d="M 0,0 H 596 V 842 H 0 Z" />
    </clipPath>
    <clipPath
       id="clipPath1692"
       clipPathUnits="userSpaceOnUse">
      <path
         inkscape:connector-curvature="0"
         id="path1690"
         d="M 0,0 H 596 V 842 H 0 Z" />
    </clipPath>
    <clipPath
       id="clipPath1712"
       clipPathUnits="userSpaceOnUse">
      <path
         inkscape:connector-curvature="0"
         id="path1710"
         d="M 0,0 H 596 V 842 H 0 Z" />
    </clipPath>
    <clipPath
       id="clipPath1732"
       clipPathUnits="userSpaceOnUse">
      <path
         inkscape:connector-curvature="0"
         id="path1730"
         d="M 0,0 H 596 V 842 H 0 Z" />
    </clipPath>
    <clipPath
       id="clipPath1752"
       clipPathUnits="userSpaceOnUse">
      <path
         inkscape:connector-curvature="0"
         id="path1750"
         d="M 0,0 H 596 V 842 H 0 Z" />
    </clipPath>
    <clipPath
       id="clipPath1768"
       clipPathUnits="userSpaceOnUse">
      <path
         inkscape:connector-curvature="0"
         id="path1766"
         d="M 0,0 H 596 V 842 H 0 Z" />
    </clipPath>
    <clipPath
       id="clipPath1784"
       clipPathUnits="userSpaceOnUse">
      <path
         inkscape:connector-curvature="0"
         id="path1782"
         d="M 0,0 H 596 V 842 H 0 Z" />
    </clipPath>
    <clipPath
       id="clipPath1800"
       clipPathUnits="userSpaceOnUse">
      <path
         inkscape:connector-curvature="0"
         id="path1798"
         d="M 0,0 H 596 V 842 H 0 Z" />
    </clipPath>
    <clipPath
       id="clipPath1816"
       clipPathUnits="userSpaceOnUse">
      <path
         inkscape:connector-curvature="0"
         id="path1814"
         d="M 0,0 H 596 V 842 H 0 Z" />
    </clipPath>
    <clipPath
       id="clipPath1832"
       clipPathUnits="userSpaceOnUse">
      <path
         inkscape:connector-curvature="0"
         id="path1830"
         d="M 0,0 H 596 V 842 H 0 Z" />
    </clipPath>
    <clipPath
       id="clipPath1848"
       clipPathUnits="userSpaceOnUse">
      <path
         inkscape:connector-curvature="0"
         id="path1846"
         d="M 0,0 H 596 V 842 H 0 Z" />
    </clipPath>
    <clipPath
       id="clipPath1864"
       clipPathUnits="userSpaceOnUse">
      <path
         inkscape:connector-curvature="0"
         id="path1862"
         d="M 0,0 H 596 V 842 H 0 Z" />
    </clipPath>
    <clipPath
       id="clipPath1880"
       clipPathUnits="userSpaceOnUse">
      <path
         inkscape:connector-curvature="0"
         id="path1878"
         d="M 0,0 H 596 V 842 H 0 Z" />
    </clipPath>
    <clipPath
       id="clipPath1896"
       clipPathUnits="userSpaceOnUse">
      <path
         inkscape:connector-curvature="0"
         id="path1894"
         d="M 0,0 H 596 V 842 H 0 Z" />
    </clipPath>
    <clipPath
       id="clipPath2052"
       clipPathUnits="userSpaceOnUse">
      <path
         inkscape:connector-curvature="0"
         id="path2050"
         d="M 0,0 H 596 V 842 H 0 Z" />
    </clipPath>
    <clipPath
       id="clipPath2068"
       clipPathUnits="userSpaceOnUse">
      <path
         inkscape:connector-curvature="0"
         id="path2066"
         d="M 0,0 H 596 V 842 H 0 Z" />
    </clipPath>
    <clipPath
       clipPathUnits="userSpaceOnUse"
       id="clipPath1504">
      <path
         d="M 0,0 H 596 V 842 H 0 Z"
         id="path1502-8"
         inkscape:connector-curvature="0" />
    </clipPath>
    <clipPath
       clipPathUnits="userSpaceOnUse"
       id="clipPath1520">
      <path
         d="M 0,0 H 596 V 842 H 0 Z"
         id="path1518"
         inkscape:connector-curvature="0" />
    </clipPath>
    <clipPath
       clipPathUnits="userSpaceOnUse"
       id="clipPath1536">
      <path
         d="M 0,0 H 596 V 842 H 0 Z"
         id="path1534"
         inkscape:connector-curvature="0" />
    </clipPath>
    <clipPath
       clipPathUnits="userSpaceOnUse"
       id="clipPath1552">
      <path
         d="M 0,0 H 596 V 842 H 0 Z"
         id="path1550"
         inkscape:connector-curvature="0" />
    </clipPath>
    <clipPath
       clipPathUnits="userSpaceOnUse"
       id="clipPath1568">
      <path
         d="M 0,0 H 596 V 842 H 0 Z"
         id="path1566"
         inkscape:connector-curvature="0" />
    </clipPath>
    <clipPath
       clipPathUnits="userSpaceOnUse"
       id="clipPath1584">
      <path
         d="M 0,0 H 596 V 842 H 0 Z"
         id="path1582"
         inkscape:connector-curvature="0" />
    </clipPath>
    <clipPath
       clipPathUnits="userSpaceOnUse"
       id="clipPath1600">
      <path
         d="M 0,0 H 596 V 842 H 0 Z"
         id="path1598"
         inkscape:connector-curvature="0" />
    </clipPath>
    <clipPath
       clipPathUnits="userSpaceOnUse"
       id="clipPath1616">
      <path
         d="M 0,0 H 596 V 842 H 0 Z"
         id="path1614"
         inkscape:connector-curvature="0" />
    </clipPath>
    <clipPath
       clipPathUnits="userSpaceOnUse"
       id="clipPath1632">
      <path
         d="M 0,0 H 596 V 842 H 0 Z"
         id="path1630"
         inkscape:connector-curvature="0" />
    </clipPath>
    <clipPath
       clipPathUnits="userSpaceOnUse"
       id="clipPath1648">
      <path
         d="M 0,0 H 596 V 842 H 0 Z"
         id="path1646"
         inkscape:connector-curvature="0" />
    </clipPath>
    <clipPath
       clipPathUnits="userSpaceOnUse"
       id="clipPath1664">
      <path
         d="M 0,0 H 596 V 842 H 0 Z"
         id="path1662-3"
         inkscape:connector-curvature="0" />
    </clipPath>
    <clipPath
       clipPathUnits="userSpaceOnUse"
       id="clipPath1680">
      <path
         d="M 0,0 H 596 V 842 H 0 Z"
         id="path1678-3"
         inkscape:connector-curvature="0" />
    </clipPath>
    <clipPath
       clipPathUnits="userSpaceOnUse"
       id="clipPath1696">
      <path
         d="M 0,0 H 596 V 842 H 0 Z"
         id="path1694-7"
         inkscape:connector-curvature="0" />
    </clipPath>
    <clipPath
       clipPathUnits="userSpaceOnUse"
       id="clipPath1712-4">
      <path
         d="M 0,0 H 596 V 842 H 0 Z"
         id="path1710-3"
         inkscape:connector-curvature="0" />
    </clipPath>
    <clipPath
       clipPathUnits="userSpaceOnUse"
       id="clipPath1728">
      <path
         d="M 0,0 H 596 V 842 H 0 Z"
         id="path1726"
         inkscape:connector-curvature="0" />
    </clipPath>
    <clipPath
       clipPathUnits="userSpaceOnUse"
       id="clipPath1744">
      <path
         d="M 0,0 H 596 V 842 H 0 Z"
         id="path1742"
         inkscape:connector-curvature="0" />
    </clipPath>
    <clipPath
       clipPathUnits="userSpaceOnUse"
       id="clipPath1760">
      <path
         d="M 0,0 H 596 V 842 H 0 Z"
         id="path1758"
         inkscape:connector-curvature="0" />
    </clipPath>
    <clipPath
       clipPathUnits="userSpaceOnUse"
       id="clipPath1776">
      <path
         d="M 0,0 H 596 V 842 H 0 Z"
         id="path1774"
         inkscape:connector-curvature="0" />
    </clipPath>
    <clipPath
       clipPathUnits="userSpaceOnUse"
       id="clipPath1792">
      <path
         d="M 0,0 H 596 V 842 H 0 Z"
         id="path1790"
         inkscape:connector-curvature="0" />
    </clipPath>
    <clipPath
       clipPathUnits="userSpaceOnUse"
       id="clipPath1808">
      <path
         d="M 0,0 H 596 V 842 H 0 Z"
         id="path1806"
         inkscape:connector-curvature="0" />
    </clipPath>
    <clipPath
       id="clipPath1660-5"
       clipPathUnits="userSpaceOnUse">
      <path
         inkscape:connector-curvature="0"
         id="path1658-8"
         d="M 0,0 H 596 V 842 H 0 Z" />
    </clipPath>
    <clipPath
       id="clipPath1676-5"
       clipPathUnits="userSpaceOnUse">
      <path
         inkscape:connector-curvature="0"
         id="path1674-6"
         d="M 0,0 H 596 V 842 H 0 Z" />
    </clipPath>
    <clipPath
       id="clipPath1692-1"
       clipPathUnits="userSpaceOnUse">
      <path
         inkscape:connector-curvature="0"
         id="path1690-8"
         d="M 0,0 H 596 V 842 H 0 Z" />
    </clipPath>
    <clipPath
       id="clipPath1712-5"
       clipPathUnits="userSpaceOnUse">
      <path
         inkscape:connector-curvature="0"
         id="path1710-1"
         d="M 0,0 H 596 V 842 H 0 Z" />
    </clipPath>
    <clipPath
       id="clipPath1732-5"
       clipPathUnits="userSpaceOnUse">
      <path
         inkscape:connector-curvature="0"
         id="path1730-6"
         d="M 0,0 H 596 V 842 H 0 Z" />
    </clipPath>
    <clipPath
       id="clipPath1752-5"
       clipPathUnits="userSpaceOnUse">
      <path
         inkscape:connector-curvature="0"
         id="path1750-8"
         d="M 0,0 H 596 V 842 H 0 Z" />
    </clipPath>
    <clipPath
       id="clipPath1768-1"
       clipPathUnits="userSpaceOnUse">
      <path
         inkscape:connector-curvature="0"
         id="path1766-0"
         d="M 0,0 H 596 V 842 H 0 Z" />
    </clipPath>
    <clipPath
       id="clipPath1784-1"
       clipPathUnits="userSpaceOnUse">
      <path
         inkscape:connector-curvature="0"
         id="path1782-9"
         d="M 0,0 H 596 V 842 H 0 Z" />
    </clipPath>
    <clipPath
       id="clipPath1800-2"
       clipPathUnits="userSpaceOnUse">
      <path
         inkscape:connector-curvature="0"
         id="path1798-9"
         d="M 0,0 H 596 V 842 H 0 Z" />
    </clipPath>
    <clipPath
       id="clipPath1816-6"
       clipPathUnits="userSpaceOnUse">
      <path
         inkscape:connector-curvature="0"
         id="path1814-1"
         d="M 0,0 H 596 V 842 H 0 Z" />
    </clipPath>
    <clipPath
       id="clipPath1832-5"
       clipPathUnits="userSpaceOnUse">
      <path
         inkscape:connector-curvature="0"
         id="path1830-6"
         d="M 0,0 H 596 V 842 H 0 Z" />
    </clipPath>
    <clipPath
       id="clipPath1848-4"
       clipPathUnits="userSpaceOnUse">
      <path
         inkscape:connector-curvature="0"
         id="path1846-6"
         d="M 0,0 H 596 V 842 H 0 Z" />
    </clipPath>
    <clipPath
       id="clipPath1864-9"
       clipPathUnits="userSpaceOnUse">
      <path
         inkscape:connector-curvature="0"
         id="path1862-0"
         d="M 0,0 H 596 V 842 H 0 Z" />
    </clipPath>
    <clipPath
       id="clipPath1880-9"
       clipPathUnits="userSpaceOnUse">
      <path
         inkscape:connector-curvature="0"
         id="path1878-5"
         d="M 0,0 H 596 V 842 H 0 Z" />
    </clipPath>
    <clipPath
       id="clipPath1896-3"
       clipPathUnits="userSpaceOnUse">
      <path
         inkscape:connector-curvature="0"
         id="path1894-3"
         d="M 0,0 H 596 V 842 H 0 Z" />
    </clipPath>
    <clipPath
       id="clipPath2052-1"
       clipPathUnits="userSpaceOnUse">
      <path
         inkscape:connector-curvature="0"
         id="path2050-5"
         d="M 0,0 H 596 V 842 H 0 Z" />
    </clipPath>
    <clipPath
       id="clipPath2068-2"
       clipPathUnits="userSpaceOnUse">
      <path
         inkscape:connector-curvature="0"
         id="path2066-2"
         d="M 0,0 H 596 V 842 H 0 Z" />
    </clipPath>
    <clipPath
       clipPathUnits="userSpaceOnUse"
       id="clipPath1504-7">
      <path
         d="M 0,0 H 596 V 842 H 0 Z"
         id="path1502-8-1"
         inkscape:connector-curvature="0" />
    </clipPath>
    <clipPath
       clipPathUnits="userSpaceOnUse"
       id="clipPath1520-5">
      <path
         d="M 0,0 H 596 V 842 H 0 Z"
         id="path1518-9"
         inkscape:connector-curvature="0" />
    </clipPath>
    <clipPath
       clipPathUnits="userSpaceOnUse"
       id="clipPath1536-8">
      <path
         d="M 0,0 H 596 V 842 H 0 Z"
         id="path1534-7"
         inkscape:connector-curvature="0" />
    </clipPath>
    <clipPath
       clipPathUnits="userSpaceOnUse"
       id="clipPath1552-7">
      <path
         d="M 0,0 H 596 V 842 H 0 Z"
         id="path1550-8"
         inkscape:connector-curvature="0" />
    </clipPath>
    <clipPath
       clipPathUnits="userSpaceOnUse"
       id="clipPath1568-5">
      <path
         d="M 0,0 H 596 V 842 H 0 Z"
         id="path1566-7"
         inkscape:connector-curvature="0" />
    </clipPath>
    <clipPath
       clipPathUnits="userSpaceOnUse"
       id="clipPath1584-9">
      <path
         d="M 0,0 H 596 V 842 H 0 Z"
         id="path1582-6"
         inkscape:connector-curvature="0" />
    </clipPath>
    <clipPath
       clipPathUnits="userSpaceOnUse"
       id="clipPath1600-6">
      <path
         d="M 0,0 H 596 V 842 H 0 Z"
         id="path1598-0"
         inkscape:connector-curvature="0" />
    </clipPath>
    <clipPath
       clipPathUnits="userSpaceOnUse"
       id="clipPath1616-2">
      <path
         d="M 0,0 H 596 V 842 H 0 Z"
         id="path1614-2"
         inkscape:connector-curvature="0" />
    </clipPath>
    <clipPath
       clipPathUnits="userSpaceOnUse"
       id="clipPath1632-7">
      <path
         d="M 0,0 H 596 V 842 H 0 Z"
         id="path1630-6"
         inkscape:connector-curvature="0" />
    </clipPath>
    <clipPath
       clipPathUnits="userSpaceOnUse"
       id="clipPath1648-4">
      <path
         d="M 0,0 H 596 V 842 H 0 Z"
         id="path1646-8"
         inkscape:connector-curvature="0" />
    </clipPath>
    <clipPath
       clipPathUnits="userSpaceOnUse"
       id="clipPath1664-2">
      <path
         d="M 0,0 H 596 V 842 H 0 Z"
         id="path1662-3-8"
         inkscape:connector-curvature="0" />
    </clipPath>
    <clipPath
       clipPathUnits="userSpaceOnUse"
       id="clipPath1680-1">
      <path
         d="M 0,0 H 596 V 842 H 0 Z"
         id="path1678-3-9"
         inkscape:connector-curvature="0" />
    </clipPath>
    <clipPath
       clipPathUnits="userSpaceOnUse"
       id="clipPath1696-3">
      <path
         d="M 0,0 H 596 V 842 H 0 Z"
         id="path1694-7-7"
         inkscape:connector-curvature="0" />
    </clipPath>
    <clipPath
       clipPathUnits="userSpaceOnUse"
       id="clipPath1712-4-9">
      <path
         d="M 0,0 H 596 V 842 H 0 Z"
         id="path1710-3-0"
         inkscape:connector-curvature="0" />
    </clipPath>
    <clipPath
       clipPathUnits="userSpaceOnUse"
       id="clipPath1728-4">
      <path
         d="M 0,0 H 596 V 842 H 0 Z"
         id="path1726-9"
         inkscape:connector-curvature="0" />
    </clipPath>
    <clipPath
       clipPathUnits="userSpaceOnUse"
       id="clipPath1744-3">
      <path
         d="M 0,0 H 596 V 842 H 0 Z"
         id="path1742-8"
         inkscape:connector-curvature="0" />
    </clipPath>
    <clipPath
       clipPathUnits="userSpaceOnUse"
       id="clipPath1760-3">
      <path
         d="M 0,0 H 596 V 842 H 0 Z"
         id="path1758-1"
         inkscape:connector-curvature="0" />
    </clipPath>
    <clipPath
       clipPathUnits="userSpaceOnUse"
       id="clipPath1776-7">
      <path
         d="M 0,0 H 596 V 842 H 0 Z"
         id="path1774-7"
         inkscape:connector-curvature="0" />
    </clipPath>
    <clipPath
       clipPathUnits="userSpaceOnUse"
       id="clipPath1792-9">
      <path
         d="M 0,0 H 596 V 842 H 0 Z"
         id="path1790-5"
         inkscape:connector-curvature="0" />
    </clipPath>
    <clipPath
       clipPathUnits="userSpaceOnUse"
       id="clipPath1808-1">
      <path
         d="M 0,0 H 596 V 842 H 0 Z"
         id="path1806-8"
         inkscape:connector-curvature="0" />
    </clipPath>
    <linearGradient
       gradientTransform="scale(0.26458333)"
       gradientUnits="userSpaceOnUse"
       y2="-1387.1982"
       x2="-4242.354"
       y1="-1387.1982"
       x1="-4352.1968"
       id="linearGradient1498"
       xlink:href="#linearGradient1496"
       inkscape:collect="always" />
    <clipPath
       clipPathUnits="userSpaceOnUse"
       id="clipPath2839">
      <path
         d="M 0,0 H 596 V 842 H 0 Z"
         id="path2837"
         inkscape:connector-curvature="0" />
    </clipPath>
    <clipPath
       clipPathUnits="userSpaceOnUse"
       id="clipPath2855">
      <path
         d="M 0,0 H 596 V 842 H 0 Z"
         id="path2853"
         inkscape:connector-curvature="0" />
    </clipPath>
  </defs>
  <sodipodi:namedview
     inkscape:document-rotation="0"
     showguides="true"
     inkscape:window-maximized="1"
     inkscape:window-y="-8"
     inkscape:window-x="-8"
     inkscape:window-height="1017"
     inkscape:window-width="1920"
     showgrid="false"
     inkscape:current-layer="layer1"
     inkscape:document-units="mm"
     inkscape:cy="100.90245"
     inkscape:cx="6307.2235"
     inkscape:zoom="0.062500001"
     inkscape:pageshadow="2"
     inkscape:pageopacity="0.0"
     borderopacity="1.0"
     bordercolor="#666666"
     pagecolor="#ffffff"
     id="base" />
  <metadata
     id="metadata5">
    <rdf:RDF>
      <cc:Work
         rdf:about="">
        <dc:format>image/svg+xml</dc:format>
        <dc:type
           rdf:resource="http://purl.org/dc/dcmitype/StillImage" />
        <dc:title></dc:title>
      </cc:Work>
    </rdf:RDF>
  </metadata>
  <g
     id="layer1"
     inkscape:groupmode="layer"
     inkscape:label="Layer 1">
    <text
       id="text1565"
       y="250.26591"
       x="62.614979"
       style="font-style:normal;font-weight:normal;font-size:14.1111px;line-height:1.25;font-family:sans-serif;text-align:start;letter-spacing:0px;word-spacing:0px;text-anchor:start;fill:#000000;fill-opacity:1;stroke:none;stroke-width:0.264583"
       xml:space="preserve"><tspan
         style="stroke:none;stroke-width:0.264583"
         y="250.26591"
         x="62.614979"
         id="tspan1563"
         sodipodi:role="line">DISABILITY</tspan></text>
    <circle
       r="101.10863"
       cy="104.69273"
       cx="104.69336"
       id="path1279-5-1-7-8-6-4"
       style="opacity:0.99;fill:#ff791a;fill-opacity:1;stroke:none;stroke-width:0.3;stroke-linecap:round;stroke-linejoin:round;stroke-miterlimit:4.98667;stroke-dasharray:none;stroke-dashoffset:0;stroke-opacity:1;paint-order:fill markers stroke" />
    <path
       id="path2537"
       d="m 204.71064,118.66405 -84.5484,-84.548316 -24.359196,10.27069 -13.079305,51.244928 -17.1979,9.524998 c 0,0 -3.3073,5.4901 -6.6146,11.1125 -1.6537,2.8112 -3.3073,5.65547 -4.5475,7.86309 -0.6201,1.10381 -1.1369,2.04845 -1.4986,2.75022 -0.3618,0.70176 -0.5685,1.16065 -0.5685,1.29294 0,1.05833 -0.926,24.07708 -0.926,24.07708 l 53.541401,53.5414 a 101.10863,101.10863 0 0 0 99.7986,-87.12953 z"
       style="opacity:0.99;fill:#000000;fill-opacity:0.141414;stroke:none;stroke-width:0.3;stroke-linecap:round;stroke-linejoin:round;stroke-miterlimit:4.98667;stroke-dasharray:none;stroke-dashoffset:0;stroke-opacity:1;paint-order:fill markers stroke" />
    <g
       transform="translate(-1170.7618,-1821.1715)"
       id="g922" />
    <g
       transform="matrix(0.35277777,0,0,0.35277777,-1143.1293,-1214.9265)"
       id="g2835" />
    <g
       transform="matrix(0.35277777,0,0,0.35277777,-1143.1293,-1214.9265)"
       id="g2851" />
    <circle
       r="14.963392"
       cy="45.741882"
       cx="111.79173"
       id="path2554"
       style="opacity:1;fill:#f9d8b0;fill-opacity:1;fill-rule:nonzero;stroke:none;stroke-width:0.165;stroke-linecap:round;stroke-linejoin:round;stroke-miterlimit:4;stroke-dasharray:0.495, 0.165;stroke-dashoffset:0;stroke-opacity:1;paint-order:fill markers stroke" />
    <path
       inkscape:connector-curvature="0"
       id="path2704"
       d="m 146.92424,130.6717 h -15.8752 c 0.1745,2.758 0.2608,7.14331 0.2608,14.16007 0,10.78539 0.2647,17.38874 0.7326,18.26301 0.4031,0.75317 1.7027,1.80906 2.8878,2.34643 3.2024,1.45223 8.442,0.74761 10.6164,-1.428 l 1.7295,-1.73014 -0.2457,-23.93304 c -0.032,-3.0765 -0.07,-5.27541 -0.1062,-7.67833 z"
       style="fill:#f9f9f9;stroke-width:1" />
    <path
       inkscape:connector-curvature="0"
       id="path2528"
       d="m 98.901044,63.694322 c -6.6407,-0.0122 -5.9008,2.29237 -5.9008,33.05654 v 30.251008 l 1.7901,1.48328 c 1.6696,1.38337 2.667,1.48329 14.811096,1.48329 9.2214,0 22.4672,-0.0727 23.0446,0.53547 0.2517,0.26519 0.4248,1.57828 0.5545,3.7382 h 15.8752 l 1.7584,0.21974 c 0,0 -0.3252,-6.97242 -0.3795,-7.65825 -0.054,-0.68583 -1.0314,-7.42987 -1.1942,-8.63007 -0.1628,-1.2002 -0.868,-3.48648 -1.4106,-4.22947 -0.5426,-0.74299 -1.0312,-1.02863 -1.0312,-1.02863 l 0.014,0.12944 c -0.2262,-0.0834 -5.5592,-0.50799 -12.012,-0.53168 l -21.0981,-0.0776 -0.2014,-2.50434 -0.2014,-2.50497 c 0.087,-19.478918 0.2419,-40.859848 -1.3861,-42.221438 -1.1489,-1.25895 -2.1947,-1.43151 -8.6896,-1.43151 -1.4092,0 -2.626,-0.0516 -3.676696,-0.0713 -0.2299,-0.005 -0.4519,-0.007 -0.6661,-0.007 z"
       style="fill:#43adf9;fill-opacity:1;stroke-width:1" />
    <path
       d="m 80.269239,44.573504 c -2.0521,0 -3.7041,1.65206 -3.7041,3.704166 v 50.515254 l 7.7406,-2.847372 8.316805,0.32814 V 48.27767 c 0,-2.052106 -1.6521,-3.704166 -3.7042,-3.704166 z"
       style="opacity:1;fill:#b3b3b3;fill-opacity:1;fill-rule:nonzero;stroke:#ececec;stroke-width:1.565;stroke-linecap:round;stroke-linejoin:round;stroke-miterlimit:4;stroke-dasharray:none;stroke-dashoffset:0;stroke-opacity:1;paint-order:fill markers stroke"
       id="path2687" />
    <path
       inkscape:connector-curvature="0"
       id="path2530"
       d="M 89.989844,90.346082 A 43.071963,43.071963 0 0 0 46.917939,133.41798 43.071963,43.071963 0 0 0 89.989844,176.4905 43.071963,43.071963 0 0 0 133.06174,133.41798 43.071963,43.071963 0 0 0 89.989844,90.346082 Z m 0,6.44577 a 36.626194,36.626194 0 0 1 3.6563,0.18345 36.626194,36.626194 0 0 1 3.6198,0.54674 36.626194,36.626194 0 0 1 3.547196,0.905832 36.626194,36.626194 0 0 1 3.4393,1.25534 36.626194,36.626194 0 0 1 3.2966,1.592256 36.626194,36.626194 0 0 1 3.1216,1.91418 36.626194,36.626194 0 0 1 2.9141,2.21514 36.626194,36.626194 0 0 1 2.6792,2.4957 36.626194,36.626194 0 0 1 2.4159,2.75048 36.626194,36.626194 0 0 1 2.1295,2.97829 36.626194,36.626194 0 0 1 1.8218,3.17552 36.626194,36.626194 0 0 1 1.4958,3.34159 36.626194,36.626194 0 0 1 1.154,3.47467 36.626194,36.626194 0 0 1 0.8021,3.57179 36.626194,36.626194 0 0 1 0.4412,3.63474 36.626194,36.626194 0 0 1 0.092,2.59041 36.626194,36.626194 0 0 1 -0.1834,3.65692 36.626194,36.626194 0 0 1 -0.5468,3.61975 36.626194,36.626194 0 0 1 -0.9058,3.54721 36.626194,36.626194 0 0 1 -1.2553,3.43931 36.626194,36.626194 0 0 1 -1.5923,3.29662 36.626194,36.626194 0 0 1 -1.9136,3.12097 36.626194,36.626194 0 0 1 -2.2157,2.91475 36.626194,36.626194 0 0 1 -2.4957,2.67854 36.626194,36.626194 0 0 1 -2.7505,2.41656 36.626194,36.626194 0 0 1 -2.9783,2.12941 36.626194,36.626194 0 0 1 -3.1755,1.82186 36.626194,36.626194 0 0 1 -3.3416,1.49514 36.626194,36.626194 0 0 1 -3.474696,1.15463 36.626194,36.626194 0 0 1 -3.5718,0.80213 36.626194,36.626194 0 0 1 -3.6347,0.44122 36.626194,36.626194 0 0 1 -2.5904,0.0917 36.626194,36.626194 0 0 1 -3.656905,-0.18344 36.626194,36.626194 0 0 1 -3.6198,-0.54674 36.626194,36.626194 0 0 1 -3.5472,-0.90584 36.626194,36.626194 0 0 1 -3.4393,-1.25534 36.626194,36.626194 0 0 1 -3.2966,-1.59286 36.626194,36.626194 0 0 1 -3.121,-1.91359 36.626194,36.626194 0 0 1 -2.9147,-2.21513 36.626194,36.626194 0 0 1 -2.6786,-2.4957 36.626194,36.626194 0 0 1 -2.4165,-2.75048 36.626194,36.626194 0 0 1 -2.1294,-2.97829 36.626194,36.626194 0 0 1 -1.8219,-3.17553 36.626194,36.626194 0 0 1 -1.4951,-3.34158 36.626194,36.626194 0 0 1 -1.1547,-3.47468 36.626194,36.626194 0 0 1 -0.8021,-3.57179 36.626194,36.626194 0 0 1 -0.4406,-3.63473 36.626194,36.626194 0 0 1 -0.092,-2.59102 36.626194,36.626194 0 0 1 0.1828,-3.65632 36.626194,36.626194 0 0 1 0.5468,-3.61975 36.626194,36.626194 0 0 1 0.9058,-3.54721 36.626194,36.626194 0 0 1 1.2553,-3.43931 36.626194,36.626194 0 0 1 1.5929,-3.29662 36.626194,36.626194 0 0 1 1.9136,-3.12097 36.626194,36.626194 0 0 1 2.2157,-2.91474 36.626194,36.626194 0 0 1 2.4951,-2.67854 36.626194,36.626194 0 0 1 2.7505,-2.41657 36.626194,36.626194 0 0 1 2.9783,-2.12941 36.626194,36.626194 0 0 1 3.1755,-1.82186 36.626194,36.626194 0 0 1 3.3416,-1.495736 36.626194,36.626194 0 0 1 3.4747,-1.15403 36.626194,36.626194 0 0 1 3.5718,-0.802122 36.626194,36.626194 0 0 1 3.634705,-0.44123 36.626194,36.626194 0 0 1 2.591,-0.0918 z"
       style="opacity:1;fill:#b3b3b3;fill-opacity:1;fill-rule:nonzero;stroke:none;stroke-width:0.165;stroke-linecap:round;stroke-linejoin:round;stroke-miterlimit:4;stroke-dasharray:0.495, 0.165;stroke-dashoffset:0;stroke-opacity:1;paint-order:fill markers stroke" />
    <path
       inkscape:connector-curvature="0"
       id="path2530-7-2"
       d="M 89.989844,96.791852 A 36.626194,36.626194 0 0 0 53.363139,133.41798 36.626194,36.626194 0 0 0 89.989844,170.04473 36.626194,36.626194 0 0 0 126.61594,133.41798 36.626194,36.626194 0 0 0 89.989844,96.791852 Z m -3.543005,4.734198 v 23.36772 l -16.4945,-16.4945 a 32.119294,32.119294 0 0 1 1.6372,-1.23136 32.119294,32.119294 0 0 1 2.7151,-1.71336 32.119294,32.119294 0 0 1 2.8728,-1.4334 32.119294,32.119294 0 0 1 3.0011,-1.13963 32.119294,32.119294 0 0 1 3.1006,-0.8345 32.119294,32.119294 0 0 1 3.1677,-0.52097 z m 7.074605,0.0288 a 32.119294,32.119294 0 0 1 2.0203,0.29015 32.119294,32.119294 0 0 1 3.13,0.7152 32.119294,32.119294 0 0 1 3.042996,1.02334 32.119294,32.119294 0 0 1 2.9262,1.32249 32.119294,32.119294 0 0 1 2.7786,1.60724 32.119294,32.119294 0 0 1 2.6042,1.87762 l -16.502296,16.50229 z m -28.583905,11.83464 16.5071,16.50649 h -23.3695 a 32.119294,32.119294 0 0 1 0.2949,-2.03408 32.119294,32.119294 0 0 1 0.7194,-3.12877 32.119294,32.119294 0 0 1 1.0288,-3.04124 32.119294,32.119294 0 0 1 1.3267,-2.92373 32.119294,32.119294 0 0 1 1.612,-2.77686 32.119294,32.119294 0 0 1 1.8806,-2.60181 z m 50.074001,0.0198 a 32.119294,32.119294 0 0 1 1.2218,1.62703 32.119294,32.119294 0 0 1 1.7122,2.71571 32.119294,32.119294 0 0 1 1.4327,2.87338 32.119294,32.119294 0 0 1 1.1385,3.00227 32.119294,32.119294 0 0 1 0.8333,3.10059 32.119294,32.119294 0 0 1 0.5197,3.16773 H 98.523644 Z m -56.912401,23.56195 h 23.3455 l -16.4873,16.48671 a 32.119294,32.119294 0 0 1 -1.2224,-1.62703 32.119294,32.119294 0 0 1 -1.7121,-2.71571 32.119294,32.119294 0 0 1 -1.4322,-2.87338 32.119294,32.119294 0 0 1 -1.1391,-3.00167 32.119294,32.119294 0 0 1 -0.8327,-3.10059 32.119294,32.119294 0 0 1 -0.5197,-3.16833 z m 40.424505,0 h 23.369496 a 32.119294,32.119294 0 0 1 -0.2949,2.03408 32.119294,32.119294 0 0 1 -0.7194,3.12877 32.119294,32.119294 0 0 1 -1.0282,3.04183 32.119294,32.119294 0 0 1 -1.3272,2.92314 32.119294,32.119294 0 0 1 -1.6115,2.77686 32.119294,32.119294 0 0 1 -1.8812,2.60181 z m -12.076805,5.00218 v 23.33894 a 32.119294,32.119294 0 0 1 -2.0203,-0.29016 32.119294,32.119294 0 0 1 -3.13,-0.71459 32.119294,32.119294 0 0 1 -3.043,-1.02394 32.119294,32.119294 0 0 1 -2.9262,-1.32189 32.119294,32.119294 0 0 1 -2.7786,-1.60784 32.119294,32.119294 0 0 1 -2.6048,-1.87702 z m 7.074605,6e-4 16.494496,16.49391 a 32.119294,32.119294 0 0 1 -1.6366,1.23076 32.119294,32.119294 0 0 1 -2.7151,1.71336 32.119294,32.119294 0 0 1 -2.8728,1.43399 32.119294,32.119294 0 0 1 -3.001596,1.13964 32.119294,32.119294 0 0 1 -3.1,0.83449 32.119294,32.119294 0 0 1 -3.1684,0.52097 z"
       style="opacity:1;fill:#ececec;fill-opacity:1;fill-rule:nonzero;stroke:none;stroke-width:0.165;stroke-linecap:round;stroke-linejoin:round;stroke-miterlimit:4;stroke-dasharray:0.495, 0.165;stroke-dashoffset:0;stroke-opacity:1;paint-order:fill markers stroke" />
    <path
       inkscape:connector-curvature="0"
       id="path2693"
       d="m 68.435639,162.9587 a 36.604776,36.595184 0 0 0 21.543405,7.05725 36.604776,36.595184 0 0 0 36.605196,-36.59497 36.604776,36.595184 0 0 0 -6.0813,-20.16161 38.341097,38.331048 0 0 1 0.6744,1.50713 38.341097,38.331048 0 0 1 1.2086,3.63593 38.341097,38.331048 0 0 1 0.8393,3.73846 38.341097,38.331048 0 0 1 0.4622,3.80379 38.341097,38.331048 0 0 1 0.096,2.71152 38.341097,38.331048 0 0 1 -0.1918,3.82657 38.341097,38.331048 0 0 1 -0.5725,3.78881 38.341097,38.331048 0 0 1 -0.9484,3.71207 38.341097,38.331048 0 0 1 -1.3141,3.59937 38.341097,38.331048 0 0 1 -1.6666,3.45009 38.341097,38.331048 0 0 1 -2.0036,3.26605 38.341097,38.331048 0 0 1 -2.3194,3.05023 38.341097,38.331048 0 0 1 -2.612,2.80384 38.341097,38.331048 0 0 1 -2.8794,2.52867 38.341097,38.331048 0 0 1 -3.1173,2.22892 38.341097,38.331048 0 0 1 -3.3248,1.9064 38.341097,38.331048 0 0 1 -3.498096,1.56468 38.341097,38.331048 0 0 1 -3.6371,1.20858 38.341097,38.331048 0 0 1 -3.7391,0.83869 38.341097,38.331048 0 0 1 -3.805,0.46221 38.341097,38.331048 0 0 1 -2.712105,0.0959 38.341097,38.331048 0 0 1 -3.8278,-0.19184 38.341097,38.331048 0 0 1 -3.7894,-0.57251 38.341097,38.331048 0 0 1 -3.7132,-0.94781 38.341097,38.331048 0 0 1 -3.6,-1.31409 38.341097,38.331048 0 0 1 -2.076,-1.00235 z"
       style="opacity:1;fill:#ffffff;fill-opacity:1;fill-rule:nonzero;stroke:none;stroke-width:0.165;stroke-linecap:round;stroke-linejoin:round;stroke-miterlimit:4;stroke-dasharray:0.495, 0.165;stroke-dashoffset:0;stroke-opacity:1;paint-order:fill markers stroke" />
    <path
       inkscape:connector-curvature="0"
       id="path2601-0"
       d="m 89.979044,96.826022 a 36.604776,36.595184 0 0 0 -36.604505,36.594958 36.604776,36.595184 0 0 0 0.1534,3.09759 42.604574,42.604574 0 0 1 0.4131,-2.7319 42.604574,42.604574 0 0 1 1.0533,-4.12632 42.604574,42.604574 0 0 1 1.4604,-4.00043 42.604574,42.604574 0 0 1 1.8524,-3.83497 42.604574,42.604574 0 0 1 2.2259,-3.63054 42.604574,42.604574 0 0 1 2.5773,-3.39014 42.604574,42.604574 0 0 1 2.9027,-3.11618 42.604574,42.604574 0 0 1 3.1995,-2.81043 42.604574,42.604574 0 0 1 3.4639,-2.47711 42.604574,42.604574 0 0 1 3.6941,-2.11922 42.604574,42.604574 0 0 1 3.8877,-1.73973 42.604574,42.604574 0 0 1 4.0412,-1.34287 42.604574,42.604574 0 0 1 4.155105,-0.93282 42.604574,42.604574 0 0 1 4.2276,-0.513156 42.604574,42.604574 0 0 1 3.0137,-0.10673 42.604574,42.604574 0 0 1 4.2534,0.21282 42.604574,42.604574 0 0 1 4.210896,0.636666 42.604574,42.604574 0 0 1 3.5094,0.89624 36.604776,36.595184 0 0 0 -17.690496,-4.565758 z"
       style="opacity:1;fill:#cdcdcd;fill-opacity:1;fill-rule:nonzero;stroke:none;stroke-width:0.165;stroke-linecap:round;stroke-linejoin:round;stroke-miterlimit:4;stroke-dasharray:0.495, 0.165;stroke-dashoffset:0;stroke-opacity:1;paint-order:fill markers stroke" />
  </g>
</svg>
