<?xml version="1.0" encoding="UTF-8" standalone="no"?>
<svg
   xmlns:osb="http://www.openswatchbook.org/uri/2009/osb"
   xmlns:dc="http://purl.org/dc/elements/1.1/"
   xmlns:cc="http://creativecommons.org/ns#"
   xmlns:rdf="http://www.w3.org/1999/02/22-rdf-syntax-ns#"
   xmlns:svg="http://www.w3.org/2000/svg"
   xmlns="http://www.w3.org/2000/svg"
   xmlns:xlink="http://www.w3.org/1999/xlink"
   xmlns:sodipodi="http://sodipodi.sourceforge.net/DTD/sodipodi-0.dtd"
   xmlns:inkscape="http://www.inkscape.org/namespaces/inkscape"
   sodipodi:docname="Motherhood.svg"
   inkscape:version="1.0 (4035a4fb49, 2020-05-01)"
   id="svg8"
   version="1.1"
   viewBox="0 0 210 210"
   height="210mm"
   width="210mm">
  <defs
     id="defs2">
    <linearGradient
       id="linearGradient1496"
       inkscape:collect="always">
      <stop
         id="stop1492"
         offset="0"
         style="stop-color:#ffffff;stop-opacity:1;" />
      <stop
         id="stop1494"
         offset="1"
         style="stop-color:#ffffff;stop-opacity:0;" />
    </linearGradient>
    <linearGradient
       osb:paint="solid"
       id="linearGradient6086">
      <stop
         id="stop6084"
         offset="0"
         style="stop-color:#000000;stop-opacity:1;" />
    </linearGradient>
    <clipPath
       id="clipPath1660"
       clipPathUnits="userSpaceOnUse">
      <path
         inkscape:connector-curvature="0"
         id="path1658"
         d="M 0,0 H 596 V 842 H 0 Z" />
    </clipPath>
    <clipPath
       id="clipPath1676"
       clipPathUnits="userSpaceOnUse">
      <path
         inkscape:connector-curvature="0"
         id="path1674"
         d="M 0,0 H 596 V 842 H 0 Z" />
    </clipPath>
    <clipPath
       id="clipPath1692"
       clipPathUnits="userSpaceOnUse">
      <path
         inkscape:connector-curvature="0"
         id="path1690"
         d="M 0,0 H 596 V 842 H 0 Z" />
    </clipPath>
    <clipPath
       id="clipPath1712"
       clipPathUnits="userSpaceOnUse">
      <path
         inkscape:connector-curvature="0"
         id="path1710"
         d="M 0,0 H 596 V 842 H 0 Z" />
    </clipPath>
    <clipPath
       id="clipPath1732"
       clipPathUnits="userSpaceOnUse">
      <path
         inkscape:connector-curvature="0"
         id="path1730"
         d="M 0,0 H 596 V 842 H 0 Z" />
    </clipPath>
    <clipPath
       id="clipPath1752"
       clipPathUnits="userSpaceOnUse">
      <path
         inkscape:connector-curvature="0"
         id="path1750"
         d="M 0,0 H 596 V 842 H 0 Z" />
    </clipPath>
    <clipPath
       id="clipPath1768"
       clipPathUnits="userSpaceOnUse">
      <path
         inkscape:connector-curvature="0"
         id="path1766"
         d="M 0,0 H 596 V 842 H 0 Z" />
    </clipPath>
    <clipPath
       id="clipPath1784"
       clipPathUnits="userSpaceOnUse">
      <path
         inkscape:connector-curvature="0"
         id="path1782"
         d="M 0,0 H 596 V 842 H 0 Z" />
    </clipPath>
    <clipPath
       id="clipPath1800"
       clipPathUnits="userSpaceOnUse">
      <path
         inkscape:connector-curvature="0"
         id="path1798"
         d="M 0,0 H 596 V 842 H 0 Z" />
    </clipPath>
    <clipPath
       id="clipPath1816"
       clipPathUnits="userSpaceOnUse">
      <path
         inkscape:connector-curvature="0"
         id="path1814"
         d="M 0,0 H 596 V 842 H 0 Z" />
    </clipPath>
    <clipPath
       id="clipPath1832"
       clipPathUnits="userSpaceOnUse">
      <path
         inkscape:connector-curvature="0"
         id="path1830"
         d="M 0,0 H 596 V 842 H 0 Z" />
    </clipPath>
    <clipPath
       id="clipPath1848"
       clipPathUnits="userSpaceOnUse">
      <path
         inkscape:connector-curvature="0"
         id="path1846"
         d="M 0,0 H 596 V 842 H 0 Z" />
    </clipPath>
    <clipPath
       id="clipPath1864"
       clipPathUnits="userSpaceOnUse">
      <path
         inkscape:connector-curvature="0"
         id="path1862"
         d="M 0,0 H 596 V 842 H 0 Z" />
    </clipPath>
    <clipPath
       id="clipPath1880"
       clipPathUnits="userSpaceOnUse">
      <path
         inkscape:connector-curvature="0"
         id="path1878"
         d="M 0,0 H 596 V 842 H 0 Z" />
    </clipPath>
    <clipPath
       id="clipPath1896"
       clipPathUnits="userSpaceOnUse">
      <path
         inkscape:connector-curvature="0"
         id="path1894"
         d="M 0,0 H 596 V 842 H 0 Z" />
    </clipPath>
    <clipPath
       id="clipPath2052"
       clipPathUnits="userSpaceOnUse">
      <path
         inkscape:connector-curvature="0"
         id="path2050"
         d="M 0,0 H 596 V 842 H 0 Z" />
    </clipPath>
    <clipPath
       id="clipPath2068"
       clipPathUnits="userSpaceOnUse">
      <path
         inkscape:connector-curvature="0"
         id="path2066"
         d="M 0,0 H 596 V 842 H 0 Z" />
    </clipPath>
    <clipPath
       clipPathUnits="userSpaceOnUse"
       id="clipPath1504">
      <path
         d="M 0,0 H 596 V 842 H 0 Z"
         id="path1502-8"
         inkscape:connector-curvature="0" />
    </clipPath>
    <clipPath
       clipPathUnits="userSpaceOnUse"
       id="clipPath1520">
      <path
         d="M 0,0 H 596 V 842 H 0 Z"
         id="path1518"
         inkscape:connector-curvature="0" />
    </clipPath>
    <clipPath
       clipPathUnits="userSpaceOnUse"
       id="clipPath1536">
      <path
         d="M 0,0 H 596 V 842 H 0 Z"
         id="path1534"
         inkscape:connector-curvature="0" />
    </clipPath>
    <clipPath
       clipPathUnits="userSpaceOnUse"
       id="clipPath1552">
      <path
         d="M 0,0 H 596 V 842 H 0 Z"
         id="path1550"
         inkscape:connector-curvature="0" />
    </clipPath>
    <clipPath
       clipPathUnits="userSpaceOnUse"
       id="clipPath1568">
      <path
         d="M 0,0 H 596 V 842 H 0 Z"
         id="path1566"
         inkscape:connector-curvature="0" />
    </clipPath>
    <clipPath
       clipPathUnits="userSpaceOnUse"
       id="clipPath1584">
      <path
         d="M 0,0 H 596 V 842 H 0 Z"
         id="path1582"
         inkscape:connector-curvature="0" />
    </clipPath>
    <clipPath
       clipPathUnits="userSpaceOnUse"
       id="clipPath1600">
      <path
         d="M 0,0 H 596 V 842 H 0 Z"
         id="path1598"
         inkscape:connector-curvature="0" />
    </clipPath>
    <clipPath
       clipPathUnits="userSpaceOnUse"
       id="clipPath1616">
      <path
         d="M 0,0 H 596 V 842 H 0 Z"
         id="path1614"
         inkscape:connector-curvature="0" />
    </clipPath>
    <clipPath
       clipPathUnits="userSpaceOnUse"
       id="clipPath1632">
      <path
         d="M 0,0 H 596 V 842 H 0 Z"
         id="path1630"
         inkscape:connector-curvature="0" />
    </clipPath>
    <clipPath
       clipPathUnits="userSpaceOnUse"
       id="clipPath1648">
      <path
         d="M 0,0 H 596 V 842 H 0 Z"
         id="path1646"
         inkscape:connector-curvature="0" />
    </clipPath>
    <clipPath
       clipPathUnits="userSpaceOnUse"
       id="clipPath1664">
      <path
         d="M 0,0 H 596 V 842 H 0 Z"
         id="path1662-3"
         inkscape:connector-curvature="0" />
    </clipPath>
    <clipPath
       clipPathUnits="userSpaceOnUse"
       id="clipPath1680">
      <path
         d="M 0,0 H 596 V 842 H 0 Z"
         id="path1678-3"
         inkscape:connector-curvature="0" />
    </clipPath>
    <clipPath
       clipPathUnits="userSpaceOnUse"
       id="clipPath1696">
      <path
         d="M 0,0 H 596 V 842 H 0 Z"
         id="path1694-7"
         inkscape:connector-curvature="0" />
    </clipPath>
    <clipPath
       clipPathUnits="userSpaceOnUse"
       id="clipPath1712-4">
      <path
         d="M 0,0 H 596 V 842 H 0 Z"
         id="path1710-3"
         inkscape:connector-curvature="0" />
    </clipPath>
    <clipPath
       clipPathUnits="userSpaceOnUse"
       id="clipPath1728">
      <path
         d="M 0,0 H 596 V 842 H 0 Z"
         id="path1726"
         inkscape:connector-curvature="0" />
    </clipPath>
    <clipPath
       clipPathUnits="userSpaceOnUse"
       id="clipPath1744">
      <path
         d="M 0,0 H 596 V 842 H 0 Z"
         id="path1742"
         inkscape:connector-curvature="0" />
    </clipPath>
    <clipPath
       clipPathUnits="userSpaceOnUse"
       id="clipPath1760">
      <path
         d="M 0,0 H 596 V 842 H 0 Z"
         id="path1758"
         inkscape:connector-curvature="0" />
    </clipPath>
    <clipPath
       clipPathUnits="userSpaceOnUse"
       id="clipPath1776">
      <path
         d="M 0,0 H 596 V 842 H 0 Z"
         id="path1774"
         inkscape:connector-curvature="0" />
    </clipPath>
    <clipPath
       clipPathUnits="userSpaceOnUse"
       id="clipPath1792">
      <path
         d="M 0,0 H 596 V 842 H 0 Z"
         id="path1790"
         inkscape:connector-curvature="0" />
    </clipPath>
    <clipPath
       clipPathUnits="userSpaceOnUse"
       id="clipPath1808">
      <path
         d="M 0,0 H 596 V 842 H 0 Z"
         id="path1806"
         inkscape:connector-curvature="0" />
    </clipPath>
    <clipPath
       id="clipPath1660-5"
       clipPathUnits="userSpaceOnUse">
      <path
         inkscape:connector-curvature="0"
         id="path1658-8"
         d="M 0,0 H 596 V 842 H 0 Z" />
    </clipPath>
    <clipPath
       id="clipPath1676-5"
       clipPathUnits="userSpaceOnUse">
      <path
         inkscape:connector-curvature="0"
         id="path1674-6"
         d="M 0,0 H 596 V 842 H 0 Z" />
    </clipPath>
    <clipPath
       id="clipPath1692-1"
       clipPathUnits="userSpaceOnUse">
      <path
         inkscape:connector-curvature="0"
         id="path1690-8"
         d="M 0,0 H 596 V 842 H 0 Z" />
    </clipPath>
    <clipPath
       id="clipPath1712-5"
       clipPathUnits="userSpaceOnUse">
      <path
         inkscape:connector-curvature="0"
         id="path1710-1"
         d="M 0,0 H 596 V 842 H 0 Z" />
    </clipPath>
    <clipPath
       id="clipPath1732-5"
       clipPathUnits="userSpaceOnUse">
      <path
         inkscape:connector-curvature="0"
         id="path1730-6"
         d="M 0,0 H 596 V 842 H 0 Z" />
    </clipPath>
    <clipPath
       id="clipPath1752-5"
       clipPathUnits="userSpaceOnUse">
      <path
         inkscape:connector-curvature="0"
         id="path1750-8"
         d="M 0,0 H 596 V 842 H 0 Z" />
    </clipPath>
    <clipPath
       id="clipPath1768-1"
       clipPathUnits="userSpaceOnUse">
      <path
         inkscape:connector-curvature="0"
         id="path1766-0"
         d="M 0,0 H 596 V 842 H 0 Z" />
    </clipPath>
    <clipPath
       id="clipPath1784-1"
       clipPathUnits="userSpaceOnUse">
      <path
         inkscape:connector-curvature="0"
         id="path1782-9"
         d="M 0,0 H 596 V 842 H 0 Z" />
    </clipPath>
    <clipPath
       id="clipPath1800-2"
       clipPathUnits="userSpaceOnUse">
      <path
         inkscape:connector-curvature="0"
         id="path1798-9"
         d="M 0,0 H 596 V 842 H 0 Z" />
    </clipPath>
    <clipPath
       id="clipPath1816-6"
       clipPathUnits="userSpaceOnUse">
      <path
         inkscape:connector-curvature="0"
         id="path1814-1"
         d="M 0,0 H 596 V 842 H 0 Z" />
    </clipPath>
    <clipPath
       id="clipPath1832-5"
       clipPathUnits="userSpaceOnUse">
      <path
         inkscape:connector-curvature="0"
         id="path1830-6"
         d="M 0,0 H 596 V 842 H 0 Z" />
    </clipPath>
    <clipPath
       id="clipPath1848-4"
       clipPathUnits="userSpaceOnUse">
      <path
         inkscape:connector-curvature="0"
         id="path1846-6"
         d="M 0,0 H 596 V 842 H 0 Z" />
    </clipPath>
    <clipPath
       id="clipPath1864-9"
       clipPathUnits="userSpaceOnUse">
      <path
         inkscape:connector-curvature="0"
         id="path1862-0"
         d="M 0,0 H 596 V 842 H 0 Z" />
    </clipPath>
    <clipPath
       id="clipPath1880-9"
       clipPathUnits="userSpaceOnUse">
      <path
         inkscape:connector-curvature="0"
         id="path1878-5"
         d="M 0,0 H 596 V 842 H 0 Z" />
    </clipPath>
    <clipPath
       id="clipPath1896-3"
       clipPathUnits="userSpaceOnUse">
      <path
         inkscape:connector-curvature="0"
         id="path1894-3"
         d="M 0,0 H 596 V 842 H 0 Z" />
    </clipPath>
    <clipPath
       id="clipPath2052-1"
       clipPathUnits="userSpaceOnUse">
      <path
         inkscape:connector-curvature="0"
         id="path2050-5"
         d="M 0,0 H 596 V 842 H 0 Z" />
    </clipPath>
    <clipPath
       id="clipPath2068-2"
       clipPathUnits="userSpaceOnUse">
      <path
         inkscape:connector-curvature="0"
         id="path2066-2"
         d="M 0,0 H 596 V 842 H 0 Z" />
    </clipPath>
    <clipPath
       clipPathUnits="userSpaceOnUse"
       id="clipPath1504-7">
      <path
         d="M 0,0 H 596 V 842 H 0 Z"
         id="path1502-8-1"
         inkscape:connector-curvature="0" />
    </clipPath>
    <clipPath
       clipPathUnits="userSpaceOnUse"
       id="clipPath1520-5">
      <path
         d="M 0,0 H 596 V 842 H 0 Z"
         id="path1518-9"
         inkscape:connector-curvature="0" />
    </clipPath>
    <clipPath
       clipPathUnits="userSpaceOnUse"
       id="clipPath1536-8">
      <path
         d="M 0,0 H 596 V 842 H 0 Z"
         id="path1534-7"
         inkscape:connector-curvature="0" />
    </clipPath>
    <clipPath
       clipPathUnits="userSpaceOnUse"
       id="clipPath1552-7">
      <path
         d="M 0,0 H 596 V 842 H 0 Z"
         id="path1550-8"
         inkscape:connector-curvature="0" />
    </clipPath>
    <clipPath
       clipPathUnits="userSpaceOnUse"
       id="clipPath1568-5">
      <path
         d="M 0,0 H 596 V 842 H 0 Z"
         id="path1566-7"
         inkscape:connector-curvature="0" />
    </clipPath>
    <clipPath
       clipPathUnits="userSpaceOnUse"
       id="clipPath1584-9">
      <path
         d="M 0,0 H 596 V 842 H 0 Z"
         id="path1582-6"
         inkscape:connector-curvature="0" />
    </clipPath>
    <clipPath
       clipPathUnits="userSpaceOnUse"
       id="clipPath1600-6">
      <path
         d="M 0,0 H 596 V 842 H 0 Z"
         id="path1598-0"
         inkscape:connector-curvature="0" />
    </clipPath>
    <clipPath
       clipPathUnits="userSpaceOnUse"
       id="clipPath1616-2">
      <path
         d="M 0,0 H 596 V 842 H 0 Z"
         id="path1614-2"
         inkscape:connector-curvature="0" />
    </clipPath>
    <clipPath
       clipPathUnits="userSpaceOnUse"
       id="clipPath1632-7">
      <path
         d="M 0,0 H 596 V 842 H 0 Z"
         id="path1630-6"
         inkscape:connector-curvature="0" />
    </clipPath>
    <clipPath
       clipPathUnits="userSpaceOnUse"
       id="clipPath1648-4">
      <path
         d="M 0,0 H 596 V 842 H 0 Z"
         id="path1646-8"
         inkscape:connector-curvature="0" />
    </clipPath>
    <clipPath
       clipPathUnits="userSpaceOnUse"
       id="clipPath1664-2">
      <path
         d="M 0,0 H 596 V 842 H 0 Z"
         id="path1662-3-8"
         inkscape:connector-curvature="0" />
    </clipPath>
    <clipPath
       clipPathUnits="userSpaceOnUse"
       id="clipPath1680-1">
      <path
         d="M 0,0 H 596 V 842 H 0 Z"
         id="path1678-3-9"
         inkscape:connector-curvature="0" />
    </clipPath>
    <clipPath
       clipPathUnits="userSpaceOnUse"
       id="clipPath1696-3">
      <path
         d="M 0,0 H 596 V 842 H 0 Z"
         id="path1694-7-7"
         inkscape:connector-curvature="0" />
    </clipPath>
    <clipPath
       clipPathUnits="userSpaceOnUse"
       id="clipPath1712-4-9">
      <path
         d="M 0,0 H 596 V 842 H 0 Z"
         id="path1710-3-0"
         inkscape:connector-curvature="0" />
    </clipPath>
    <clipPath
       clipPathUnits="userSpaceOnUse"
       id="clipPath1728-4">
      <path
         d="M 0,0 H 596 V 842 H 0 Z"
         id="path1726-9"
         inkscape:connector-curvature="0" />
    </clipPath>
    <clipPath
       clipPathUnits="userSpaceOnUse"
       id="clipPath1744-3">
      <path
         d="M 0,0 H 596 V 842 H 0 Z"
         id="path1742-8"
         inkscape:connector-curvature="0" />
    </clipPath>
    <clipPath
       clipPathUnits="userSpaceOnUse"
       id="clipPath1760-3">
      <path
         d="M 0,0 H 596 V 842 H 0 Z"
         id="path1758-1"
         inkscape:connector-curvature="0" />
    </clipPath>
    <clipPath
       clipPathUnits="userSpaceOnUse"
       id="clipPath1776-7">
      <path
         d="M 0,0 H 596 V 842 H 0 Z"
         id="path1774-7"
         inkscape:connector-curvature="0" />
    </clipPath>
    <clipPath
       clipPathUnits="userSpaceOnUse"
       id="clipPath1792-9">
      <path
         d="M 0,0 H 596 V 842 H 0 Z"
         id="path1790-5"
         inkscape:connector-curvature="0" />
    </clipPath>
    <clipPath
       clipPathUnits="userSpaceOnUse"
       id="clipPath1808-1">
      <path
         d="M 0,0 H 596 V 842 H 0 Z"
         id="path1806-8"
         inkscape:connector-curvature="0" />
    </clipPath>
    <linearGradient
       gradientTransform="scale(0.26458333)"
       gradientUnits="userSpaceOnUse"
       y2="-1387.1982"
       x2="-4242.354"
       y1="-1387.1982"
       x1="-4352.1968"
       id="linearGradient1498"
       xlink:href="#linearGradient1496"
       inkscape:collect="always" />
    <clipPath
       clipPathUnits="userSpaceOnUse"
       id="clipPath2839">
      <path
         d="M 0,0 H 596 V 842 H 0 Z"
         id="path2837"
         inkscape:connector-curvature="0" />
    </clipPath>
    <clipPath
       clipPathUnits="userSpaceOnUse"
       id="clipPath2855">
      <path
         d="M 0,0 H 596 V 842 H 0 Z"
         id="path2853"
         inkscape:connector-curvature="0" />
    </clipPath>
  </defs>
  <sodipodi:namedview
     inkscape:document-rotation="0"
     showguides="true"
     inkscape:window-maximized="1"
     inkscape:window-y="-8"
     inkscape:window-x="-8"
     inkscape:window-height="1017"
     inkscape:window-width="1920"
     showgrid="false"
     inkscape:current-layer="layer1"
     inkscape:document-units="mm"
     inkscape:cy="239.39733"
     inkscape:cx="2852.3123"
     inkscape:zoom="0.088388349"
     inkscape:pageshadow="2"
     inkscape:pageopacity="0.0"
     borderopacity="1.0"
     bordercolor="#666666"
     pagecolor="#ffffff"
     id="base" />
  <metadata
     id="metadata5">
    <rdf:RDF>
      <cc:Work
         rdf:about="">
        <dc:format>image/svg+xml</dc:format>
        <dc:type
           rdf:resource="http://purl.org/dc/dcmitype/StillImage" />
        <dc:title></dc:title>
      </cc:Work>
    </rdf:RDF>
  </metadata>
  <g
     id="layer1"
     inkscape:groupmode="layer"
     inkscape:label="Layer 1">
    <circle
       style="opacity:0.99;fill:#ff791a;fill-opacity:1;stroke:none;stroke-width:0.3;stroke-linecap:round;stroke-linejoin:round;stroke-miterlimit:4.98667;stroke-dasharray:none;stroke-dashoffset:0;stroke-opacity:1;paint-order:fill markers stroke"
       id="path1279-6-7-3-8"
       cx="104.66697"
       cy="104.65546"
       r="101.10863" />
    <path
       id="path1279-6-7-3"
       style="opacity:0.99;fill:#aa00d8;fill-opacity:1;stroke:none;stroke-width:0.3;stroke-linecap:round;stroke-linejoin:round;stroke-miterlimit:4.98667;stroke-dasharray:none;stroke-dashoffset:0;stroke-opacity:1;paint-order:fill markers stroke"
       d="m 104.14841,205.76267 -0.0811,-7.85792 -62.897968,-40.05491 -11.52436,6.73085 -1.50069,6.15983 a 101.10863,101.10863 0 0 0 76.004148,35.02215 z" />
    <path
       id="path2411"
       style="opacity:0.99;fill:#8200a5;fill-opacity:1;stroke:none;stroke-width:0.3;stroke-linecap:round;stroke-linejoin:round;stroke-miterlimit:4.98667;stroke-dasharray:none;stroke-dashoffset:0;stroke-opacity:1;paint-order:fill markers stroke"
       d="m 179.63735,172.49649 -1.1757,-6.58307 -91.568518,14.21464 c 0,0 1.23562,5.20798 1.90738,8.05429 l 15.266768,9.7224 0.0811,7.85792 a 101.10863,101.10863 0 0 0 0.51883,0.002 101.10863,101.10863 0 0 0 74.97014,-33.26773 z" />
    <path
       id="path2416"
       style="opacity:0.99;fill:#000000;fill-opacity:0.108871;stroke:none;stroke-width:0.3;stroke-linecap:round;stroke-linejoin:round;stroke-miterlimit:4.98667;stroke-dasharray:none;stroke-dashoffset:0;stroke-opacity:1;paint-order:fill markers stroke"
       d="m 204.84455,118.34682 -74.4342,-74.434213 -60.043338,27.137878 11.0262,41.149425 -6.53552,67.10339 13.94282,8.87905 c -0.67176,-2.84631 -1.90738,-8.05429 -1.90738,-8.05429 l 91.568518,-14.21464 1.1757,6.58307 a 101.10863,101.10863 0 0 0 25.2072,-54.14967 z" />
    <text
       id="text1505"
       y="253.90651"
       x="27.037086"
       style="font-style:normal;font-weight:normal;font-size:14.1111px;line-height:1.25;font-family:sans-serif;text-align:start;letter-spacing:0px;word-spacing:0px;text-anchor:start;fill:#000000;fill-opacity:1;stroke:none;stroke-width:0.264583"
       xml:space="preserve"><tspan
         style="stroke:none;stroke-width:0.264583"
         y="253.90651"
         x="27.037086"
         id="tspan1503"
         sodipodi:role="line">MOTHER/CHILD CARE</tspan></text>
    <g
       transform="translate(-1170.7618,-1821.1715)"
       id="g922" />
    <g
       transform="matrix(0.35277777,0,0,0.35277777,-1143.1293,-1214.9265)"
       id="g2835" />
    <g
       transform="matrix(0.35277777,0,0,0.35277777,-1143.1293,-1214.9265)"
       id="g2851" />
    <ellipse
       ry="35.309361"
       rx="35.201385"
       cy="65.680244"
       cx="104.35343"
       id="path1408-1-1-3-1-9"
       style="opacity:1;fill:#f9d8b0;fill-opacity:1;stroke:none;stroke-width:1;stroke-linecap:round;stroke-linejoin:round;stroke-miterlimit:4;stroke-dasharray:none;stroke-dashoffset:0;stroke-opacity:0.277778;paint-order:fill markers stroke" />
    <path
       id="path2238"
       style="opacity:1;fill:#aa00d8;fill-opacity:1;stroke:none;stroke-width:1;stroke-linecap:round;stroke-linejoin:round;stroke-miterlimit:4;stroke-dasharray:none;stroke-dashoffset:0;stroke-opacity:0.277778;paint-order:fill markers stroke"
       d="m 29.644952,164.58088 0.10386,0.11524 c 0.0974,0.10752 0.19511,0.21484 0.29301,0.32194 0.0978,0.10701 0.1958,0.21381 0.29404,0.3204 0.0983,0.10649 0.19683,0.21277 0.29559,0.31884 0.0987,0.10615 0.19752,0.21209 0.29662,0.31781 0.0992,0.10581 0.19856,0.2114 0.29817,0.31678 0.0997,0.10529 0.19959,0.21036 0.29973,0.31522 0.1002,0.10495 0.20062,0.20968 0.30127,0.3142 0.10054,0.10443 0.20131,0.20864 0.30231,0.31264 0.10089,0.10391 0.202,0.20761 0.30334,0.31109 0.10141,0.10357 0.20304,0.20692 0.30489,0.31006 0.10193,0.10323 0.20407,0.20624 0.30644,0.30902 0.10227,0.10272 0.20476,0.20521 0.30748,0.30748 0.10278,0.1022 0.20579,0.20417 0.30902,0.30592 0.10331,0.10186 0.20683,0.20349 0.31058,0.30489 0.10365,0.10134 0.20752,0.20246 0.3116,0.30335 0.104,0.10082 0.20822,0.20141 0.31265,0.30179 0.10451,0.10047 0.20924,0.20073 0.31419,0.30075 0.10503,0.10014 0.21028,0.20004 0.31574,0.29973 0.10538,0.0996 0.21097,0.19901 0.31678,0.29817 0.10573,0.0991 0.21166,0.19797 0.31781,0.29662 0.10624,0.0986 0.2127,0.19694 0.31936,0.29507 0.10659,0.0983 0.21339,0.19626 0.32039,0.29404 0.10711,0.0977 0.21443,0.19523 0.32195,0.29249 0.10762,0.0972 0.21545,0.19419 0.32349,0.29094 0.1078,0.0969 0.2158,0.1935 0.32401,0.2899 0.10832,0.0964 0.21684,0.19247 0.32557,0.28836 0.10883,0.0958 0.21786,0.19144 0.32711,0.2868 0.10917,0.0955 0.21856,0.19075 0.32814,0.28577 0.10952,0.095 0.21925,0.18972 0.32918,0.28422 0.10987,0.0945 0.21994,0.18869 0.33021,0.28268 0.11039,0.0939 0.22098,0.18765 0.33177,0.28111 0.1109,0.0936 0.222,0.18697 0.33331,0.28009 0.11108,0.0929 0.22235,0.18558 0.33383,0.27802 0.1116,0.0926 0.22339,0.1849 0.33538,0.27699 0.11194,0.0922 0.22408,0.18421 0.33641,0.27595 0.11246,0.0915 0.22511,0.18283 0.33797,0.27388 0.11263,0.0912 0.22545,0.18215 0.33848,0.27285 0.11315,0.0905 0.22649,0.18077 0.34003,0.27079 0.11367,0.0902 0.22753,0.18008 0.34158,0.26975 0.11384,0.0897 0.22787,0.17905 0.3421,0.2682 0.11435,0.0893 0.2289,0.17836 0.34365,0.26717 0.1147,0.0886 0.2296,0.17698 0.34468,0.2651 0.11505,0.0881 0.23029,0.17594 0.34571,0.26355 0.1154,0.0877 0.23098,0.17526 0.34675,0.26251 0.11591,0.0872 0.23201,0.17423 0.3483,0.26097 0.11626,0.0867 0.2327,0.17319 0.34933,0.25942 0.11644,0.086 0.23305,0.17181 0.34985,0.25734 0.11695,0.0857 0.23409,0.17113 0.3514,0.25632 0.1173,0.0852 0.23478,0.1701 0.35244,0.25476 0.11781,0.0848 0.2358,0.16941 0.35398,0.25373 0.11799,0.0841 0.23615,0.16803 0.3545,0.25167 0.11833,0.0836 0.23684,0.167 0.35553,0.25011 0.11885,0.0831 0.23788,0.16597 0.35709,0.24857 0.11902,0.0826 0.23822,0.16493 0.3576,0.24701 0.11954,0.0822 0.23926,0.16424 0.35915,0.24598 0.11989,0.0816 0.23995,0.16287 0.36018,0.24391 0.12006,0.0811 0.2403,0.16184 0.36071,0.24237 0.12057,0.0805 0.24132,0.1608 0.36225,0.24081 0.12092,0.0802 0.24202,0.16011 0.36328,0.23978 0.1211,0.0795 0.24237,0.15873 0.36381,0.23771 0.12161,0.079 0.24339,0.1577 0.36535,0.23616 0.12196,0.0785 0.24409,0.15667 0.36638,0.23461 0.12214,0.078 0.24444,0.15564 0.36691,0.23306 0.0618,0.039 0.12363,0.0779 0.18552,0.11679 5.72781,3.3445 0,0 5.72781,3.3445 l 0.093,0.0506 c 0.12749,0.0688 0.25513,0.13739 0.38292,0.20567 0.12801,0.0683 0.25617,0.13636 0.38447,0.20413 0.12819,0.0676 0.25652,0.13498 0.38499,0.20205 0.12836,0.0673 0.25686,0.13429 0.38551,0.20102 0.12888,0.0666 0.25789,0.13292 0.38706,0.19896 0.12904,0.0661 0.25824,0.13188 0.38757,0.1974 0.12922,0.0656 0.25859,0.13085 0.38809,0.19585 0.12957,0.0649 0.25927,0.12947 0.38912,0.19379 0.12992,0.0644 0.25997,0.12844 0.39016,0.19224 0.13026,0.0638 0.26066,0.1274 0.39119,0.19068 0.13043,0.0633 0.261,0.12637 0.39171,0.18914 0.1306,0.0626 0.26135,0.12499 0.39222,0.18707 0.13113,0.0623 0.26238,0.1243 0.39378,0.18603 0.13112,0.0616 0.26238,0.12293 0.39377,0.18397 0.13147,0.0609 0.26308,0.12155 0.39481,0.1819 0.13182,0.0606 0.26376,0.12086 0.39584,0.18087 0.13199,0.0599 0.26411,0.11948 0.39636,0.1788 0.13234,0.0592 0.2648,0.11811 0.39739,0.17673 0.13251,0.0589 0.26515,0.11742 0.39791,0.1757 0.13285,0.0582 0.26584,0.11604 0.39894,0.17363 0.13303,0.0577 0.26618,0.11501 0.39946,0.17209 0.1332,0.057 0.26653,0.11363 0.39997,0.17001 0.13355,0.0564 0.26722,0.1126 0.40101,0.16847 0.1339,0.0559 0.26791,0.11156 0.40205,0.16691 0.13389,0.0552 0.26791,0.11019 0.40204,0.16485 0.13424,0.0547 0.2686,0.10916 0.40308,0.1633 0.13458,0.0542 0.26929,0.10812 0.4041,0.16175 0.13459,0.0537 0.2693,0.10708 0.40412,0.16019 0.13493,0.053 0.26998,0.10571 0.40514,0.15813 0.13528,0.0523 0.27067,0.10434 0.40617,0.15607 0.13529,0.0518 0.27068,0.10329 0.40618,0.15451 0.13563,0.0513 0.27137,0.10226 0.40721,0.15296 0.1358,0.0508 0.27171,0.10123 0.40773,0.15141 0.13615,0.0501 0.2724,0.0999 0.40876,0.14935 0.13632,0.0494 0.27275,0.0985 0.40928,0.14728 0.13649,0.049 0.27309,0.0978 0.40979,0.14624 0.13667,0.0482 0.27344,0.0961 0.41031,0.14366 0.13684,0.0478 0.27378,0.0954 0.41083,0.14263 0.13701,0.0471 0.27413,0.094 0.41134,0.14056 0.13736,0.0465 0.27482,0.0926 0.41238,0.13849 0.13753,0.0461 0.27517,0.0919 0.41289,0.13746 0.13771,0.0452 0.27552,0.0902 0.41342,0.13487 0.13788,0.0447 0.27585,0.0892 0.41393,0.13333 0.13805,0.0442 0.2762,0.0882 0.41444,0.13177 0.13823,0.0437 0.27655,0.0871 0.41496,0.13023 0.1384,0.0428 0.2769,0.0854 0.41548,0.12764 0.13875,0.0425 0.27759,0.0847 0.41651,0.12661 0.13875,0.0418 0.27759,0.0833 0.41651,0.12454 0.1391,0.0411 0.27828,0.082 0.41755,0.12247 0.13909,0.0406 0.27828,0.0809 0.41754,0.12092 0.13945,0.0401 0.27897,0.0799 0.41859,0.11937 0.13944,0.0394 0.27897,0.0785 0.41858,0.11731 0.13961,0.0387 0.27931,0.0771 0.41909,0.11524 0.13996,0.0384 0.28,0.0764 0.42013,0.1142 0.13996,0.0375 0.28,0.0747 0.42013,0.11163 0.14013,0.037 0.28035,0.0737 0.42065,0.11007 0.1403,0.0365 0.28069,0.0727 0.42116,0.10852 0.14048,0.0358 0.28104,0.0713 0.42168,0.10645 0.14065,0.0351 0.28139,0.0699 0.4222,0.10439 0.14082,0.0346 0.28173,0.0689 0.42271,0.10283 0.141,0.0341 0.28208,0.0678 0.42323,0.10129 0.141,0.0334 0.28208,0.0665 0.42323,0.0992 0.14118,0.0327 0.28242,0.0651 0.42374,0.0971 0.14153,0.0322 0.28312,0.064 0.42478,0.0956 0.14136,0.0317 0.28278,0.063 0.42427,0.0941 0.1417,0.031 0.28346,0.0616 0.42529,0.092 0.14171,0.0303 0.28347,0.0602 0.4253,0.0899 0.14205,0.0298 0.28416,0.0592 0.42633,0.0884 0.14188,0.0291 0.28382,0.0578 0.42581,0.0863 0.14223,0.0286 0.28451,0.0568 0.42685,0.0847 0.14223,0.0279 0.28451,0.0554 0.42685,0.0827 0.1424,0.0272 0.28485,0.054 0.42736,0.0806 0.14258,0.0267 0.2852,0.053 0.42789,0.0791 0.14257,0.0261 0.2852,0.052 0.42788,0.0775 0.14274,0.0255 0.28554,0.0506 0.42839,0.0754 0.14275,0.0248 0.28555,0.0492 0.4284,0.0734 0.14309,0.0243 0.28624,0.0482 0.42943,0.0718 0.14292,0.0236 0.2859,0.0468 0.42892,0.0698 0.14326,0.0229 0.28658,0.0454 0.42995,0.0677 0.14309,0.0224 0.28624,0.0444 0.42943,0.0662 0.14344,0.0218 0.28693,0.0434 0.43046,0.0646 0.14345,0.0211 0.28693,0.042 0.43047,0.0625 0.14344,0.0205 0.28693,0.0406 0.43046,0.0605 0.14362,0.0199 0.28728,0.0396 0.43098,0.0589 0.14362,0.0193 0.28728,0.0382 0.43098,0.0568 0.1438,0.0186 0.28763,0.0368 0.4315,0.0548 0.14397,0.018 0.28797,0.0358 0.43202,0.0532 0.14379,0.0175 0.28763,0.0348 0.4315,0.0517 0.14414,0.0167 0.28831,0.033 0.43253,0.0491 0.14397,0.0162 0.28797,0.032 0.43201,0.0475 0.14414,0.0156 0.28832,0.031 0.43253,0.046 0.14415,0.0149 0.28833,0.0296 0.43254,0.0439 0.14432,0.0143 0.28866,0.0282 0.43304,0.0419 0.14432,0.0138 0.28867,0.0272 0.43305,0.0403 0.14449,0.0131 0.28902,0.0258 0.43357,0.0382 0.14432,0.0125 0.28867,0.0248 0.43305,0.0367 0.14449,0.0118 0.28901,0.0234 0.43356,0.0346 0.1445,0.0112 0.28902,0.022 0.43357,0.0326 0.14467,0.0105 0.28936,0.0206 0.43408,0.0305 0.14467,0.0101 0.28936,0.0199 0.43408,0.0294 0.14467,0.009 0.28937,0.0182 0.43408,0.0269 0.14468,0.009 0.28937,0.0172 0.43408,0.0253 0.14468,0.008 0.28937,0.0158 0.43409,0.0233 0.14485,0.008 0.28971,0.0148 0.43459,0.0217 0.144858,0.007 0.289718,0.0134 0.434598,0.0196 0.14486,0.006 0.28973,0.012 0.4346,0.0176 0.14486,0.006 0.28972,0.011 0.4346,0.016 0.14486,0.005 0.28973,0.01 0.4346,0.0139 0.14486,0.004 0.28972,0.009 0.4346,0.0124 0.14503,0.004 0.29007,0.007 0.43511,0.01 0.14486,0.003 0.28973,0.006 0.4346,0.009 0.14504,0.002 0.29008,0.004 0.43512,0.006 0.14486,0.002 0.28973,0.003 0.4346,0.005 0.0901,8e-4 0.18018,0.002 0.27027,0.002 v -89.05455 l -34.656288,0.002 c -2.87095,0 -5.50538,1.15687 -7.63881,3.08974 -1.22956,-0.93078 -2.65646,-1.64776 -4.24367,-2.07016 l -0.62631,-0.16743 c -0.81699,-0.21885 -1.63601,-0.3483 -2.4474,-0.39584 -5.67894,-0.33766 -10.97267,3.33373 -12.49691,9.05371 z"
       sodipodi:nodetypes="ccsccscsssssscsssssssccccccccsscsssccccscscsccsscscsscccccccccsccccccccccccsscccsccccccccsssssccccscccccccccccccccsccssccccccccccccccccsccccccccscccccccccccccccccccccccccccccccccccsccccccccc" />
    <path
       id="path2230"
       style="opacity:1;fill:#8200a5;fill-opacity:1;stroke:none;stroke-width:1;stroke-linecap:round;stroke-linejoin:round;stroke-miterlimit:4;stroke-dasharray:none;stroke-dashoffset:0;stroke-opacity:0.277778;paint-order:fill markers stroke"
       d="m 104.06779,197.90443 0.16433,0.001 c 0.14504,5.3e-4 0.29008,0.001 0.43512,0.001 h 0.0718 c 0.14504,-2.1e-4 0.29008,-8e-4 0.43512,-0.002 0.14486,-8e-4 0.28973,-0.002 0.43459,-0.003 0.14505,-0.001 0.29009,-0.003 0.43512,-0.005 0.14504,-0.002 0.29008,-0.005 0.43511,-0.007 0.14488,-0.003 0.28974,-0.006 0.4346,-0.009 0.14488,-0.003 0.28974,-0.007 0.4346,-0.0104 0.14505,-0.004 0.29009,-0.008 0.43512,-0.0124 0.14488,-0.005 0.28974,-0.009 0.4346,-0.0145 0.14488,-0.005 0.28974,-0.0104 0.43459,-0.016 0.14489,-0.006 0.28975,-0.0118 0.4346,-0.0181 0.14488,-0.006 0.28975,-0.0131 0.4346,-0.0202 0.14471,-0.007 0.28941,-0.0142 0.43409,-0.0217 0.14488,-0.008 0.28974,-0.0155 0.43459,-0.0238 0.14471,-0.008 0.28941,-0.0166 0.43409,-0.0253 0.14471,-0.009 0.2894,-0.0179 0.43408,-0.0274 0.14454,-0.01 0.28906,-0.0193 0.43356,-0.0295 0.14472,-0.01 0.28941,-0.0204 0.43409,-0.031 0.14454,-0.0107 0.28906,-0.0217 0.43356,-0.0331 0.14455,-0.0114 0.28907,-0.0231 0.43356,-0.0351 0.14455,-0.0119 0.28908,-0.0242 0.43357,-0.0367 0.14438,-0.0126 0.28873,-0.0255 0.43305,-0.0388 0.14438,-0.0131 0.28873,-0.0266 0.43305,-0.0403 0.14438,-0.0138 0.28873,-0.0279 0.43305,-0.0424 0.1442,-0.0143 0.28838,-0.029 0.43253,-0.0439 0.14421,-0.0152 0.28839,-0.0307 0.43253,-0.0465 0.14404,-0.0155 0.28805,-0.0314 0.43202,-0.0475 0.14404,-0.0164 0.28804,-0.0331 0.43201,-0.0501 0.14404,-0.0169 0.28805,-0.0341 0.43201,-0.0517 0.14387,-0.0174 0.28771,-0.0352 0.4315,-0.0532 0.14388,-0.0181 0.28771,-0.0366 0.4315,-0.0553 0.1437,-0.0188 0.28737,-0.0379 0.43098,-0.0574 0.14371,-0.0193 0.28737,-0.039 0.43098,-0.0589 0.14371,-0.02 0.28737,-0.0403 0.43099,-0.061 0.14336,-0.0207 0.28667,-0.0417 0.42994,-0.063 0.14354,-0.0212 0.28703,-0.0428 0.43047,-0.0646 0.14336,-0.0217 0.28668,-0.0438 0.42995,-0.0661 0.14319,-0.0224 0.28633,-0.0452 0.42943,-0.0682 0.14302,-0.0231 0.28599,-0.0465 0.42891,-0.0703 0.14302,-0.0236 0.286,-0.0476 0.42892,-0.0718 0.14302,-0.0243 0.28599,-0.049 0.42891,-0.0739 0.14285,-0.025 0.28565,-0.0503 0.4284,-0.076 0.14268,-0.0255 0.28531,-0.0514 0.42788,-0.0775 0.14251,-0.0262 0.28497,-0.0528 0.42736,-0.0796 0.14251,-0.0267 0.28497,-0.0538 0.42737,-0.0811 0.14234,-0.0273 0.28462,-0.0548 0.42685,-0.0827 0.14234,-0.0281 0.28462,-0.0565 0.42684,-0.0853 0.142,-0.0285 0.28394,-0.0572 0.42581,-0.0863 0.14201,-0.0293 0.28394,-0.0589 0.42582,-0.0889 0.142,-0.0298 0.28394,-0.06 0.42581,-0.0904 0.14166,-0.0304 0.28325,-0.061 0.42478,-0.092 0.14166,-0.031 0.28326,-0.0624 0.42478,-0.0941 0.14149,-0.0317 0.28291,-0.0638 0.42427,-0.0961 0.14132,-0.0323 0.28256,-0.0648 0.42374,-0.0977 0.14113,-0.0328 0.28223,-0.0659 0.42323,-0.0992 0.1411,-0.0335 0.2822,-0.0672 0.4232,-0.10129 0.1408,-0.0342 0.2816,-0.0686 0.4222,-0.10335 0.1408,-0.0347 0.2816,-0.0696 0.4222,-0.10491 0.1407,-0.0353 0.2812,-0.071 0.4217,-0.10696 0.1405,-0.0359 0.2809,-0.072 0.4212,-0.10853 0.1403,-0.0366 0.2805,-0.0734 0.4206,-0.11058 0.1401,-0.0371 0.2802,-0.0745 0.4201,-0.11214 0.14,-0.0376 0.2799,-0.0755 0.4197,-0.11369 0.1399,-0.0383 0.2798,-0.0769 0.4196,-0.11575 0.1396,-0.039 0.2791,-0.0782 0.4185,-0.11783 0.1395,-0.0395 0.2788,-0.0793 0.4181,-0.11937 0.1393,-0.0402 0.2785,-0.0807 0.4176,-0.12144 0.1392,-0.0407 0.2784,-0.0817 0.4175,-0.12299 0.1389,-0.0412 0.2778,-0.0827 0.4165,-0.12454 0.1388,-0.0419 0.2774,-0.0841 0.416,-0.12661 0.1386,-0.0426 0.2771,-0.0855 0.4155,-0.12867 0.1384,-0.0431 0.2767,-0.0865 0.4149,-0.13023 0.1383,-0.0436 0.2764,-0.0875 0.4145,-0.13177 0.1381,-0.0443 0.276,-0.0889 0.4139,-0.13384 0.1379,-0.0448 0.2757,-0.09 0.4134,-0.13539 0.1378,-0.0455 0.2754,-0.0914 0.4129,-0.13746 0.1374,-0.0461 0.2747,-0.0924 0.4119,-0.13901 0.1372,-0.0467 0.2743,-0.0938 0.4113,-0.14108 0.1371,-0.0473 0.274,-0.0948 0.4109,-0.14263 0.1368,-0.0478 0.2736,-0.0958 0.4103,-0.14417 0.1367,-0.0485 0.2733,-0.0972 0.4098,-0.14625 0.1363,-0.049 0.2726,-0.0982 0.4087,-0.14779 0.1364,-0.0497 0.2726,-0.0996 0.4088,-0.14987 0.136,-0.0502 0.2719,-0.10064 0.4077,-0.15141 0.1357,-0.0507 0.2712,-0.10168 0.4067,-0.15296 0.1357,-0.0514 0.2712,-0.10306 0.4067,-0.15503 0.1353,-0.0519 0.2705,-0.10409 0.4057,-0.15658 0.1351,-0.0526 0.2702,-0.10547 0.4051,-0.15864 0.1348,-0.0529 0.2695,-0.10617 0.4041,-0.15969 0.1347,-0.0538 0.2692,-0.10788 0.4036,-0.16226 0.1345,-0.0541 0.2688,-0.10858 0.4031,-0.1633 0.1343,-0.0548 0.2685,-0.10995 0.4025,-0.16536 0.134,-0.0555 0.2678,-0.11134 0.4016,-0.16743 0.1336,-0.0559 0.2671,-0.11203 0.4005,-0.16847 0.1336,-0.0566 0.2671,-0.1134 0.4004,-0.17053 0.1332,-0.0573 0.2661,-0.11478 0.399,-0.1726 0.1331,-0.0576 0.2661,-0.11547 0.3989,-0.17363 0.1328,-0.0583 0.2654,-0.11685 0.3979,-0.1757 0.1325,-0.059 0.2648,-0.11823 0.3969,-0.17777 0.1323,-0.0593 0.2644,-0.11892 0.3964,-0.1788 0.1321,-0.06 0.264,-0.12029 0.3958,-0.18087 0.1318,-0.0605 0.2634,-0.12133 0.3948,-0.18241 0.1314,-0.0612 0.2627,-0.12271 0.3938,-0.18449 0.1312,-0.0616 0.2623,-0.1234 0.3933,-0.18552 0.1308,-0.0622 0.2616,-0.12477 0.3922,-0.18758 0.1307,-0.0629 0.2613,-0.12616 0.3917,-0.18966 0.1304,-0.0633 0.2606,-0.12684 0.3907,-0.19068 0.1302,-0.064 0.2602,-0.12822 0.3901,-0.19276 0.1299,-0.0645 0.2596,-0.12925 0.3891,-0.1943 0.1295,-0.065 0.2589,-0.13029 0.3881,-0.19585 0.1294,-0.0657 0.2586,-0.13167 0.3876,-0.19792 0.129,-0.066 0.2578,-0.13236 0.3865,-0.19896 0.068,-0.0354 0.1365,-0.0709 0.2047,-0.10645 6.2296,-3.53312 -0.5912,0.30541 5.8301,-3.28921 l 0.028,-0.017 c 0.1239,-0.0754 0.2475,-0.15098 0.371,-0.22687 0.1235,-0.0759 0.2469,-0.152 0.3701,-0.22841 0.1231,-0.0766 0.2461,-0.15338 0.3689,-0.23047 0.1228,-0.0769 0.2455,-0.15408 0.368,-0.23151 0.1224,-0.0776 0.2447,-0.15546 0.3669,-0.23358 0.1223,-0.0781 0.2444,-0.15649 0.3663,-0.23513 0.1218,-0.0785 0.2434,-0.15718 0.3649,-0.23616 0.1214,-0.0791 0.2427,-0.15855 0.3638,-0.23823 0.1211,-0.0797 0.242,-0.15959 0.3628,-0.23977 0.1209,-0.08 0.2416,-0.16029 0.3622,-0.24082 0.1204,-0.0807 0.2406,-0.16166 0.3607,-0.24288 0.1201,-0.0812 0.24,-0.16269 0.3597,-0.24443 0.1199,-0.0817 0.2396,-0.16372 0.3591,-0.24598 0.1194,-0.0822 0.2386,-0.16476 0.3576,-0.24753 0.1191,-0.0826 0.2379,-0.16545 0.3566,-0.24856 0.1187,-0.0833 0.2372,-0.16683 0.3555,-0.25063 0.1184,-0.0838 0.2365,-0.16787 0.3545,-0.25218 0.118,-0.0841 0.2359,-0.16856 0.3535,-0.25322 0.1177,-0.0848 0.2351,-0.16993 0.3524,-0.25528 0.1172,-0.0852 0.2341,-0.17062 0.3509,-0.25631 0.117,-0.0859 0.2338,-0.17201 0.3504,-0.25838 0.1164,-0.0862 0.2327,-0.1727 0.3488,-0.25942 0.1161,-0.0867 0.232,-0.17373 0.3478,-0.26097 0.1157,-0.0873 0.2313,-0.17476 0.3467,-0.26251 0.1154,-0.0878 0.2307,-0.1758 0.3457,-0.26407 0.1151,-0.0883 0.23,-0.17683 0.3447,-0.26562 0.1146,-0.0888 0.229,-0.17786 0.3432,-0.26716 0.1142,-0.0892 0.2282,-0.17856 0.342,-0.2682 0.1139,-0.0899 0.2276,-0.17994 0.3411,-0.27027 0.1136,-0.0902 0.2269,-0.18062 0.34,-0.2713 0.1131,-0.0907 0.2259,-0.18166 0.3385,-0.27285 0.1127,-0.0912 0.2252,-0.1827 0.3375,-0.27441 0.1123,-0.0916 0.2244,-0.18338 0.3364,-0.27543 0.1118,-0.0923 0.2234,-0.18476 0.3349,-0.27751 0.1116,-0.0926 0.223,-0.18544 0.3343,-0.27853 0.1111,-0.0931 0.2221,-0.18649 0.3328,-0.28009 0.1106,-0.0936 0.221,-0.18752 0.3312,-0.28163 0.1103,-0.094 0.2204,-0.18822 0.3303,-0.28267 0.1099,-0.0947 0.2196,-0.18959 0.3291,-0.28474 0.1096,-0.095 0.219,-0.19028 0.3282,-0.28577 0.109,-0.0954 0.2179,-0.19097 0.3266,-0.28681 0.1085,-0.0961 0.2169,-0.19234 0.325,-0.28887 0.1084,-0.0964 0.2166,-0.19303 0.3245,-0.2899 0.1077,-0.0969 0.2152,-0.19407 0.3225,-0.29146 0.1075,-0.0973 0.2148,-0.19476 0.3219,-0.29248 0.1071,-0.098 0.2139,-0.19615 0.3204,-0.29456 0.1065,-0.0981 0.2128,-0.19649 0.3189,-0.29507 0.1061,-0.0988 0.2121,-0.19787 0.3178,-0.29714 0.1058,-0.0992 0.2114,-0.19856 0.3168,-0.29818 0.1053,-0.0997 0.2103,-0.19958 0.3152,-0.29972 0.1049,-0.10002 0.2097,-0.20028 0.3142,-0.30076 0.1044,-0.10054 0.2086,-0.20131 0.3126,-0.3023 0.1039,-0.10107 0.2076,-0.20235 0.3111,-0.30386 0.1036,-0.10141 0.2069,-0.20304 0.3101,-0.30489 0.1032,-0.10193 0.2062,-0.20407 0.309,-0.30644 0.1027,-0.10227 0.2052,-0.20477 0.3075,-0.30748 0.1022,-0.10279 0.2042,-0.2058 0.3059,-0.30902 0.1019,-0.10331 0.2035,-0.20684 0.3049,-0.31058 0.1013,-0.10365 0.2024,-0.20752 0.3033,-0.31161 0.1009,-0.10399 0.2015,-0.20821 0.3018,-0.31264 0.1005,-0.10451 0.2008,-0.20924 0.3008,-0.31419 0.1001,-0.10503 0.2,-0.21028 0.2997,-0.31574 0.099,-0.10538 0.1987,-0.21097 0.2977,-0.31678 l 0.01,-0.008 -13.1512,-47.46377 c -1.5807,-5.70484 -6.9096,-9.3246 -12.5847,-8.93124 -0.8113,0.056 -1.6284,0.19312 -2.4433,0.42013 l -0.6248,0.17415 c -1.3305,0.36734 -2.5411,0.94905 -3.6199,1.68207 -2.1054,-1.84558 -4.6813,-2.94349 -7.4807,-2.94349 l -34.48986,-5.3e-4 z"
       sodipodi:nodetypes="ccscccccccccccccccccccccccccccccccccccccccccccccccccsccccscccccccsccccscccccccsccccsssssscccccccsccccccsccccccssccccccsccccccsccsccccsccssssssscccccsccccccccscccccccccccccsscssssscsccccccccc" />
    <path
       inkscape:connector-curvature="0"
       id="path2579"
       d="m 150.09235,100.91993 a 23.00749,36.41158 59.582345 0 0 -3.1666,0.16691 23.00749,36.41158 59.582345 0 0 -3.2584,0.435 23.00749,36.41158 59.582345 0 0 -3.3177,0.70213 23.00749,36.41158 59.582345 0 0 -3.3467,0.9572 23.00749,36.41158 59.582345 0 0 -3.3389,1.20612 23.00749,36.41158 59.582345 0 0 -3.3005,1.44212 23.00749,36.41158 59.582345 0 0 -3.22765,1.66257 23.00749,36.41158 59.582345 0 0 -2.22484,1.30229 23.00749,36.41158 59.582345 0 0 -3.03017,2.00218 23.00749,36.41158 59.582345 0 0 -2.87292,2.17471 23.00749,36.41158 59.582345 0 0 -2.68676,2.3247 23.00749,36.41158 59.582345 0 0 -2.47381,2.45085 23.00749,36.41158 59.582345 0 0 -2.23801,2.55443 23.00749,36.41158 59.582345 0 0 -1.97723,2.63131 23.00749,36.41158 59.582345 0 0 -1.69754,2.68096 23.00749,36.41158 59.582345 0 0 -1.39983,2.70429 23.00749,36.41158 59.582345 0 0 -1.09108,2.70214 23.00749,36.41158 59.582345 0 0 -0.76931,2.67169 23.00749,36.41158 59.582345 0 0 -0.43906,2.61564 23.00749,36.41158 59.582345 0 0 -0.10443,2.53135 23.00749,36.41158 59.582345 0 0 0.23005,2.42414 23.00749,36.41158 59.582345 0 0 0.55999,2.2921 23.00749,36.41158 59.582345 0 0 0.88585,2.13647 23.00749,36.41158 59.582345 0 0 0.82274,1.40537 23.00749,36.41158 59.582345 0 0 1.42299,1.82222 23.00749,36.41158 59.582345 0 0 1.71857,1.61292 23.00749,36.41158 59.582345 0 0 1.9963,1.38831 23.00749,36.41158 59.582345 0 0 2.25345,1.14869 23.00749,36.41158 59.582345 0 0 2.49121,0.89776 23.00749,36.41158 59.582345 0 0 2.7022,0.64054 23.00749,36.41158 59.582345 0 0 2.88442,0.37182 23.00749,36.41158 59.582345 0 0 3.04153,0.10413 23.00749,36.41158 59.582345 0 0 3.16454,-0.16703 23.00749,36.41158 59.582345 0 0 3.2581,-0.4354 23.00749,36.41158 59.582345 0 0 3.32,-0.69988 23.00749,36.41158 59.582345 0 0 3.3446,-0.95893 23.00749,36.41158 59.582345 0 0 3.3408,-1.20612 23.00749,36.41158 59.582345 0 0 3.3007,-1.44037 23.00749,36.41158 59.582345 0 0 3.2277,-1.66483 23.00749,36.41158 59.582345 0 0 2.2225,-1.30192 23.00749,36.41158 59.582345 0 0 3.0302,-2.00254 23.00749,36.41158 59.582345 0 0 2.8747,-2.17471 23.00749,36.41158 59.582345 0 0 2.687,-2.32433 23.00749,36.41158 59.582345 0 0 2.4738,-2.45085 23.00749,36.41158 59.582345 0 0 2.2363,-2.55255 23.00749,36.41158 59.582345 0 0 1.9774,-2.63131 23.00749,36.41158 59.582345 0 0 1.6971,-2.68134 23.00749,36.41158 59.582345 0 0 1.4021,-2.7058 23.00749,36.41158 59.582345 0 0 1.0891,-2.70203 23.00749,36.41158 59.582345 0 0 0.769,-2.67168 23.00749,36.41158 59.582345 0 0 0.4413,-2.616 23.00749,36.41158 59.582345 0 0 0.1045,-2.53149 23.00749,36.41158 59.582345 0 0 -0.2302,-2.42414 23.00749,36.41158 59.582345 0 0 -0.56,-2.28983 23.00749,36.41158 59.582345 0 0 -0.8882,-2.13647 23.00749,36.41158 59.582345 0 0 -0.8204,-1.40576 23.00749,36.41158 59.582345 0 0 -1.4233,-1.82372 23.00749,36.41158 59.582345 0 0 -1.7183,-1.6129 23.00749,36.41158 59.582345 0 0 -1.9966,-1.38646 23.00749,36.41158 59.582345 0 0 -2.2553,-1.14904 23.00749,36.41158 59.582345 0 0 -2.4913,-0.89914 23.00749,36.41158 59.582345 0 0 -2.7002,-0.63867 23.00749,36.41158 59.582345 0 0 -2.8863,-0.37419 23.00749,36.41158 59.582345 0 0 -3.0394,-0.10413 z"
       style="opacity:1;fill:#e6e6e6;fill-opacity:1;fill-rule:nonzero;stroke:none;stroke-width:0.265;stroke-linecap:round;stroke-linejoin:round;stroke-miterlimit:4;stroke-dasharray:none;stroke-dashoffset:10.0157;stroke-opacity:1;paint-order:fill markers stroke" />
    <ellipse
       transform="matrix(0.87396184,-0.48599455,0.45499621,0.89049337,0,0)"
       ry="23.031166"
       rx="36.39661"
       cy="178.85814"
       cx="64.344261"
       id="path2541"
       style="opacity:1;fill:#ffffff;fill-opacity:1;fill-rule:nonzero;stroke:none;stroke-width:0.265081;stroke-linecap:round;stroke-linejoin:round;stroke-miterlimit:4;stroke-dasharray:none;stroke-dashoffset:10.0157;stroke-opacity:1;paint-order:fill markers stroke" />
    <path
       inkscape:connector-curvature="0"
       id="path2635"
       d="m 147.74865,122.61216 -71.499678,42.17236 c -0.15589,3.33117 0.76886,6.72994 2.97826,9.57003 l 4.29606,5.52333 c 4.8895,6.28564 13.48495,6.85872 20.106038,2.43343 l 55.56982,-37.14038 c 6.2485,-4.93693 19.5598,-40.78252 12.6937,-36.74772 z"
       style="opacity:1;fill:#3b8d3d;fill-opacity:1;fill-rule:nonzero;stroke:none;stroke-width:0.265;stroke-linecap:round;stroke-linejoin:round;stroke-miterlimit:4;stroke-dasharray:none;stroke-dashoffset:10.0157;stroke-opacity:1;paint-order:fill markers stroke"
       sodipodi:nodetypes="ccssscsc" />
    <path
       inkscape:connector-curvature="0"
       id="rect2558"
       d="m 142.46325,102.44105 c -2.7497,0.20051 -29.30918,8.8086 -31.0771,11.2153 L 81.680002,154.0949 c -2.5846,3.51815 -5.24078,6.64817 -5.43103,10.68962 l 71.499678,-42.17236 -1.1568,-1.48637 c -3.0557,-3.9286 0.4535,-19.01981 -4.1286,-18.68474 z"
       style="opacity:1;fill:#47ab49;fill-opacity:1;fill-rule:nonzero;stroke:none;stroke-width:0.265;stroke-linecap:round;stroke-linejoin:round;stroke-miterlimit:4;stroke-dasharray:none;stroke-dashoffset:10.0157;stroke-opacity:1;paint-order:fill markers stroke"
       sodipodi:nodetypes="sssccss" />
    <path
       inkscape:connector-curvature="0"
       id="path2539"
       d="m 150.43545,98.821572 a 34.121633,68.243265 56.231266 0 0 -51.615858,18.980438 34.121633,68.243265 56.231266 0 0 -37.76386,66.29702 34.121633,68.243265 56.231266 0 0 75.698118,-9.56816 34.121633,68.243265 56.231266 0 0 37.7636,-66.29664 34.121633,68.243265 56.231266 0 0 -24.082,-9.412658 z m -0.3451,2.098358 a 23.00749,36.41158 59.582345 0 1 3.0395,0.10413 23.00749,36.41158 59.582345 0 1 2.8861,0.37381 23.00749,36.41158 59.582345 0 1 2.7003,0.63867 23.00749,36.41158 59.582345 0 1 2.4913,0.89952 23.00749,36.41158 59.582345 0 1 2.2553,1.14868 23.00749,36.41158 59.582345 0 1 1.9966,1.38644 23.00749,36.41158 59.582345 0 1 1.7183,1.61292 23.00749,36.41158 59.582345 0 1 1.4233,1.82409 23.00749,36.41158 59.582345 0 1 0.8204,1.40575 23.00749,36.41158 59.582345 0 1 0.8881,2.13609 23.00749,36.41158 59.582345 0 1 0.5602,2.29021 23.00749,36.41158 59.582345 0 1 0.23,2.42377 23.00749,36.41158 59.582345 0 1 -0.1044,2.53173 23.00749,36.41158 59.582345 0 1 -0.4412,2.61577 23.00749,36.41158 59.582345 0 1 -0.769,2.67168 23.00749,36.41158 59.582345 0 1 -1.0892,2.70203 23.00749,36.41158 59.582345 0 1 -1.402,2.70616 23.00749,36.41158 59.582345 0 1 -1.6972,2.68096 23.00749,36.41158 59.582345 0 1 -1.9774,2.63131 23.00749,36.41158 59.582345 0 1 -2.2362,2.55255 23.00749,36.41158 59.582345 0 1 -2.474,2.45123 23.00749,36.41158 59.582345 0 1 -2.6869,2.32433 23.00749,36.41158 59.582345 0 1 -2.8746,2.17471 23.00749,36.41158 59.582345 0 1 -3.0303,2.00217 23.00749,36.41158 59.582345 0 1 -2.2226,1.30191 23.00749,36.41158 59.582345 0 1 -3.2275,1.66483 23.00749,36.41158 59.582345 0 1 -3.3008,1.44037 23.00749,36.41158 59.582345 0 1 -3.3407,1.2065 23.00749,36.41158 59.582345 0 1 -3.3447,0.95857 23.00749,36.41158 59.582345 0 1 -3.32,0.69986 23.00749,36.41158 59.582345 0 1 -3.2581,0.43578 23.00749,36.41158 59.582345 0 1 -3.16441,0.16703 23.00749,36.41158 59.582345 0 1 -3.04167,-0.10413 23.00749,36.41158 59.582345 0 1 -2.88443,-0.37219 23.00749,36.41158 59.582345 0 1 -2.70204,-0.64055 23.00749,36.41158 59.582345 0 1 -2.49122,-0.89739 23.00749,36.41158 59.582345 0 1 -2.25359,-1.14904 23.00749,36.41158 59.582345 0 1 -1.99615,-1.38833 23.00749,36.41158 59.582345 0 1 -1.71873,-1.61292 23.00749,36.41158 59.582345 0 1 -1.42269,-1.82183 23.00749,36.41158 59.582345 0 1 -0.82288,-1.40576 23.00749,36.41158 59.582345 0 1 -0.88585,-2.13647 23.00749,36.41158 59.582345 0 1 -0.56,-2.29171 23.00749,36.41158 59.582345 0 1 -0.23005,-2.42415 23.00749,36.41158 59.582345 0 1 0.10443,-2.53173 23.00749,36.41158 59.582345 0 1 0.43907,-2.61562 23.00749,36.41158 59.582345 0 1 0.76931,-2.67169 23.00749,36.41158 59.582345 0 1 1.09123,-2.70216 23.00749,36.41158 59.582345 0 1 1.39983,-2.70391 23.00749,36.41158 59.582345 0 1 1.69754,-2.68134 23.00749,36.41158 59.582345 0 1 1.97723,-2.63131 23.00749,36.41158 59.582345 0 1 2.23786,-2.55443 23.00749,36.41158 59.582345 0 1 2.47381,-2.45085 23.00749,36.41158 59.582345 0 1 2.68706,-2.32432 23.00749,36.41158 59.582345 0 1 2.87277,-2.17509 23.00749,36.41158 59.582345 0 1 3.03002,-2.0018 23.00749,36.41158 59.582345 0 1 2.22499,-1.30229 23.00749,36.41158 59.582345 0 1 3.22766,-1.66295 23.00749,36.41158 59.582345 0 1 3.3003,-1.44212 23.00749,36.41158 59.582345 0 1 3.339,-1.20612 23.00749,36.41158 59.582345 0 1 3.3468,-0.95718 23.00749,36.41158 59.582345 0 1 3.3177,-0.70175 23.00749,36.41158 59.582345 0 1 3.2584,-0.4354 23.00749,36.41158 59.582345 0 1 3.1664,-0.16691 z"
       style="opacity:1;fill:#e6e6e6;fill-opacity:1;fill-rule:nonzero;stroke:none;stroke-width:0.265;stroke-linecap:round;stroke-linejoin:round;stroke-miterlimit:4;stroke-dasharray:none;stroke-dashoffset:10.0157;stroke-opacity:1;paint-order:fill markers stroke" />
    <ellipse
       ry="21.29809"
       rx="21.118721"
       cy="115.15184"
       cx="148.76988"
       id="path1408-8-1-2-2"
       style="opacity:1;fill:#f9d8b0;fill-opacity:1;stroke:none;stroke-width:1;stroke-linecap:round;stroke-linejoin:round;stroke-miterlimit:4;stroke-dasharray:none;stroke-dashoffset:0;stroke-opacity:0.277778;paint-order:fill markers stroke" />
    <path
       id="path2305"
       style="fill:#aa00d8;fill-opacity:1;stroke:none;stroke-width:0.999998;stroke-linecap:round;stroke-linejoin:round;stroke-miterlimit:4;stroke-dasharray:none;stroke-dashoffset:0;stroke-opacity:0.277778;paint-order:fill markers stroke"
       d="m 48.120822,180.61556 a 101.10863,101.10863 0 0 0 0.35037,0.23565 101.10863,101.10863 0 0 0 0.36225,0.24081 101.10863,101.10863 0 0 0 0.36328,0.23926 101.10863,101.10863 0 0 0 0.36381,0.23771 101.10863,101.10863 0 0 0 0.36535,0.23668 101.10863,101.10863 0 0 0 0.36638,0.23461 101.10863,101.10863 0 0 0 0.36691,0.23306 101.10863,101.10863 0 0 0 0.36845,0.23151 101.10863,101.10863 0 0 0 0.36897,0.22996 101.10863,101.10863 0 0 0 0.37,0.22841 101.10863,101.10863 0 0 0 0.37104,0.22686 101.10863,101.10863 0 0 0 0.37259,0.22479 101.10863,101.10863 0 0 0 0.37258,0.22376 101.10863,101.10863 0 0 0 0.37414,0.22169 101.10863,101.10863 0 0 0 0.37517,0.22066 101.10863,101.10863 0 0 0 0.37569,0.21859 101.10863,101.10863 0 0 0 0.37724,0.21705 101.10863,101.10863 0 0 0 0.37775,0.21549 101.10863,101.10863 0 0 0 0.37879,0.21393 101.10863,101.10863 0 0 0 0.3793,0.2124 101.10863,101.10863 0 0 0 0.38086,0.21032 101.10863,101.10863 0 0 0 0.38137,0.20877 101.10863,101.10863 0 0 0 0.38241,0.20774 101.10863,101.10863 0 0 0 0.38292,0.20567 101.10863,101.10863 0 0 0 0.38447,0.20361 101.10863,101.10863 0 0 0 0.38499,0.20257 101.10863,101.10863 0 0 0 0.38551,0.2005 101.10863,101.10863 0 0 0 0.38706,0.19896 101.10863,101.10863 0 0 0 0.38757,0.1974 101.10863,101.10863 0 0 0 0.38809,0.19586 101.10863,101.10863 0 0 0 0.38912,0.1943 101.10863,101.10863 0 0 0 0.39016,0.19224 101.10863,101.10863 0 0 0 0.39119,0.19068 101.10863,101.10863 0 0 0 0.39171,0.18914 101.10863,101.10863 0 0 0 0.39222,0.18707 101.10863,101.10863 0 0 0 0.39326,0.18552 101.10863,101.10863 0 0 0 0.39429,0.18396 101.10863,101.10863 0 0 0 0.39481,0.18242 101.10863,101.10863 0 0 0 0.39584,0.18035 101.10863,101.10863 0 0 0 0.39636,0.1788 101.10863,101.10863 0 0 0 0.39739,0.17725 101.10863,101.10863 0 0 0 0.39791,0.17519 101.10863,101.10863 0 0 0 0.39894,0.17363 101.10863,101.10863 0 0 0 0.39946,0.17208 101.10863,101.10863 0 0 0 0.39997,0.17053 101.10863,101.10863 0 0 0 0.40101,0.16847 101.10863,101.10863 0 0 0 0.40153,0.1664 101.10863,101.10863 0 0 0 0.40256,0.16536 101.10863,101.10863 0 0 0 0.40308,0.1633 101.10863,101.10863 0 0 0 0.4041,0.16175 101.10863,101.10863 0 0 0 0.40412,0.15968 101.10863,101.10863 0 0 0 0.40514,0.15812 101.10863,101.10863 0 0 0 0.40617,0.15659 101.10863,101.10863 0 0 0 0.40618,0.15451 101.10863,101.10863 0 0 0 0.40721,0.15296 101.10863,101.10863 0 0 0 0.40773,0.15089 101.10863,101.10863 0 0 0 0.40876,0.14935 101.10863,101.10863 0 0 0 0.40928,0.1478 101.10863,101.10863 0 0 0 0.40927,0.14572 101.10863,101.10863 0 0 0 0.41083,0.14418 101.10863,101.10863 0 0 0 0.41083,0.14211 101.10863,101.10863 0 0 0 0.41134,0.14056 101.10863,101.10863 0 0 0 0.41238,0.13901 101.10863,101.10863 0 0 0 0.41289,0.13694 101.10863,101.10863 0 0 0 0.41342,0.13539 101.10863,101.10863 0 0 0 0.41393,0.13333 101.10863,101.10863 0 0 0 0.41444,0.13177 101.10863,101.10863 0 0 0 0.41496,0.12971 101.10863,101.10863 0 0 0 0.41548,0.12816 101.10863,101.10863 0 0 0 0.41651,0.12609 101.10863,101.10863 0 0 0 0.41651,0.12454 101.10863,101.10863 0 0 0 0.41755,0.12299 101.10863,101.10863 0 0 0 0.41754,0.12092 101.10863,101.10863 0 0 0 0.41859,0.11886 101.10863,101.10863 0 0 0 0.41858,0.1173 101.10863,101.10863 0 0 0 0.41909,0.11576 101.10863,101.10863 0 0 0 0.42013,0.11369 101.10863,101.10863 0 0 0 0.42013,0.11214 101.10863,101.10863 0 0 0 0.42065,0.11007 101.10863,101.10863 0 0 0 0.42116,0.108 101.10863,101.10863 0 0 0 0.42168,0.10645 101.10863,101.10863 0 0 0 0.4222,0.10491 101.10863,101.10863 0 0 0 0.42271,0.10283 101.10863,101.10863 0 0 0 0.42323,0.10077 101.10863,101.10863 0 0 0 0.42323,0.0992 101.10863,101.10863 0 0 0 0.42374,0.0977 101.10863,101.10863 0 0 0 0.42427,0.0956 101.10863,101.10863 0 0 0 0.42478,0.0935 101.10863,101.10863 0 0 0 0.42529,0.092 101.10863,101.10863 0 0 0 0.4253,0.0899 101.10863,101.10863 0 0 0 0.42582,0.0884 101.10863,101.10863 0 0 0 0.42632,0.0863 101.10863,101.10863 0 0 0 0.42685,0.0847 101.10863,101.10863 0 0 0 0.42685,0.0827 101.10863,101.10863 0 0 0 0.42736,0.0811 101.10863,101.10863 0 0 0 0.42789,0.0791 101.10863,101.10863 0 0 0 0.42788,0.077 101.10863,101.10863 0 0 0 0.42839,0.0754 101.10863,101.10863 0 0 0 0.4284,0.0734 101.10863,101.10863 0 0 0 0.42943,0.0718 101.10863,101.10863 0 0 0 0.42892,0.0698 101.10863,101.10863 0 0 0 0.42995,0.0682 101.10863,101.10863 0 0 0 0.42943,0.0662 101.10863,101.10863 0 0 0 0.43046,0.0641 101.10863,101.10863 0 0 0 0.43047,0.0625 101.10863,101.10863 0 0 0 0.43046,0.0605 101.10863,101.10863 0 0 0 0.43098,0.0589 101.10863,101.10863 0 0 0 0.14728,0.0196 l 22.572778,-7.49205 -9.15861,-27.72751 z" />
    <path
       id="path2933-3-0"
       d="m 104.78744,161.80644 9.15883,27.72749 28.21818,-9.36524 c 7.479,-2.48206 11.4998,-10.49993 9.0162,-17.97837 l -0.2396,-0.71279 c -2.484,-7.47819 -10.5048,-11.50261 -17.9835,-9.02018 z"
       style="fill:#f9d8b0;fill-opacity:1;stroke:none;stroke-width:0.999998;stroke-linecap:round;stroke-linejoin:round;stroke-miterlimit:4;stroke-dasharray:none;stroke-dashoffset:0;stroke-opacity:0.277778;paint-order:fill markers stroke" />
  </g>
</svg>
