<?xml version="1.0" encoding="UTF-8" standalone="no"?>
<svg
   xmlns:osb="http://www.openswatchbook.org/uri/2009/osb"
   xmlns:dc="http://purl.org/dc/elements/1.1/"
   xmlns:cc="http://creativecommons.org/ns#"
   xmlns:rdf="http://www.w3.org/1999/02/22-rdf-syntax-ns#"
   xmlns:svg="http://www.w3.org/2000/svg"
   xmlns="http://www.w3.org/2000/svg"
   xmlns:xlink="http://www.w3.org/1999/xlink"
   xmlns:sodipodi="http://sodipodi.sourceforge.net/DTD/sodipodi-0.dtd"
   xmlns:inkscape="http://www.inkscape.org/namespaces/inkscape"
   sodipodi:docname="Poverty Alleviation 2.svg"
   inkscape:version="1.0 (4035a4fb49, 2020-05-01)"
   id="svg8"
   version="1.1"
   viewBox="0 0 210 210"
   height="210mm"
   width="210mm">
  <defs
     id="defs2">
    <linearGradient
       id="linearGradient1496"
       inkscape:collect="always">
      <stop
         id="stop1492"
         offset="0"
         style="stop-color:#ffffff;stop-opacity:1;" />
      <stop
         id="stop1494"
         offset="1"
         style="stop-color:#ffffff;stop-opacity:0;" />
    </linearGradient>
    <linearGradient
       osb:paint="solid"
       id="linearGradient6086">
      <stop
         id="stop6084"
         offset="0"
         style="stop-color:#000000;stop-opacity:1;" />
    </linearGradient>
    <clipPath
       id="clipPath1660"
       clipPathUnits="userSpaceOnUse">
      <path
         inkscape:connector-curvature="0"
         id="path1658"
         d="M 0,0 H 596 V 842 H 0 Z" />
    </clipPath>
    <clipPath
       id="clipPath1676"
       clipPathUnits="userSpaceOnUse">
      <path
         inkscape:connector-curvature="0"
         id="path1674"
         d="M 0,0 H 596 V 842 H 0 Z" />
    </clipPath>
    <clipPath
       id="clipPath1692"
       clipPathUnits="userSpaceOnUse">
      <path
         inkscape:connector-curvature="0"
         id="path1690"
         d="M 0,0 H 596 V 842 H 0 Z" />
    </clipPath>
    <clipPath
       id="clipPath1712"
       clipPathUnits="userSpaceOnUse">
      <path
         inkscape:connector-curvature="0"
         id="path1710"
         d="M 0,0 H 596 V 842 H 0 Z" />
    </clipPath>
    <clipPath
       id="clipPath1732"
       clipPathUnits="userSpaceOnUse">
      <path
         inkscape:connector-curvature="0"
         id="path1730"
         d="M 0,0 H 596 V 842 H 0 Z" />
    </clipPath>
    <clipPath
       id="clipPath1752"
       clipPathUnits="userSpaceOnUse">
      <path
         inkscape:connector-curvature="0"
         id="path1750"
         d="M 0,0 H 596 V 842 H 0 Z" />
    </clipPath>
    <clipPath
       id="clipPath1768"
       clipPathUnits="userSpaceOnUse">
      <path
         inkscape:connector-curvature="0"
         id="path1766"
         d="M 0,0 H 596 V 842 H 0 Z" />
    </clipPath>
    <clipPath
       id="clipPath1784"
       clipPathUnits="userSpaceOnUse">
      <path
         inkscape:connector-curvature="0"
         id="path1782"
         d="M 0,0 H 596 V 842 H 0 Z" />
    </clipPath>
    <clipPath
       id="clipPath1800"
       clipPathUnits="userSpaceOnUse">
      <path
         inkscape:connector-curvature="0"
         id="path1798"
         d="M 0,0 H 596 V 842 H 0 Z" />
    </clipPath>
    <clipPath
       id="clipPath1816"
       clipPathUnits="userSpaceOnUse">
      <path
         inkscape:connector-curvature="0"
         id="path1814"
         d="M 0,0 H 596 V 842 H 0 Z" />
    </clipPath>
    <clipPath
       id="clipPath1832"
       clipPathUnits="userSpaceOnUse">
      <path
         inkscape:connector-curvature="0"
         id="path1830"
         d="M 0,0 H 596 V 842 H 0 Z" />
    </clipPath>
    <clipPath
       id="clipPath1848"
       clipPathUnits="userSpaceOnUse">
      <path
         inkscape:connector-curvature="0"
         id="path1846"
         d="M 0,0 H 596 V 842 H 0 Z" />
    </clipPath>
    <clipPath
       id="clipPath1864"
       clipPathUnits="userSpaceOnUse">
      <path
         inkscape:connector-curvature="0"
         id="path1862"
         d="M 0,0 H 596 V 842 H 0 Z" />
    </clipPath>
    <clipPath
       id="clipPath1880"
       clipPathUnits="userSpaceOnUse">
      <path
         inkscape:connector-curvature="0"
         id="path1878"
         d="M 0,0 H 596 V 842 H 0 Z" />
    </clipPath>
    <clipPath
       id="clipPath1896"
       clipPathUnits="userSpaceOnUse">
      <path
         inkscape:connector-curvature="0"
         id="path1894"
         d="M 0,0 H 596 V 842 H 0 Z" />
    </clipPath>
    <clipPath
       id="clipPath2052"
       clipPathUnits="userSpaceOnUse">
      <path
         inkscape:connector-curvature="0"
         id="path2050"
         d="M 0,0 H 596 V 842 H 0 Z" />
    </clipPath>
    <clipPath
       id="clipPath2068"
       clipPathUnits="userSpaceOnUse">
      <path
         inkscape:connector-curvature="0"
         id="path2066"
         d="M 0,0 H 596 V 842 H 0 Z" />
    </clipPath>
    <clipPath
       clipPathUnits="userSpaceOnUse"
       id="clipPath1504">
      <path
         d="M 0,0 H 596 V 842 H 0 Z"
         id="path1502-8"
         inkscape:connector-curvature="0" />
    </clipPath>
    <clipPath
       clipPathUnits="userSpaceOnUse"
       id="clipPath1520">
      <path
         d="M 0,0 H 596 V 842 H 0 Z"
         id="path1518"
         inkscape:connector-curvature="0" />
    </clipPath>
    <clipPath
       clipPathUnits="userSpaceOnUse"
       id="clipPath1536">
      <path
         d="M 0,0 H 596 V 842 H 0 Z"
         id="path1534"
         inkscape:connector-curvature="0" />
    </clipPath>
    <clipPath
       clipPathUnits="userSpaceOnUse"
       id="clipPath1552">
      <path
         d="M 0,0 H 596 V 842 H 0 Z"
         id="path1550"
         inkscape:connector-curvature="0" />
    </clipPath>
    <clipPath
       clipPathUnits="userSpaceOnUse"
       id="clipPath1568">
      <path
         d="M 0,0 H 596 V 842 H 0 Z"
         id="path1566"
         inkscape:connector-curvature="0" />
    </clipPath>
    <clipPath
       clipPathUnits="userSpaceOnUse"
       id="clipPath1584">
      <path
         d="M 0,0 H 596 V 842 H 0 Z"
         id="path1582"
         inkscape:connector-curvature="0" />
    </clipPath>
    <clipPath
       clipPathUnits="userSpaceOnUse"
       id="clipPath1600">
      <path
         d="M 0,0 H 596 V 842 H 0 Z"
         id="path1598"
         inkscape:connector-curvature="0" />
    </clipPath>
    <clipPath
       clipPathUnits="userSpaceOnUse"
       id="clipPath1616">
      <path
         d="M 0,0 H 596 V 842 H 0 Z"
         id="path1614"
         inkscape:connector-curvature="0" />
    </clipPath>
    <clipPath
       clipPathUnits="userSpaceOnUse"
       id="clipPath1632">
      <path
         d="M 0,0 H 596 V 842 H 0 Z"
         id="path1630"
         inkscape:connector-curvature="0" />
    </clipPath>
    <clipPath
       clipPathUnits="userSpaceOnUse"
       id="clipPath1648">
      <path
         d="M 0,0 H 596 V 842 H 0 Z"
         id="path1646"
         inkscape:connector-curvature="0" />
    </clipPath>
    <clipPath
       clipPathUnits="userSpaceOnUse"
       id="clipPath1664">
      <path
         d="M 0,0 H 596 V 842 H 0 Z"
         id="path1662-3"
         inkscape:connector-curvature="0" />
    </clipPath>
    <clipPath
       clipPathUnits="userSpaceOnUse"
       id="clipPath1680">
      <path
         d="M 0,0 H 596 V 842 H 0 Z"
         id="path1678-3"
         inkscape:connector-curvature="0" />
    </clipPath>
    <clipPath
       clipPathUnits="userSpaceOnUse"
       id="clipPath1696">
      <path
         d="M 0,0 H 596 V 842 H 0 Z"
         id="path1694-7"
         inkscape:connector-curvature="0" />
    </clipPath>
    <clipPath
       clipPathUnits="userSpaceOnUse"
       id="clipPath1712-4">
      <path
         d="M 0,0 H 596 V 842 H 0 Z"
         id="path1710-3"
         inkscape:connector-curvature="0" />
    </clipPath>
    <clipPath
       clipPathUnits="userSpaceOnUse"
       id="clipPath1728">
      <path
         d="M 0,0 H 596 V 842 H 0 Z"
         id="path1726"
         inkscape:connector-curvature="0" />
    </clipPath>
    <clipPath
       clipPathUnits="userSpaceOnUse"
       id="clipPath1744">
      <path
         d="M 0,0 H 596 V 842 H 0 Z"
         id="path1742"
         inkscape:connector-curvature="0" />
    </clipPath>
    <clipPath
       clipPathUnits="userSpaceOnUse"
       id="clipPath1760">
      <path
         d="M 0,0 H 596 V 842 H 0 Z"
         id="path1758"
         inkscape:connector-curvature="0" />
    </clipPath>
    <clipPath
       clipPathUnits="userSpaceOnUse"
       id="clipPath1776">
      <path
         d="M 0,0 H 596 V 842 H 0 Z"
         id="path1774"
         inkscape:connector-curvature="0" />
    </clipPath>
    <clipPath
       clipPathUnits="userSpaceOnUse"
       id="clipPath1792">
      <path
         d="M 0,0 H 596 V 842 H 0 Z"
         id="path1790"
         inkscape:connector-curvature="0" />
    </clipPath>
    <clipPath
       clipPathUnits="userSpaceOnUse"
       id="clipPath1808">
      <path
         d="M 0,0 H 596 V 842 H 0 Z"
         id="path1806"
         inkscape:connector-curvature="0" />
    </clipPath>
    <clipPath
       id="clipPath1660-5"
       clipPathUnits="userSpaceOnUse">
      <path
         inkscape:connector-curvature="0"
         id="path1658-8"
         d="M 0,0 H 596 V 842 H 0 Z" />
    </clipPath>
    <clipPath
       id="clipPath1676-5"
       clipPathUnits="userSpaceOnUse">
      <path
         inkscape:connector-curvature="0"
         id="path1674-6"
         d="M 0,0 H 596 V 842 H 0 Z" />
    </clipPath>
    <clipPath
       id="clipPath1692-1"
       clipPathUnits="userSpaceOnUse">
      <path
         inkscape:connector-curvature="0"
         id="path1690-8"
         d="M 0,0 H 596 V 842 H 0 Z" />
    </clipPath>
    <clipPath
       id="clipPath1712-5"
       clipPathUnits="userSpaceOnUse">
      <path
         inkscape:connector-curvature="0"
         id="path1710-1"
         d="M 0,0 H 596 V 842 H 0 Z" />
    </clipPath>
    <clipPath
       id="clipPath1732-5"
       clipPathUnits="userSpaceOnUse">
      <path
         inkscape:connector-curvature="0"
         id="path1730-6"
         d="M 0,0 H 596 V 842 H 0 Z" />
    </clipPath>
    <clipPath
       id="clipPath1752-5"
       clipPathUnits="userSpaceOnUse">
      <path
         inkscape:connector-curvature="0"
         id="path1750-8"
         d="M 0,0 H 596 V 842 H 0 Z" />
    </clipPath>
    <clipPath
       id="clipPath1768-1"
       clipPathUnits="userSpaceOnUse">
      <path
         inkscape:connector-curvature="0"
         id="path1766-0"
         d="M 0,0 H 596 V 842 H 0 Z" />
    </clipPath>
    <clipPath
       id="clipPath1784-1"
       clipPathUnits="userSpaceOnUse">
      <path
         inkscape:connector-curvature="0"
         id="path1782-9"
         d="M 0,0 H 596 V 842 H 0 Z" />
    </clipPath>
    <clipPath
       id="clipPath1800-2"
       clipPathUnits="userSpaceOnUse">
      <path
         inkscape:connector-curvature="0"
         id="path1798-9"
         d="M 0,0 H 596 V 842 H 0 Z" />
    </clipPath>
    <clipPath
       id="clipPath1816-6"
       clipPathUnits="userSpaceOnUse">
      <path
         inkscape:connector-curvature="0"
         id="path1814-1"
         d="M 0,0 H 596 V 842 H 0 Z" />
    </clipPath>
    <clipPath
       id="clipPath1832-5"
       clipPathUnits="userSpaceOnUse">
      <path
         inkscape:connector-curvature="0"
         id="path1830-6"
         d="M 0,0 H 596 V 842 H 0 Z" />
    </clipPath>
    <clipPath
       id="clipPath1848-4"
       clipPathUnits="userSpaceOnUse">
      <path
         inkscape:connector-curvature="0"
         id="path1846-6"
         d="M 0,0 H 596 V 842 H 0 Z" />
    </clipPath>
    <clipPath
       id="clipPath1864-9"
       clipPathUnits="userSpaceOnUse">
      <path
         inkscape:connector-curvature="0"
         id="path1862-0"
         d="M 0,0 H 596 V 842 H 0 Z" />
    </clipPath>
    <clipPath
       id="clipPath1880-9"
       clipPathUnits="userSpaceOnUse">
      <path
         inkscape:connector-curvature="0"
         id="path1878-5"
         d="M 0,0 H 596 V 842 H 0 Z" />
    </clipPath>
    <clipPath
       id="clipPath1896-3"
       clipPathUnits="userSpaceOnUse">
      <path
         inkscape:connector-curvature="0"
         id="path1894-3"
         d="M 0,0 H 596 V 842 H 0 Z" />
    </clipPath>
    <clipPath
       id="clipPath2052-1"
       clipPathUnits="userSpaceOnUse">
      <path
         inkscape:connector-curvature="0"
         id="path2050-5"
         d="M 0,0 H 596 V 842 H 0 Z" />
    </clipPath>
    <clipPath
       id="clipPath2068-2"
       clipPathUnits="userSpaceOnUse">
      <path
         inkscape:connector-curvature="0"
         id="path2066-2"
         d="M 0,0 H 596 V 842 H 0 Z" />
    </clipPath>
    <clipPath
       clipPathUnits="userSpaceOnUse"
       id="clipPath1504-7">
      <path
         d="M 0,0 H 596 V 842 H 0 Z"
         id="path1502-8-1"
         inkscape:connector-curvature="0" />
    </clipPath>
    <clipPath
       clipPathUnits="userSpaceOnUse"
       id="clipPath1520-5">
      <path
         d="M 0,0 H 596 V 842 H 0 Z"
         id="path1518-9"
         inkscape:connector-curvature="0" />
    </clipPath>
    <clipPath
       clipPathUnits="userSpaceOnUse"
       id="clipPath1536-8">
      <path
         d="M 0,0 H 596 V 842 H 0 Z"
         id="path1534-7"
         inkscape:connector-curvature="0" />
    </clipPath>
    <clipPath
       clipPathUnits="userSpaceOnUse"
       id="clipPath1552-7">
      <path
         d="M 0,0 H 596 V 842 H 0 Z"
         id="path1550-8"
         inkscape:connector-curvature="0" />
    </clipPath>
    <clipPath
       clipPathUnits="userSpaceOnUse"
       id="clipPath1568-5">
      <path
         d="M 0,0 H 596 V 842 H 0 Z"
         id="path1566-7"
         inkscape:connector-curvature="0" />
    </clipPath>
    <clipPath
       clipPathUnits="userSpaceOnUse"
       id="clipPath1584-9">
      <path
         d="M 0,0 H 596 V 842 H 0 Z"
         id="path1582-6"
         inkscape:connector-curvature="0" />
    </clipPath>
    <clipPath
       clipPathUnits="userSpaceOnUse"
       id="clipPath1600-6">
      <path
         d="M 0,0 H 596 V 842 H 0 Z"
         id="path1598-0"
         inkscape:connector-curvature="0" />
    </clipPath>
    <clipPath
       clipPathUnits="userSpaceOnUse"
       id="clipPath1616-2">
      <path
         d="M 0,0 H 596 V 842 H 0 Z"
         id="path1614-2"
         inkscape:connector-curvature="0" />
    </clipPath>
    <clipPath
       clipPathUnits="userSpaceOnUse"
       id="clipPath1632-7">
      <path
         d="M 0,0 H 596 V 842 H 0 Z"
         id="path1630-6"
         inkscape:connector-curvature="0" />
    </clipPath>
    <clipPath
       clipPathUnits="userSpaceOnUse"
       id="clipPath1648-4">
      <path
         d="M 0,0 H 596 V 842 H 0 Z"
         id="path1646-8"
         inkscape:connector-curvature="0" />
    </clipPath>
    <clipPath
       clipPathUnits="userSpaceOnUse"
       id="clipPath1664-2">
      <path
         d="M 0,0 H 596 V 842 H 0 Z"
         id="path1662-3-8"
         inkscape:connector-curvature="0" />
    </clipPath>
    <clipPath
       clipPathUnits="userSpaceOnUse"
       id="clipPath1680-1">
      <path
         d="M 0,0 H 596 V 842 H 0 Z"
         id="path1678-3-9"
         inkscape:connector-curvature="0" />
    </clipPath>
    <clipPath
       clipPathUnits="userSpaceOnUse"
       id="clipPath1696-3">
      <path
         d="M 0,0 H 596 V 842 H 0 Z"
         id="path1694-7-7"
         inkscape:connector-curvature="0" />
    </clipPath>
    <clipPath
       clipPathUnits="userSpaceOnUse"
       id="clipPath1712-4-9">
      <path
         d="M 0,0 H 596 V 842 H 0 Z"
         id="path1710-3-0"
         inkscape:connector-curvature="0" />
    </clipPath>
    <clipPath
       clipPathUnits="userSpaceOnUse"
       id="clipPath1728-4">
      <path
         d="M 0,0 H 596 V 842 H 0 Z"
         id="path1726-9"
         inkscape:connector-curvature="0" />
    </clipPath>
    <clipPath
       clipPathUnits="userSpaceOnUse"
       id="clipPath1744-3">
      <path
         d="M 0,0 H 596 V 842 H 0 Z"
         id="path1742-8"
         inkscape:connector-curvature="0" />
    </clipPath>
    <clipPath
       clipPathUnits="userSpaceOnUse"
       id="clipPath1760-3">
      <path
         d="M 0,0 H 596 V 842 H 0 Z"
         id="path1758-1"
         inkscape:connector-curvature="0" />
    </clipPath>
    <clipPath
       clipPathUnits="userSpaceOnUse"
       id="clipPath1776-7">
      <path
         d="M 0,0 H 596 V 842 H 0 Z"
         id="path1774-7"
         inkscape:connector-curvature="0" />
    </clipPath>
    <clipPath
       clipPathUnits="userSpaceOnUse"
       id="clipPath1792-9">
      <path
         d="M 0,0 H 596 V 842 H 0 Z"
         id="path1790-5"
         inkscape:connector-curvature="0" />
    </clipPath>
    <clipPath
       clipPathUnits="userSpaceOnUse"
       id="clipPath1808-1">
      <path
         d="M 0,0 H 596 V 842 H 0 Z"
         id="path1806-8"
         inkscape:connector-curvature="0" />
    </clipPath>
    <linearGradient
       gradientTransform="scale(0.26458333)"
       gradientUnits="userSpaceOnUse"
       y2="-1387.1982"
       x2="-4242.354"
       y1="-1387.1982"
       x1="-4352.1968"
       id="linearGradient1498"
       xlink:href="#linearGradient1496"
       inkscape:collect="always" />
    <clipPath
       clipPathUnits="userSpaceOnUse"
       id="clipPath2839">
      <path
         d="M 0,0 H 596 V 842 H 0 Z"
         id="path2837"
         inkscape:connector-curvature="0" />
    </clipPath>
    <clipPath
       clipPathUnits="userSpaceOnUse"
       id="clipPath2855">
      <path
         d="M 0,0 H 596 V 842 H 0 Z"
         id="path2853"
         inkscape:connector-curvature="0" />
    </clipPath>
  </defs>
  <sodipodi:namedview
     inkscape:document-rotation="0"
     showguides="true"
     inkscape:window-maximized="1"
     inkscape:window-y="-8"
     inkscape:window-x="-8"
     inkscape:window-height="1017"
     inkscape:window-width="1920"
     showgrid="false"
     inkscape:current-layer="layer1"
     inkscape:document-units="mm"
     inkscape:cy="390.12878"
     inkscape:cx="377.76377"
     inkscape:zoom="0.70710678"
     inkscape:pageshadow="2"
     inkscape:pageopacity="0.0"
     borderopacity="1.0"
     bordercolor="#666666"
     pagecolor="#ffffff"
     id="base" />
  <metadata
     id="metadata5">
    <rdf:RDF>
      <cc:Work
         rdf:about="">
        <dc:format>image/svg+xml</dc:format>
        <dc:type
           rdf:resource="http://purl.org/dc/dcmitype/StillImage" />
        <dc:title />
      </cc:Work>
    </rdf:RDF>
  </metadata>
  <g
     id="layer1"
     inkscape:groupmode="layer"
     inkscape:label="Layer 1">
    <g
       transform="translate(-1170.7618,-1821.1715)"
       id="g922" />
    <g
       transform="matrix(0.35277777,0,0,0.35277777,-1143.1293,-1214.9265)"
       id="g2835" />
    <g
       transform="matrix(0.35277777,0,0,0.35277777,-1143.1293,-1214.9265)"
       id="g2851" />
    <path
       d="m 104.16986,1.4187641 a 102.68326,102.68326 0 0 0 -72.664808,30.0712679 102.68326,102.68326 0 0 0 0,145.119098 102.68326,102.68326 0 0 0 2.343294,2.34267 102.68326,102.68326 0 0 0 125.736374,11.46086 l -76.85289,-44.36865 27.11128,-41.62571 0.36193,-1.77511 0.0508,-0.0508 -0.36192,1.7751 -27.111284,41.62573 76.851634,44.36865 c 6.17091,-3.96147 11.90749,-8.57522 17.10001,-13.75545 17.54877,-17.5492 28.13774,-40.86419 29.82475,-65.6182 l 0.0212,0.0212 a 102.68326,102.68326 0 0 0 0,-0.0508 h 0.0446 l -0.0446,-0.0275 A 102.68326,102.68326 0 0 0 179.03033,33.825668 102.68326,102.68326 0 0 0 176.72452,31.519853 102.68326,102.68326 0 0 0 104.81046,1.4496479 v -0.023309 a 102.68326,102.68326 0 0 0 -0.6364,0 z"
       style="opacity:0.999;fill:#71c638;fill-opacity:1;stroke-width:4.99999;stroke-linecap:round"
       id="path10195-0-6" />
    <path
       id="path10195-9"
       style="opacity:0.999;fill:#687683;fill-opacity:1;stroke-width:4.99999;stroke-linecap:round"
       d="M 52.79167,15.208951 A 102.68326,102.68326 0 0 0 4.8977291,77.583834 102.68326,102.68326 0 0 0 77.457283,203.26069 a 102.68326,102.68326 0 0 0 3.200685,0.85715 102.68326,102.68326 0 0 0 114.621342,-52.94279 l -88.74089,0.002 2.6662,-49.60457 -0.57412,-1.718247 0.0186,-0.06943 0.57413,1.718257 -2.66621,49.60458 88.7398,-9.2e-4 c 3.36343,-6.5162 6.0246,-13.3801 7.93132,-20.46258 6.42307,-23.97244 3.93591,-49.458308 -6.98011,-71.739402 l 0.0289,0.0077 a 102.68326,102.68326 0 0 0 -0.0254,-0.04399 l 0.0386,-0.02226 -0.0523,-0.0017 A 102.68326,102.68326 0 0 0 133.82621,5.8440349 102.68326,102.68326 0 0 0 130.67643,5.0000483 102.68326,102.68326 0 0 0 53.361913,14.915519 l -0.01157,-0.02017 a 102.68326,102.68326 0 0 0 -0.551132,0.318196 z" />
    <path
       d="m 179.03131,33.932884 -68.85541,68.855396 -0.33271,1.63058 -22.558587,34.63591 -0.01249,-0.008 22.520257,-34.57702 0.33217,-1.62949 -76.241875,76.24186 a 102.68326,102.68326 0 0 0 125.651315,11.38221 l -0.59413,-0.42291 0.64435,0.37213 c 6.1707,-3.96147 11.90669,-8.57518 17.0992,-13.75541 17.54856,-17.54919 28.13852,-40.86408 29.82572,-65.61747 l 0.0232,0.0232 a 102.68326,102.68326 0 0 0 0,-0.0508 h 0.0443 l -0.0443,-0.0276 A 102.68326,102.68326 0 0 0 179.03399,33.936323 Z"
       style="opacity:0.999;fill:#000000;fill-opacity:0.169355;stroke-width:4.99999;stroke-linecap:round"
       id="path6456-2" />
    <path
       id="path10189-1-8"
       style="fill:#e3bf93;fill-opacity:1;stroke:none;stroke-width:0.750004;stroke-miterlimit:4;stroke-dasharray:none;stroke-opacity:1"
       d="m 69.953541,129.06512 c 0,0 0.281985,0.25586 0.787924,0.70287 0.50593,0.44702 1.235805,1.08526 2.131996,1.84989 0.896173,0.76461 1.95857,1.65571 3.12929,2.60852 0.585369,0.4764 1.197839,0.96824 1.830146,1.46743 0.632316,0.49919 1.284441,1.00573 1.94924,1.51153 0.664789,0.50578 1.342252,1.0107 2.02506,1.5069 0.682817,0.49622 1.371099,0.98366 2.05747,1.45412 0.68638,0.47046 1.370814,0.92409 2.046293,1.35262 0.67547,0.42853 1.341886,0.83201 1.992,1.20244 0.650114,0.37043 1.284009,0.70776 1.894293,1.0039 0.305147,0.14807 0.604334,0.28591 0.896816,0.41238 0.292473,0.12647 0.578178,0.2416 0.856187,0.34445 0.278,0.10284 0.548237,0.19323 0.809954,0.27042 0.261717,0.0772 0.514847,0.14113 0.758472,0.19065 0.243634,0.0495 0.477846,0.0848 0.701561,0.10462 0.223733,0.0198 0.437034,0.0242 0.639048,0.0123 0.404046,-0.0238 0.855627,-0.0758 1.348516,-0.15627 0.492889,-0.0804 1.027104,-0.1894 1.596393,-0.32718 0.569297,-0.13777 1.173695,-0.30444 1.806957,-0.50006 0.633252,-0.19561 1.295363,-0.42024 1.980153,-0.67424 0.68479,-0.25402 1.39232,-0.53731 2.11619,-0.85027 0.72389,-0.31297 1.46406,-0.6556 2.21457,-1.02808 0.75051,-0.37247 1.51136,-0.77483 2.27608,-1.20737 0.76472,-0.43255 1.53344,-0.89532 2.29994,-1.38848 0.38325,-0.24658 0.76581,-0.50075 1.14716,-0.76259 0.38136,-0.26184 0.76138,-0.5313 1.13928,-0.80848 0.3779,-0.27718 0.7537,-0.56196 1.12661,-0.85454 0.3729,-0.29257 0.74298,-0.59288 1.10933,-0.90092 0.36635,-0.30805 0.72906,-0.62389 1.0873,-0.94748 0.35824,-0.32358 0.71191,-0.655 1.06049,-0.99419 0.34856,-0.33919 0.69203,-0.6862 1.02938,-1.04108 0.33735,-0.35487 0.66864,-0.71749 0.99321,-1.08811 0.32457,-0.37062 0.64234,-0.74922 0.95258,-1.13566 0.31023,-0.38643 0.61298,-0.7807 0.90734,-1.18303 0.29435,-0.40232 0.58026,-0.81262 0.85717,-1.23089 0.27689,-0.41828 0.54481,-0.84462 0.80272,-1.27893 0.25791,-0.43431 0.50582,-0.87656 0.74318,-1.32696 0.23735,-0.4504 0.4641,-0.90892 0.67935,-1.37549 0.21525,-0.46657 0.419,-0.9412 0.6106,-1.42401 0.19158,-0.4828 0.37102,-0.97375 0.53739,-1.47286 0.16638,-0.49911 0.31045,-1.00265 0.43344,-1.50972 0.12299,-0.50707 0.22498,-1.01771 0.30677,-1.53125 0.0818,-0.51354 0.14346,-1.02999 0.18621,-1.54854 0.0428,-0.51854 0.0665,-1.03913 0.0724,-1.5612 0.006,-0.52206 -0.006,-1.04548 -0.0349,-1.56958 -0.0288,-0.5241 -0.0744,-1.04887 -0.13572,-1.57354 -0.0614,-0.52465 -0.1383,-1.0493 -0.22995,-1.57304 -0.0917,-0.52374 -0.19796,-1.04659 -0.3178,-1.56794 -0.11984,-0.52134 -0.25323,-1.0411 -0.39907,-1.55856 -0.14584,-0.51746 -0.30405,-1.03265 -0.47373,-1.54475 -0.16968,-0.5121 -0.35082,-1.02123 -0.54217,-1.52649 -0.19134,-0.50526 -0.39301,-1.00669 -0.60385,-1.50362 -0.21084,-0.49694 -0.4308,-0.98935 -0.65896,-1.47649 -0.22816,-0.48714 -0.4645,-0.96904 -0.7078,-1.444894 -0.24332,-0.475872 -0.49363,-0.945627 -0.74993,-1.408725 -0.25628,-0.463097 -0.51851,-0.919545 -0.78561,-1.368407 -0.2671,-0.448863 -0.53915,-0.890204 -0.8149,-1.323344 -0.27574,-0.43314 -0.55522,-0.85806 -0.83744,-1.273999 -0.28221,-0.415939 -0.56703,-0.822942 -0.85355,-1.220201 -0.2865,-0.39726 -0.57478,-0.784711 -0.86341,-1.161808 -0.57728,-0.7542 -1.15656,-1.466646 -1.72931,-2.131326 -0.57276,-0.66468 -1.13896,-1.28163 -1.68983,-1.844949 -0.55087,-0.563324 -1.08643,-1.073072 -1.59804,-1.523198 -0.25582,-0.225067 -0.50554,-0.435137 -0.74828,-0.629683 -0.24274,-0.194538 -0.4785,-0.373535 -0.706,-0.536079 -0.2275,-0.162542 -0.44674,-0.308648 -0.65682,-0.437715 -0.21008,-0.129064 -0.41104,-0.240963 -0.60154,-0.335069 -0.19051,-0.0941 -0.37063,-0.170481 -0.53939,-0.228152 -0.16875,-0.05766 -0.32611,-0.09671 -0.47094,-0.116459 -0.28964,-0.0395 -0.58106,-0.06665 -0.87329,-0.08077 -0.29221,-0.01412 -0.5852,-0.01527 -0.87789,-0.0029 -0.29269,0.0123 -0.58504,0.03818 -0.87608,0.07797 -0.29105,0.0398 -0.58074,0.09353 -0.86803,0.161862 -0.28729,0.06834 -0.57214,0.15128 -0.85355,0.249206 -0.28142,0.09793 -0.55938,0.210933 -0.83283,0.339517 -0.27344,0.128575 -0.54249,0.272657 -0.80585,0.432945 -0.26335,0.160282 -0.52113,0.336781 -0.77229,0.529827 -0.25116,0.193045 -0.49563,0.402659 -0.73249,0.629515 -0.23685,0.226852 -0.46613,0.470922 -0.686577,0.732649 -0.220455,0.261721 -0.432038,0.541099 -0.63396,0.838745 -0.201922,0.297644 -0.39411,0.613516 -0.575396,0.948135 -0.181286,0.334618 -0.351717,0.687994 -0.510255,1.060647 -0.158538,0.372653 -0.305175,0.764548 -0.438871,1.176284 -0.133687,0.411738 -0.254498,0.843339 -0.361222,1.295214 -0.106724,0.451883 -0.199351,0.924026 -0.276999,1.417099 -0.03885,0.246537 -0.06989,0.49075 -0.09361,0.732492 -0.02369,0.241724 -0.03995,0.481097 -0.04932,0.717835 -0.01892,0.473484 -0.01019,0.936755 0.0225,1.389144 0.03269,0.452389 0.08936,0.893868 0.166464,1.323665 0.07714,0.429806 0.174711,0.847876 0.28902,1.253602 0.114319,0.405727 0.245352,0.799105 0.389683,1.179245 0.14434,0.38014 0.301813,0.74706 0.468975,1.10012 0.167152,0.35307 0.344067,0.69224 0.526868,1.01673 0.182793,0.3245 0.371481,0.6343 0.562722,0.92873 0.191251,0.29442 0.385027,0.57341 0.577538,0.83627 0.1925,0.26287 0.38372,0.50961 0.5703,0.7394 0.19687,0.24249 0.36325,0.41337 0.54528,0.61734 -0.18378,-1.3554 -0.42454,-2.79102 -0.77525,-4.38076 -2.604298,-25.763356 16.99083,-12.773899 21.95892,7.18453 3.12157,11.64983 -5.42153,18.10876 -10.62917,24.46315 -6.86784,6.84195 -9.34693,7.9386 -14.939369,8.01703 -3.154766,-0.0194 -3.989049,-0.59876 -7.839376,-2.22262 -2.421843,-1.20322 -6.970694,-4.12217 -10.331762,-6.34019 -3.16057,-2.21618 -4.938442,-4.35789 -8.622381,-3.37079 z" />
    <path
       id="path3294"
       style="fill:#ffd9aa;fill-opacity:1;stroke:none;stroke-width:0.750004;stroke-miterlimit:4;stroke-dasharray:none;stroke-opacity:1"
       d="m 156.5302,192.2744 c 0.41437,-0.24614 0.82937,-0.49056 1.24127,-0.7431 0.62383,-0.38247 1.24482,-0.77224 1.8628,-1.16941 l -0.59408,-0.4229 0.64431,0.37205 c 0.77133,-0.49519 1.53582,-1.00051 2.29337,-1.51591 0.75754,-0.5154 1.50814,-1.0408 2.25146,-1.57608 0.74332,-0.53528 1.47938,-1.0804 2.20804,-1.63523 0.72867,-0.55482 1.4499,-1.11934 2.1635,-1.69338 0.71359,-0.57404 1.41956,-1.15762 2.11766,-1.75052 0.6981,-0.59291 1.38841,-1.19522 2.0706,-1.80667 0.68219,-0.61145 1.35631,-1.232 2.02214,-1.86166 0.66583,-0.62965 1.32336,-1.26838 1.97243,-1.9159 0.54839,-0.54842 1.08991,-1.10251 1.62466,-1.66205 0.53474,-0.55954 1.06265,-1.12449 1.58363,-1.69489 0.52097,-0.57041 1.03501,-1.14624 1.54209,-1.72724 0.50708,-0.58101 1.00723,-1.16724 1.5003,-1.75858 0.49308,-0.59135 0.97918,-1.18775 1.45814,-1.78917 0.47896,-0.60141 0.95076,-1.20789 1.41548,-1.81911 0.46471,-0.61123 0.92232,-1.22731 1.37267,-1.84808 0.45035,-0.62077 0.89339,-1.24621 1.32926,-1.87626 0.43587,-0.63005 0.86456,-1.26463 1.28584,-1.9037 0.42126,-0.63907 0.8351,-1.28257 1.24165,-1.93039 0.40655,-0.64781 0.80576,-1.3 1.19747,-1.95631 0.19326,-0.32381 0.37915,-0.65165 0.56879,-0.97746 -7.73152,-8.07778 -15.47751,-16.45611 -21.76891,-25.51766 -1.76659,-2.67592 -3.74277,-6.36436 -13.05669,-24.25322 -5.77767,-11.191973 -6.453,-12.097835 -9.69535,-14.520745 -5.84554,-4.299872 -10.92321,-8.176174 -20.94513,-15.778758 -10.68717,-8.196837 -12.9302,-9.608731 -16.65112,-10.588233 -2.10248,-0.536484 -4.03799,-0.798168 -5.88505,-0.741345 -4.06354,0.125014 -7.69951,1.791639 -11.746059,5.465545 -9.53995,8.299783 -14.46963,16.382097 -15.396504,24.93075 -0.590484,4.480846 2.14252,10.300276 9.610511,20.656266 3.782691,5.35919 5.122149,6.43952 7.900512,6.32457 2.909138,0.0233 4.091108,-1.09619 5.1271,-4.0288 1.00042,-2.87565 1.4551,-6.53518 0.73492,-11.84613 -0.18204,-0.20396 -0.34836,-0.37474 -0.54525,-0.61723 -0.18657,-0.22981 -0.37779,-0.4766 -0.57029,-0.73946 -0.192495,-0.26286 -0.386336,-0.54181 -0.577595,-0.83623 -0.191242,-0.29443 -0.379939,-0.60427 -0.562732,-0.92876 -0.182801,-0.32451 -0.359707,-0.66367 -0.526868,-1.01674 -0.167162,-0.35307 -0.324644,-0.71992 -0.468975,-1.10006 -0.144322,-0.38014 -0.275364,-0.773632 -0.389674,-1.17935 -0.114309,-0.405717 -0.211877,-0.823677 -0.288992,-1.253483 -0.07705,-0.429806 -0.133678,-0.871322 -0.16639,-1.32372 -0.03269,-0.452389 -0.04142,-0.915688 -0.0225,-1.389163 0.0095,-0.236746 0.02571,-0.476083 0.04932,-0.717807 0.02369,-0.241733 0.05474,-0.486001 0.09352,-0.732537 0.0776,-0.493064 0.170302,-0.965225 0.277026,-1.417109 0.106724,-0.451875 0.227544,-0.883401 0.361241,-1.295144 0.133687,-0.411738 0.280341,-0.803679 0.438879,-1.176331 0.158548,-0.372653 0.328979,-0.726035 0.510256,-1.060662 0.181286,-0.334619 0.3734,-0.65049 0.575331,-0.948131 0.201913,-0.297649 0.413533,-0.57704 0.633978,-0.838768 0.220445,-0.26172 0.449735,-0.505796 0.686595,-0.732653 0.23686,-0.226858 0.48137,-0.436407 0.73253,-0.629452 0.25116,-0.193043 0.50895,-0.369604 0.77231,-0.529885 0.26336,-0.160289 0.53234,-0.304274 0.80579,-0.432848 0.27343,-0.128584 0.55142,-0.241654 0.83284,-0.339588 0.28142,-0.09793 0.5662,-0.180872 0.85349,-0.249213 0.28729,-0.06834 0.57704,-0.122059 0.86809,-0.16186 0.29104,-0.03979 0.58345,-0.0656 0.87614,-0.07791 0.29269,-0.0123 0.58556,-0.01123 0.87778,0.0029 0.29222,0.01412 0.58372,0.04131 0.87337,0.08081 0.14482,0.01975 0.3021,0.05876 0.47085,0.11643 0.16876,0.05766 0.34896,0.134086 0.53946,0.228192 0.19051,0.0941 0.39143,0.205983 0.60151,0.335049 0.21008,0.129067 0.4294,0.275214 0.65689,0.437758 0.2275,0.162544 0.46324,0.341514 0.70598,0.536055 0.24273,0.194546 0.49245,0.404641 0.74826,0.629701 0.51161,0.450125 1.04711,0.959893 1.59798,1.523211 0.55086,0.563328 1.1171,1.180248 1.68986,1.844931 0.57275,0.66468 1.15211,1.37706 1.72938,2.131259 0.28863,0.377103 0.57692,0.7646 0.86342,1.161859 0.28652,0.39725 0.57127,0.804308 0.85349,1.220256 0.28221,0.415939 0.56164,0.84086 0.83738,1.274 0.27574,0.43314 0.54787,0.874481 0.81498,1.323334 0.2671,0.448862 0.52936,0.905301 0.78564,1.368399 0.25629,0.463097 0.50659,0.932825 0.7499,1.408678 0.24331,0.475862 0.47957,0.957792 0.70773,1.444932 0.22816,0.48714 0.44819,0.97958 0.65903,1.47651 0.21084,0.49694 0.41243,0.99833 0.60378,1.50359 0.19134,0.50526 0.37254,1.01438 0.54222,1.52647 0.16969,0.51211 0.32791,1.02729 0.47375,1.54475 0.14585,0.51745 0.27916,1.03723 0.39899,1.55858 0.11984,0.52134 0.22615,1.04415 0.31782,1.56789 0.0917,0.52375 0.16864,1.04839 0.22995,1.57306 0.0613,0.52466 0.10701,1.04945 0.13581,1.57356 0.0288,0.52409 0.0408,1.04746 0.0349,1.56953 -0.006,0.52206 -0.0296,1.04268 -0.0724,1.56122 -0.0428,0.51855 -0.10449,1.03497 -0.18629,1.54851 -0.0818,0.51355 -0.18373,1.0242 -0.30673,1.53127 -0.12299,0.50707 -0.2671,1.01064 -0.43347,1.50974 -0.16637,0.49911 -0.34586,0.99007 -0.53745,1.47288 -0.19159,0.4828 -0.39531,0.95745 -0.61057,1.42403 -0.21525,0.46656 -0.44193,0.92504 -0.67929,1.37544 -0.23735,0.45041 -0.48532,0.89269 -0.74323,1.32699 -0.25791,0.43431 -0.52573,0.86063 -0.80263,1.27891 -0.27691,0.41828 -0.56292,0.82863 -0.85727,1.23096 -0.29434,0.40232 -0.59711,0.79656 -0.90735,1.183 -0.31024,0.38644 -0.62799,0.76506 -0.95255,1.13568 -0.32457,0.37062 -0.65584,0.73323 -0.99319,1.0881 -0.33735,0.35486 -0.68076,0.70183 -1.02933,1.04102 -0.34857,0.33919 -0.7023,0.67062 -1.06053,0.99421 -0.35824,0.32358 -0.721,0.63946 -1.08735,0.9475 -0.36635,0.30805 -0.73634,0.60837 -1.10924,0.90094 -0.3729,0.29258 -0.74871,0.57733 -1.12661,0.8545 -0.37791,0.27717 -0.75798,0.54658 -1.13933,0.80842 -0.38135,0.26186 -0.76388,0.51603 -1.14714,0.76262 -0.76649,0.49316 -1.5352,0.95599 -2.29991,1.38853 -0.76473,0.43255 -1.52562,0.83483 -2.27614,1.2073 -0.75052,0.37247 -1.49071,0.71522 -2.21458,1.02819 -0.72388,0.31296 -1.43138,0.5962 -2.11617,0.85021 -0.6848,0.25402 -1.346844,0.47864 -1.980097,0.67426 -0.63328,0.19562 -1.237751,0.36228 -1.80704,0.50006 -0.569297,0.13777 -1.103449,0.24663 -1.596338,0.32712 -0.492889,0.0804 -0.944479,0.13256 -1.348516,0.15633 -0.202013,0.0118 -0.415415,0.007 -0.639139,-0.0123 -0.223724,-0.0198 -0.457817,-0.0551 -0.701442,-0.10459 -0.243625,-0.0495 -0.496875,-0.11349 -0.758592,-0.19069 -0.261717,-0.0772 -0.531926,-0.16764 -0.809935,-0.27048 -0.277999,-0.10284 -0.563658,-0.2179 -0.856122,-0.34436 -0.292483,-0.12648 -0.591651,-0.26439 -0.896789,-0.41246 -0.610293,-0.29615 -1.24428,-0.63347 -1.894385,-1.0039 -0.650114,-0.37043 -1.316474,-0.77385 -1.991935,-1.20238 -0.67547,-0.42854 -1.359931,-0.88221 -2.046312,-1.35267 -0.68638,-0.47047 -1.374689,-0.95791 -2.057506,-1.45411 -0.682818,-0.49622 -1.360244,-1.00107 -2.025033,-1.50686 -0.66479,-0.50578 -1.316952,-1.01232 -1.949268,-1.5115 -0.632307,-0.49919 -1.244703,-0.99106 -1.830063,-1.46746 -1.170738,-0.95281 -2.2332,-1.84392 -3.129382,-2.60854 -0.896182,-0.76463 -1.626084,-1.40281 -2.132014,-1.84984 -0.505939,-0.44701 -0.787915,-0.70294 -0.787915,-0.70294 -4.967665,0.59011 -9.657981,3.20542 -11.721007,6.6605 -1.656289,3.03751 -1.646665,4.45524 -0.02819,6.5783 1.427156,1.40813 2.177253,2.1336 6.486547,3.69639 17.599364,6.36247 29.64278,14.02415 41.204283,21.76262 12.56865,8.48924 29.59597,9.00294 39.34162,15.7595 4.34971,2.98089 8.07703,5.92297 11.29345,8.752 z" />
    <path
       id="path10187-3-1"
       style="fill:#ffc580;fill-opacity:1;stroke:none;stroke-width:0.750007;stroke-miterlimit:4;stroke-dasharray:none;stroke-opacity:1"
       d="m 107.43407,134.06468 1.74701,-32.50289 -0.57407,-1.718298 -0.0186,0.06952 0.57406,1.718178 -1.74397,32.44676 c 0.006,-0.005 0.0102,-0.008 0.0155,-0.0132 z" />
    <path
       id="path3317"
       style="fill:#ffc580;fill-opacity:1;stroke:none;stroke-width:0.750007;stroke-miterlimit:4;stroke-dasharray:none;stroke-opacity:1"
       d="m 47.131224,18.752601 a 102.68326,102.68326 0 0 0 -0.07742,0.05147 102.68326,102.68326 0 0 0 -0.179863,0.120201 102.68326,102.68326 0 0 0 -0.179477,0.120705 102.68326,102.68326 0 0 0 -0.179358,0.120956 102.68326,102.68326 0 0 0 -0.178981,0.121333 102.68326,102.68326 0 0 0 -0.178852,0.121838 102.68326,102.68326 0 0 0 -0.178605,0.122088 102.68326,102.68326 0 0 0 -0.178228,0.122466 102.68326,102.68326 0 0 0 -0.177971,0.122843 102.68326,102.68326 0 0 0 -0.177842,0.123223 102.68326,102.68326 0 0 0 -0.177475,0.123726 102.68326,102.68326 0 0 0 -0.177218,0.123975 102.68326,102.68326 0 0 0 -0.177089,0.124354 102.68326,102.68326 0 0 0 -0.176713,0.124731 102.68326,102.68326 0 0 0 -0.176465,0.12511 102.68326,102.68326 0 0 0 -0.176079,0.125486 102.68326,102.68326 0 0 0 -0.175959,0.125867 102.68326,102.68326 0 0 0 -0.175703,0.126241 102.68326,102.68326 0 0 0 -0.175335,0.126494 102.68326,102.68326 0 0 0 -0.175207,0.126999 102.68326,102.68326 0 0 0 -0.17482,0.127373 102.68326,102.68326 0 0 0 -0.174573,0.127627 102.68326,102.68326 0 0 0 -0.174325,0.128131 102.68326,102.68326 0 0 0 -0.174068,0.128382 102.68326,102.68326 0 0 0 -0.173829,0.128883 102.68326,102.68326 0 0 0 -0.173434,0.129138 102.68326,102.68326 0 0 0 -0.173315,0.129514 102.68326,102.68326 0 0 0 -0.172938,0.129892 102.68326,102.68326 0 0 0 -0.172691,0.13027 102.68326,102.68326 0 0 0 -0.172433,0.130647 102.68326,102.68326 0 0 0 -0.172185,0.131027 102.68326,102.68326 0 0 0 -0.171799,0.131275 102.68326,102.68326 0 0 0 -0.171561,0.131783 102.68326,102.68326 0 0 0 -0.171414,0.13203 102.68326,102.68326 0 0 0 -0.170936,0.132411 102.68326,102.68326 0 0 0 -0.170798,0.132785 102.68326,102.68326 0 0 0 -0.170413,0.133166 102.68326,102.68326 0 0 0 -0.170303,0.133542 102.68326,102.68326 0 0 0 -0.169916,0.133795 102.68326,102.68326 0 0 0 -0.169541,0.134298 102.68326,102.68326 0 0 0 -0.169411,0.134548 102.68326,102.68326 0 0 0 -0.169035,0.134927 102.68326,102.68326 0 0 0 -0.168788,0.135305 102.68326,102.68326 0 0 0 -0.16853,0.13568 102.68326,102.68326 0 0 0 -0.168153,0.135936 102.68326,102.68326 0 0 0 -0.167896,0.136436 102.68326,102.68326 0 0 0 -0.167658,0.136688 102.68326,102.68326 0 0 0 -0.167272,0.137067 102.68326,102.68326 0 0 0 -0.167143,0.137445 102.68326,102.68326 0 0 0 -0.166776,0.137695 102.68326,102.68326 0 0 0 -0.1664,0.1382 102.68326,102.68326 0 0 0 -0.166261,0.138452 102.68326,102.68326 0 0 0 -0.165895,0.138828 102.68326,102.68326 0 0 0 -0.165508,0.139206 102.68326,102.68326 0 0 0 -0.16538,0.139459 102.68326,102.68326 0 0 0 -0.165013,0.139834 102.68326,102.68326 0 0 0 -0.164636,0.140214 102.68326,102.68326 0 0 0 -0.16437,0.14059 102.68326,102.68326 0 0 0 -0.164131,0.140969 102.68326,102.68326 0 0 0 -0.163874,0.14122 102.68326,102.68326 0 0 0 -0.163497,0.141598 102.68326,102.68326 0 0 0 -0.16325,0.141975 102.68326,102.68326 0 0 0 -0.162992,0.142227 102.68326,102.68326 0 0 0 -0.162616,0.142605 102.68326,102.68326 0 0 0 -0.162248,0.142981 102.68326,102.68326 0 0 0 -0.162111,0.143359 102.68326,102.68326 0 0 0 -0.161734,0.143612 102.68326,102.68326 0 0 0 -0.161357,0.14399 102.68326,102.68326 0 0 0 -0.16111,0.144366 102.68326,102.68326 0 0 0 -0.160853,0.144618 102.68326,102.68326 0 0 0 -0.160476,0.144998 102.68326,102.68326 0 0 0 -0.160228,0.145373 102.68326,102.68326 0 0 0 -0.159842,0.14575 102.68326,102.68326 0 0 0 -0.159603,0.146004 102.68326,102.68326 0 0 0 -0.159347,0.146381 102.68326,102.68326 0 0 0 -0.158969,0.146632 102.68326,102.68326 0 0 0 -0.158585,0.14701 102.68326,102.68326 0 0 0 -0.158336,0.147388 102.68326,102.68326 0 0 0 -0.158088,0.147763 102.68326,102.68326 0 0 0 -0.157702,0.148016 102.68326,102.68326 0 0 0 -0.157464,0.148269 102.68326,102.68326 0 0 0 -0.157078,0.148773 102.68326,102.68326 0 0 0 -0.15683,0.149024 102.68326,102.68326 0 0 0 -0.156444,0.149275 102.68326,102.68326 0 0 0 -0.156197,0.149779 102.68326,102.68326 0 0 0 -0.155819,0.149903 102.68326,102.68326 0 0 0 -0.155444,0.15041 102.68326,102.68326 0 0 0 -0.155324,0.150658 102.68326,102.68326 0 0 0 -0.154809,0.150914 102.68326,102.68326 0 0 0 -0.154562,0.151414 102.68326,102.68326 0 0 0 -0.154314,0.151542 102.68326,102.68326 0 0 0 -0.153927,0.152044 102.68326,102.68326 0 0 0 -0.15368,0.152294 102.68326,102.68326 0 0 0 -0.153185,0.152549 102.68326,102.68326 0 0 0 -0.153046,0.152926 102.68326,102.68326 0 0 0 -0.15267,0.153303 102.68326,102.68326 0 0 0 -0.152302,0.153554 102.68326,102.68326 0 0 0 -0.152045,0.153932 102.68326,102.68326 0 0 0 -0.15166,0.154185 102.68326,102.68326 0 0 0 -0.151292,0.154563 102.68326,102.68326 0 0 0 -0.151035,0.154813 102.68326,102.68326 0 0 0 -0.150668,0.155191 102.68326,102.68326 0 0 0 -0.150402,0.155568 102.68326,102.68326 0 0 0 -0.150034,0.15582 102.68326,102.68326 0 0 0 -0.149777,0.156072 102.68326,102.68326 0 0 0 -0.1494,0.15645 102.68326,102.68326 0 0 0 -0.149024,0.156701 102.68326,102.68326 0 0 0 -0.148776,0.157078 102.68326,102.68326 0 0 0 -0.14839,0.157457 102.68326,102.68326 0 0 0 -0.148023,0.15771 102.68326,102.68326 0 0 0 -0.147756,0.157959 102.68326,102.68326 0 0 0 -0.14739,0.158338 102.68326,102.68326 0 0 0 -0.147012,0.158589 102.68326,102.68326 0 0 0 -0.146756,0.158966 102.68326,102.68326 0 0 0 -0.146379,0.15922 102.68326,102.68326 0 0 0 -0.146131,0.159597 102.68326,102.68326 0 0 0 -0.145745,0.159847 102.68326,102.68326 0 0 0 -0.145378,0.160099 102.68326,102.68326 0 0 0 -0.145001,0.160479 102.68326,102.68326 0 0 0 -0.144745,0.160853 102.68326,102.68326 0 0 0 -0.144358,0.160981 102.68326,102.68326 0 0 0 -0.143991,0.161484 102.68326,102.68326 0 0 0 -0.143744,0.161611 102.68326,102.68326 0 0 0 -0.143357,0.161987 102.68326,102.68326 0 0 0 -0.142981,0.162366 102.68326,102.68326 0 0 0 -0.142605,0.162618 102.68326,102.68326 0 0 0 -0.142356,0.162867 102.68326,102.68326 0 0 0 -0.141971,0.163122 102.68326,102.68326 0 0 0 -0.141723,0.163496 102.68326,102.68326 0 0 0 -0.141217,0.163876 102.68326,102.68326 0 0 0 -0.14097,0.164003 102.68326,102.68326 0 0 0 -0.140593,0.164378 102.68326,102.68326 0 0 0 -0.140217,0.164759 102.68326,102.68326 0 0 0 -0.13995,0.164882 102.68326,102.68326 0 0 0 -0.139593,0.16526 102.68326,102.68326 0 0 0 -0.139206,0.165637 102.68326,102.68326 0 0 0 -0.13883,0.165888 102.68326,102.68326 0 0 0 -0.138573,0.166141 102.68326,102.68326 0 0 0 -0.138077,0.166395 102.68326,102.68326 0 0 0 -0.13782,0.16677 102.68326,102.68326 0 0 0 -0.137443,0.167023 102.68326,102.68326 0 0 0 -0.137195,0.167274 102.68326,102.68326 0 0 0 -0.13669,0.16765 102.68326,102.68326 0 0 0 -0.136433,0.167778 102.68326,102.68326 0 0 0 -0.136066,0.168282 102.68326,102.68326 0 0 0 -0.135671,0.168406 102.68326,102.68326 0 0 0 -0.135303,0.168785 102.68326,102.68326 0 0 0 -0.135065,0.169035 102.68326,102.68326 0 0 0 -0.134541,0.169289 102.68326,102.68326 0 0 0 -0.134293,0.169539 102.68326,102.68326 0 0 0 -0.133926,0.169917 102.68326,102.68326 0 0 0 -0.13354,0.170169 102.68326,102.68326 0 0 0 -0.133164,0.170421 102.68326,102.68326 0 0 0 -0.132796,0.170672 102.68326,102.68326 0 0 0 -0.13253,0.171049 102.68326,102.68326 0 0 0 -0.132163,0.171303 102.68326,102.68326 0 0 0 -0.131648,0.171554 102.68326,102.68326 0 0 0 -0.1314,0.171804 102.68326,102.68326 0 0 0 -0.131024,0.172057 102.68326,102.68326 0 0 0 -0.130776,0.172435 102.68326,102.68326 0 0 0 -0.130271,0.172687 102.68326,102.68326 0 0 0 -0.129894,0.172936 102.68326,102.68326 0 0 0 -0.129646,0.173191 102.68326,102.68326 0 0 0 -0.129132,0.173441 102.68326,102.68326 0 0 0 -0.128884,0.173819 102.68326,102.68326 0 0 0 -0.128508,0.173944 102.68326,102.68326 0 0 0 -0.128002,0.174323 102.68326,102.68326 0 0 0 -0.127755,0.174574 102.68326,102.68326 0 0 0 -0.127377,0.174827 102.68326,102.68326 0 0 0 -0.126993,0.175078 102.68326,102.68326 0 0 0 -0.126744,0.175455 102.68326,102.68326 0 0 0 -0.126248,0.17558 102.68326,102.68326 0 0 0 -0.125863,0.175959 102.68326,102.68326 0 0 0 -0.125486,0.176084 102.68326,102.68326 0 0 0 -0.125229,0.176461 102.68326,102.68326 0 0 0 -0.124742,0.176714 102.68326,102.68326 0 0 0 -0.124476,0.176966 102.68326,102.68326 0 0 0 -0.12398,0.177219 102.68326,102.68326 0 0 0 -0.123594,0.17747 102.68326,102.68326 0 0 0 -0.123346,0.17772 102.68326,102.68326 0 0 0 -0.12297,0.177971 102.68326,102.68326 0 0 0 -0.122474,0.178225 102.68326,102.68326 0 0 0 -0.122216,0.178602 102.68326,102.68326 0 0 0 -0.121703,0.178727 102.68326,102.68326 0 0 0 -0.04629,0.06835 c 2.29778,2.121362 4.390846,4.116837 6.188261,5.917271 13.057272,11.970353 22.775397,28.07201 27.722554,42.802014 3.208353,9.66925 3.438818,10.29948 5.646404,14.16039 3.82895,6.45254 10.839345,13.16376 16.93597,17.59436 v 0 c 2.087685,1.10794 5.475937,3.84333 8.122798,5.42552 10.845632,6.85061 13.995347,7.42759 20.809931,3.63773 1.04402,-0.56454 1.87978,-1.12631 2.92321,-2.02893 l 1.74397,-32.44676 -0.57406,-1.718181 0.0185,-0.06952 0.57407,1.718301 -1.747,32.50289 c 1.21828,-1.05587 2.72514,-2.58347 5.22729,-5.20991 9.08902,-10.00617 10.7896,-14.28465 8.01329,-21.7416 -2.85618,-7.664176 -7.80856,-15.545072 -11.78081,-18.846327 -2.06189,-2.164416 -3.17236,-1.928706 -4.93363,0.02517 -2.6325,2.619413 -2.82534,4.894816 -1.36852,12.408487 2.18953,10.93681 1.54039,17.50226 -1.96853,21.02353 -2.091177,2.10418 -4.657323,2.66885 -7.426887,1.99006 -3.040013,-0.97602 -4.717783,-2.62647 -9.870416,-9.87219 -4.492583,-6.62686 -7.593219,-12.89781 -7.98372,-15.967693 -0.504469,-4.18716 1.961602,-12.499468 5.491218,-18.156967 0.739389,-1.61847 3.797974,-4.722853 7.545584,-8.462256 5.9018,-5.904593 6.287634,-6.193415 9.214415,-7.347845 16.299896,-4.367545 26.451536,6.738748 36.685866,14.420809 3.10351,2.132594 5.78782,4.315582 6.38537,4.470077 1.57225,0.566972 7.22406,-1.317615 9.61189,-3.192682 2.749,-1.724847 4.76617,-4.796829 4.71754,-7.007005 -0.015,-2.589714 -1.71858,-4.109735 -5.56133,-5.543957 -9.47399,-3.76017 -29.3067,-17.78689 -37.29778,-22.166883 C 84.808696,38.366117 65.72296,30.728401 51.186782,22.128119 49.761637,20.968908 48.422076,19.848777 47.131289,18.752557 Z" />
  </g>
</svg>
