<?xml version="1.0" encoding="UTF-8" standalone="no"?>
<svg
   xmlns:osb="http://www.openswatchbook.org/uri/2009/osb"
   xmlns:dc="http://purl.org/dc/elements/1.1/"
   xmlns:cc="http://creativecommons.org/ns#"
   xmlns:rdf="http://www.w3.org/1999/02/22-rdf-syntax-ns#"
   xmlns:svg="http://www.w3.org/2000/svg"
   xmlns="http://www.w3.org/2000/svg"
   xmlns:xlink="http://www.w3.org/1999/xlink"
   xmlns:sodipodi="http://sodipodi.sourceforge.net/DTD/sodipodi-0.dtd"
   xmlns:inkscape="http://www.inkscape.org/namespaces/inkscape"
   sodipodi:docname="Terrorism.svg"
   inkscape:version="1.0 (4035a4fb49, 2020-05-01)"
   id="svg8"
   version="1.1"
   viewBox="0 0 210 210"
   height="210mm"
   width="210mm">
  <defs
     id="defs2">
    <linearGradient
       id="linearGradient1496"
       inkscape:collect="always">
      <stop
         id="stop1492"
         offset="0"
         style="stop-color:#ffffff;stop-opacity:1;" />
      <stop
         id="stop1494"
         offset="1"
         style="stop-color:#ffffff;stop-opacity:0;" />
    </linearGradient>
    <linearGradient
       osb:paint="solid"
       id="linearGradient6086">
      <stop
         id="stop6084"
         offset="0"
         style="stop-color:#000000;stop-opacity:1;" />
    </linearGradient>
    <clipPath
       id="clipPath1660"
       clipPathUnits="userSpaceOnUse">
      <path
         inkscape:connector-curvature="0"
         id="path1658"
         d="M 0,0 H 596 V 842 H 0 Z" />
    </clipPath>
    <clipPath
       id="clipPath1676"
       clipPathUnits="userSpaceOnUse">
      <path
         inkscape:connector-curvature="0"
         id="path1674"
         d="M 0,0 H 596 V 842 H 0 Z" />
    </clipPath>
    <clipPath
       id="clipPath1692"
       clipPathUnits="userSpaceOnUse">
      <path
         inkscape:connector-curvature="0"
         id="path1690"
         d="M 0,0 H 596 V 842 H 0 Z" />
    </clipPath>
    <clipPath
       id="clipPath1712"
       clipPathUnits="userSpaceOnUse">
      <path
         inkscape:connector-curvature="0"
         id="path1710"
         d="M 0,0 H 596 V 842 H 0 Z" />
    </clipPath>
    <clipPath
       id="clipPath1732"
       clipPathUnits="userSpaceOnUse">
      <path
         inkscape:connector-curvature="0"
         id="path1730"
         d="M 0,0 H 596 V 842 H 0 Z" />
    </clipPath>
    <clipPath
       id="clipPath1752"
       clipPathUnits="userSpaceOnUse">
      <path
         inkscape:connector-curvature="0"
         id="path1750"
         d="M 0,0 H 596 V 842 H 0 Z" />
    </clipPath>
    <clipPath
       id="clipPath1768"
       clipPathUnits="userSpaceOnUse">
      <path
         inkscape:connector-curvature="0"
         id="path1766"
         d="M 0,0 H 596 V 842 H 0 Z" />
    </clipPath>
    <clipPath
       id="clipPath1784"
       clipPathUnits="userSpaceOnUse">
      <path
         inkscape:connector-curvature="0"
         id="path1782"
         d="M 0,0 H 596 V 842 H 0 Z" />
    </clipPath>
    <clipPath
       id="clipPath1800"
       clipPathUnits="userSpaceOnUse">
      <path
         inkscape:connector-curvature="0"
         id="path1798"
         d="M 0,0 H 596 V 842 H 0 Z" />
    </clipPath>
    <clipPath
       id="clipPath1816"
       clipPathUnits="userSpaceOnUse">
      <path
         inkscape:connector-curvature="0"
         id="path1814"
         d="M 0,0 H 596 V 842 H 0 Z" />
    </clipPath>
    <clipPath
       id="clipPath1832"
       clipPathUnits="userSpaceOnUse">
      <path
         inkscape:connector-curvature="0"
         id="path1830"
         d="M 0,0 H 596 V 842 H 0 Z" />
    </clipPath>
    <clipPath
       id="clipPath1848"
       clipPathUnits="userSpaceOnUse">
      <path
         inkscape:connector-curvature="0"
         id="path1846"
         d="M 0,0 H 596 V 842 H 0 Z" />
    </clipPath>
    <clipPath
       id="clipPath1864"
       clipPathUnits="userSpaceOnUse">
      <path
         inkscape:connector-curvature="0"
         id="path1862"
         d="M 0,0 H 596 V 842 H 0 Z" />
    </clipPath>
    <clipPath
       id="clipPath1880"
       clipPathUnits="userSpaceOnUse">
      <path
         inkscape:connector-curvature="0"
         id="path1878"
         d="M 0,0 H 596 V 842 H 0 Z" />
    </clipPath>
    <clipPath
       id="clipPath1896"
       clipPathUnits="userSpaceOnUse">
      <path
         inkscape:connector-curvature="0"
         id="path1894"
         d="M 0,0 H 596 V 842 H 0 Z" />
    </clipPath>
    <clipPath
       id="clipPath2052"
       clipPathUnits="userSpaceOnUse">
      <path
         inkscape:connector-curvature="0"
         id="path2050"
         d="M 0,0 H 596 V 842 H 0 Z" />
    </clipPath>
    <clipPath
       id="clipPath2068"
       clipPathUnits="userSpaceOnUse">
      <path
         inkscape:connector-curvature="0"
         id="path2066"
         d="M 0,0 H 596 V 842 H 0 Z" />
    </clipPath>
    <clipPath
       clipPathUnits="userSpaceOnUse"
       id="clipPath1504">
      <path
         d="M 0,0 H 596 V 842 H 0 Z"
         id="path1502-8"
         inkscape:connector-curvature="0" />
    </clipPath>
    <clipPath
       clipPathUnits="userSpaceOnUse"
       id="clipPath1520">
      <path
         d="M 0,0 H 596 V 842 H 0 Z"
         id="path1518"
         inkscape:connector-curvature="0" />
    </clipPath>
    <clipPath
       clipPathUnits="userSpaceOnUse"
       id="clipPath1536">
      <path
         d="M 0,0 H 596 V 842 H 0 Z"
         id="path1534"
         inkscape:connector-curvature="0" />
    </clipPath>
    <clipPath
       clipPathUnits="userSpaceOnUse"
       id="clipPath1552">
      <path
         d="M 0,0 H 596 V 842 H 0 Z"
         id="path1550"
         inkscape:connector-curvature="0" />
    </clipPath>
    <clipPath
       clipPathUnits="userSpaceOnUse"
       id="clipPath1568">
      <path
         d="M 0,0 H 596 V 842 H 0 Z"
         id="path1566"
         inkscape:connector-curvature="0" />
    </clipPath>
    <clipPath
       clipPathUnits="userSpaceOnUse"
       id="clipPath1584">
      <path
         d="M 0,0 H 596 V 842 H 0 Z"
         id="path1582"
         inkscape:connector-curvature="0" />
    </clipPath>
    <clipPath
       clipPathUnits="userSpaceOnUse"
       id="clipPath1600">
      <path
         d="M 0,0 H 596 V 842 H 0 Z"
         id="path1598"
         inkscape:connector-curvature="0" />
    </clipPath>
    <clipPath
       clipPathUnits="userSpaceOnUse"
       id="clipPath1616">
      <path
         d="M 0,0 H 596 V 842 H 0 Z"
         id="path1614"
         inkscape:connector-curvature="0" />
    </clipPath>
    <clipPath
       clipPathUnits="userSpaceOnUse"
       id="clipPath1632">
      <path
         d="M 0,0 H 596 V 842 H 0 Z"
         id="path1630"
         inkscape:connector-curvature="0" />
    </clipPath>
    <clipPath
       clipPathUnits="userSpaceOnUse"
       id="clipPath1648">
      <path
         d="M 0,0 H 596 V 842 H 0 Z"
         id="path1646"
         inkscape:connector-curvature="0" />
    </clipPath>
    <clipPath
       clipPathUnits="userSpaceOnUse"
       id="clipPath1664">
      <path
         d="M 0,0 H 596 V 842 H 0 Z"
         id="path1662-3"
         inkscape:connector-curvature="0" />
    </clipPath>
    <clipPath
       clipPathUnits="userSpaceOnUse"
       id="clipPath1680">
      <path
         d="M 0,0 H 596 V 842 H 0 Z"
         id="path1678-3"
         inkscape:connector-curvature="0" />
    </clipPath>
    <clipPath
       clipPathUnits="userSpaceOnUse"
       id="clipPath1696">
      <path
         d="M 0,0 H 596 V 842 H 0 Z"
         id="path1694-7"
         inkscape:connector-curvature="0" />
    </clipPath>
    <clipPath
       clipPathUnits="userSpaceOnUse"
       id="clipPath1712-4">
      <path
         d="M 0,0 H 596 V 842 H 0 Z"
         id="path1710-3"
         inkscape:connector-curvature="0" />
    </clipPath>
    <clipPath
       clipPathUnits="userSpaceOnUse"
       id="clipPath1728">
      <path
         d="M 0,0 H 596 V 842 H 0 Z"
         id="path1726"
         inkscape:connector-curvature="0" />
    </clipPath>
    <clipPath
       clipPathUnits="userSpaceOnUse"
       id="clipPath1744">
      <path
         d="M 0,0 H 596 V 842 H 0 Z"
         id="path1742"
         inkscape:connector-curvature="0" />
    </clipPath>
    <clipPath
       clipPathUnits="userSpaceOnUse"
       id="clipPath1760">
      <path
         d="M 0,0 H 596 V 842 H 0 Z"
         id="path1758"
         inkscape:connector-curvature="0" />
    </clipPath>
    <clipPath
       clipPathUnits="userSpaceOnUse"
       id="clipPath1776">
      <path
         d="M 0,0 H 596 V 842 H 0 Z"
         id="path1774"
         inkscape:connector-curvature="0" />
    </clipPath>
    <clipPath
       clipPathUnits="userSpaceOnUse"
       id="clipPath1792">
      <path
         d="M 0,0 H 596 V 842 H 0 Z"
         id="path1790"
         inkscape:connector-curvature="0" />
    </clipPath>
    <clipPath
       clipPathUnits="userSpaceOnUse"
       id="clipPath1808">
      <path
         d="M 0,0 H 596 V 842 H 0 Z"
         id="path1806"
         inkscape:connector-curvature="0" />
    </clipPath>
    <clipPath
       id="clipPath1660-5"
       clipPathUnits="userSpaceOnUse">
      <path
         inkscape:connector-curvature="0"
         id="path1658-8"
         d="M 0,0 H 596 V 842 H 0 Z" />
    </clipPath>
    <clipPath
       id="clipPath1676-5"
       clipPathUnits="userSpaceOnUse">
      <path
         inkscape:connector-curvature="0"
         id="path1674-6"
         d="M 0,0 H 596 V 842 H 0 Z" />
    </clipPath>
    <clipPath
       id="clipPath1692-1"
       clipPathUnits="userSpaceOnUse">
      <path
         inkscape:connector-curvature="0"
         id="path1690-8"
         d="M 0,0 H 596 V 842 H 0 Z" />
    </clipPath>
    <clipPath
       id="clipPath1712-5"
       clipPathUnits="userSpaceOnUse">
      <path
         inkscape:connector-curvature="0"
         id="path1710-1"
         d="M 0,0 H 596 V 842 H 0 Z" />
    </clipPath>
    <clipPath
       id="clipPath1732-5"
       clipPathUnits="userSpaceOnUse">
      <path
         inkscape:connector-curvature="0"
         id="path1730-6"
         d="M 0,0 H 596 V 842 H 0 Z" />
    </clipPath>
    <clipPath
       id="clipPath1752-5"
       clipPathUnits="userSpaceOnUse">
      <path
         inkscape:connector-curvature="0"
         id="path1750-8"
         d="M 0,0 H 596 V 842 H 0 Z" />
    </clipPath>
    <clipPath
       id="clipPath1768-1"
       clipPathUnits="userSpaceOnUse">
      <path
         inkscape:connector-curvature="0"
         id="path1766-0"
         d="M 0,0 H 596 V 842 H 0 Z" />
    </clipPath>
    <clipPath
       id="clipPath1784-1"
       clipPathUnits="userSpaceOnUse">
      <path
         inkscape:connector-curvature="0"
         id="path1782-9"
         d="M 0,0 H 596 V 842 H 0 Z" />
    </clipPath>
    <clipPath
       id="clipPath1800-2"
       clipPathUnits="userSpaceOnUse">
      <path
         inkscape:connector-curvature="0"
         id="path1798-9"
         d="M 0,0 H 596 V 842 H 0 Z" />
    </clipPath>
    <clipPath
       id="clipPath1816-6"
       clipPathUnits="userSpaceOnUse">
      <path
         inkscape:connector-curvature="0"
         id="path1814-1"
         d="M 0,0 H 596 V 842 H 0 Z" />
    </clipPath>
    <clipPath
       id="clipPath1832-5"
       clipPathUnits="userSpaceOnUse">
      <path
         inkscape:connector-curvature="0"
         id="path1830-6"
         d="M 0,0 H 596 V 842 H 0 Z" />
    </clipPath>
    <clipPath
       id="clipPath1848-4"
       clipPathUnits="userSpaceOnUse">
      <path
         inkscape:connector-curvature="0"
         id="path1846-6"
         d="M 0,0 H 596 V 842 H 0 Z" />
    </clipPath>
    <clipPath
       id="clipPath1864-9"
       clipPathUnits="userSpaceOnUse">
      <path
         inkscape:connector-curvature="0"
         id="path1862-0"
         d="M 0,0 H 596 V 842 H 0 Z" />
    </clipPath>
    <clipPath
       id="clipPath1880-9"
       clipPathUnits="userSpaceOnUse">
      <path
         inkscape:connector-curvature="0"
         id="path1878-5"
         d="M 0,0 H 596 V 842 H 0 Z" />
    </clipPath>
    <clipPath
       id="clipPath1896-3"
       clipPathUnits="userSpaceOnUse">
      <path
         inkscape:connector-curvature="0"
         id="path1894-3"
         d="M 0,0 H 596 V 842 H 0 Z" />
    </clipPath>
    <clipPath
       id="clipPath2052-1"
       clipPathUnits="userSpaceOnUse">
      <path
         inkscape:connector-curvature="0"
         id="path2050-5"
         d="M 0,0 H 596 V 842 H 0 Z" />
    </clipPath>
    <clipPath
       id="clipPath2068-2"
       clipPathUnits="userSpaceOnUse">
      <path
         inkscape:connector-curvature="0"
         id="path2066-2"
         d="M 0,0 H 596 V 842 H 0 Z" />
    </clipPath>
    <clipPath
       clipPathUnits="userSpaceOnUse"
       id="clipPath1504-7">
      <path
         d="M 0,0 H 596 V 842 H 0 Z"
         id="path1502-8-1"
         inkscape:connector-curvature="0" />
    </clipPath>
    <clipPath
       clipPathUnits="userSpaceOnUse"
       id="clipPath1520-5">
      <path
         d="M 0,0 H 596 V 842 H 0 Z"
         id="path1518-9"
         inkscape:connector-curvature="0" />
    </clipPath>
    <clipPath
       clipPathUnits="userSpaceOnUse"
       id="clipPath1536-8">
      <path
         d="M 0,0 H 596 V 842 H 0 Z"
         id="path1534-7"
         inkscape:connector-curvature="0" />
    </clipPath>
    <clipPath
       clipPathUnits="userSpaceOnUse"
       id="clipPath1552-7">
      <path
         d="M 0,0 H 596 V 842 H 0 Z"
         id="path1550-8"
         inkscape:connector-curvature="0" />
    </clipPath>
    <clipPath
       clipPathUnits="userSpaceOnUse"
       id="clipPath1568-5">
      <path
         d="M 0,0 H 596 V 842 H 0 Z"
         id="path1566-7"
         inkscape:connector-curvature="0" />
    </clipPath>
    <clipPath
       clipPathUnits="userSpaceOnUse"
       id="clipPath1584-9">
      <path
         d="M 0,0 H 596 V 842 H 0 Z"
         id="path1582-6"
         inkscape:connector-curvature="0" />
    </clipPath>
    <clipPath
       clipPathUnits="userSpaceOnUse"
       id="clipPath1600-6">
      <path
         d="M 0,0 H 596 V 842 H 0 Z"
         id="path1598-0"
         inkscape:connector-curvature="0" />
    </clipPath>
    <clipPath
       clipPathUnits="userSpaceOnUse"
       id="clipPath1616-2">
      <path
         d="M 0,0 H 596 V 842 H 0 Z"
         id="path1614-2"
         inkscape:connector-curvature="0" />
    </clipPath>
    <clipPath
       clipPathUnits="userSpaceOnUse"
       id="clipPath1632-7">
      <path
         d="M 0,0 H 596 V 842 H 0 Z"
         id="path1630-6"
         inkscape:connector-curvature="0" />
    </clipPath>
    <clipPath
       clipPathUnits="userSpaceOnUse"
       id="clipPath1648-4">
      <path
         d="M 0,0 H 596 V 842 H 0 Z"
         id="path1646-8"
         inkscape:connector-curvature="0" />
    </clipPath>
    <clipPath
       clipPathUnits="userSpaceOnUse"
       id="clipPath1664-2">
      <path
         d="M 0,0 H 596 V 842 H 0 Z"
         id="path1662-3-8"
         inkscape:connector-curvature="0" />
    </clipPath>
    <clipPath
       clipPathUnits="userSpaceOnUse"
       id="clipPath1680-1">
      <path
         d="M 0,0 H 596 V 842 H 0 Z"
         id="path1678-3-9"
         inkscape:connector-curvature="0" />
    </clipPath>
    <clipPath
       clipPathUnits="userSpaceOnUse"
       id="clipPath1696-3">
      <path
         d="M 0,0 H 596 V 842 H 0 Z"
         id="path1694-7-7"
         inkscape:connector-curvature="0" />
    </clipPath>
    <clipPath
       clipPathUnits="userSpaceOnUse"
       id="clipPath1712-4-9">
      <path
         d="M 0,0 H 596 V 842 H 0 Z"
         id="path1710-3-0"
         inkscape:connector-curvature="0" />
    </clipPath>
    <clipPath
       clipPathUnits="userSpaceOnUse"
       id="clipPath1728-4">
      <path
         d="M 0,0 H 596 V 842 H 0 Z"
         id="path1726-9"
         inkscape:connector-curvature="0" />
    </clipPath>
    <clipPath
       clipPathUnits="userSpaceOnUse"
       id="clipPath1744-3">
      <path
         d="M 0,0 H 596 V 842 H 0 Z"
         id="path1742-8"
         inkscape:connector-curvature="0" />
    </clipPath>
    <clipPath
       clipPathUnits="userSpaceOnUse"
       id="clipPath1760-3">
      <path
         d="M 0,0 H 596 V 842 H 0 Z"
         id="path1758-1"
         inkscape:connector-curvature="0" />
    </clipPath>
    <clipPath
       clipPathUnits="userSpaceOnUse"
       id="clipPath1776-7">
      <path
         d="M 0,0 H 596 V 842 H 0 Z"
         id="path1774-7"
         inkscape:connector-curvature="0" />
    </clipPath>
    <clipPath
       clipPathUnits="userSpaceOnUse"
       id="clipPath1792-9">
      <path
         d="M 0,0 H 596 V 842 H 0 Z"
         id="path1790-5"
         inkscape:connector-curvature="0" />
    </clipPath>
    <clipPath
       clipPathUnits="userSpaceOnUse"
       id="clipPath1808-1">
      <path
         d="M 0,0 H 596 V 842 H 0 Z"
         id="path1806-8"
         inkscape:connector-curvature="0" />
    </clipPath>
    <linearGradient
       gradientTransform="scale(0.26458333)"
       gradientUnits="userSpaceOnUse"
       y2="-1387.1982"
       x2="-4242.354"
       y1="-1387.1982"
       x1="-4352.1968"
       id="linearGradient1498"
       xlink:href="#linearGradient1496"
       inkscape:collect="always" />
    <clipPath
       clipPathUnits="userSpaceOnUse"
       id="clipPath2839">
      <path
         d="M 0,0 H 596 V 842 H 0 Z"
         id="path2837"
         inkscape:connector-curvature="0" />
    </clipPath>
    <clipPath
       clipPathUnits="userSpaceOnUse"
       id="clipPath2855">
      <path
         d="M 0,0 H 596 V 842 H 0 Z"
         id="path2853"
         inkscape:connector-curvature="0" />
    </clipPath>
  </defs>
  <sodipodi:namedview
     inkscape:document-rotation="0"
     showguides="true"
     inkscape:window-maximized="1"
     inkscape:window-y="-8"
     inkscape:window-x="-8"
     inkscape:window-height="1017"
     inkscape:window-width="1920"
     showgrid="false"
     inkscape:current-layer="layer1"
     inkscape:document-units="mm"
     inkscape:cy="1625.4953"
     inkscape:cx="2910.4074"
     inkscape:zoom="0.088388349"
     inkscape:pageshadow="2"
     inkscape:pageopacity="0.0"
     borderopacity="1.0"
     bordercolor="#666666"
     pagecolor="#ffffff"
     id="base" />
  <metadata
     id="metadata5">
    <rdf:RDF>
      <cc:Work
         rdf:about="">
        <dc:format>image/svg+xml</dc:format>
        <dc:type
           rdf:resource="http://purl.org/dc/dcmitype/StillImage" />
        <dc:title></dc:title>
      </cc:Work>
    </rdf:RDF>
  </metadata>
  <g
     id="layer1"
     inkscape:groupmode="layer"
     inkscape:label="Layer 1">
    <circle
       r="101.10863"
       cy="105.12859"
       cx="105.53176"
       id="path1279-3-2-2"
       style="opacity:0.99;fill:#ed1d26;fill-opacity:0.976471;stroke:none;stroke-width:0.3;stroke-linecap:round;stroke-linejoin:round;stroke-miterlimit:4.98667;stroke-dasharray:none;stroke-dashoffset:0;stroke-opacity:1;paint-order:fill markers stroke" />
    <text
       id="text1557"
       y="252.37238"
       x="63.384426"
       style="font-style:normal;font-weight:normal;font-size:14.1111px;line-height:1.25;font-family:sans-serif;text-align:start;letter-spacing:0px;word-spacing:0px;text-anchor:start;fill:#000000;fill-opacity:1;stroke:none;stroke-width:0.264583"
       xml:space="preserve"><tspan
         style="stroke:none;stroke-width:0.264583"
         y="252.37238"
         x="63.384426"
         id="tspan1555"
         sodipodi:role="line">TERRORISM</tspan></text>
    <g
       transform="translate(-1170.7618,-1821.1715)"
       id="g922" />
    <g
       transform="matrix(0.35277777,0,0,0.35277777,-1143.1293,-1214.9265)"
       id="g2835" />
    <g
       transform="matrix(0.35277777,0,0,0.35277777,-1143.1293,-1214.9265)"
       id="g2851" />
    <path
       sodipodi:nodetypes="ccccccccccccccccc"
       inkscape:connector-curvature="0"
       id="path4062"
       d="m 205.61117,118.68802 -82.2761,-82.276123 -13.6297,23.1706 -18.959801,16.92156 16.053001,23.010958 -23.283301,-0.79375 17.210301,29.809045 -23.626501,-10.03143 -10.451,-5.22552 -6.2177,0.26459 -14.0891,-6.08542 31.2798,54.17809 -9.1871,15.93649 h -1.0583 l 28.1709,28.17085 c 3.318,0.331 6.650401,0.4976 9.984901,0.4992 50.5565,-0.058 93.2997,-37.44929 100.0797,-87.54914 z"
       style="opacity:0.99;fill:#000000;fill-opacity:0.176768;stroke:none;stroke-width:0.3;stroke-linecap:round;stroke-linejoin:round;stroke-miterlimit:4.98667;stroke-dasharray:none;stroke-dashoffset:0;stroke-opacity:1;paint-order:fill markers stroke" />
    <path
       inkscape:connector-curvature="0"
       id="path3955"
       d="m 105.53187,30.556707 c -3.2736,0.0252 -6.547101,0.46505 -9.634101,1.33173 -6.1287,1.72866 -12.2806,6.08127 -13.3706,12.75939 -2.154,8.27393 -1.9529,16.89989 -3.4429,25.2809 -0.4461,5.14837 0.4966,10.2936 2.5375,15.027948 -3.5813,21.819275 10.3502,32.251625 23.910101,31.253375 13.5599,0.99825 27.4915,-9.4341 23.9101,-31.253375 2.0409,-4.734348 2.9832,-9.879578 2.5372,-15.027948 -1.4901,-8.38101 -1.2886,-17.00697 -3.4425,-25.2809 -1.0901,-6.67812 -7.2419,-11.03073 -13.3707,-12.75939 -3.087,-0.86668 -6.3604,-1.3065 -9.6341,-1.33173 z m -16.749001,27.54986 h 5e-4 c 4.587,-0.0227 8.7638,2.43215 12.574801,4.73117 1.1067,2.47824 -4.703401,3.31774 -6.679701,4.11433 -1.9852,0.32331 -4.0907,0.20669 -5.9494,-0.60729 -3.4629,-1.15911 -4.4028,-7.98406 0.054,-8.23821 z m 33.497601,0 c 4.4572,0.25376 3.5168,7.07906 0.054,8.23821 -1.8587,0.81398 -3.9642,0.9306 -5.9493,0.60729 -1.9763,-0.79659 -7.7865,-1.63609 -6.6798,-4.11433 3.8112,-2.29908 7.9881,-4.754 12.5753,-4.73117 z m -16.7486,23.93044 c 1.7677,0.0305 3.5424,0.3699 5.1337,0.942798 4.9053,1.24302 0.1518,4.86928 -2.5459,5.04558 -0.5205,0.13527 -1.0507,0.23516 -1.5856,0.29289 -0.3126,0.0204 -0.6543,0.0219 -1.0022,0.0164 -0.3478,0.005 -0.6896,0.004 -1.0022,-0.0164 -0.5348,-0.0577 -1.065,-0.15763 -1.5855,-0.29289 -2.6978,-0.1763 -7.451301,-3.80256 -2.5459,-5.04558 1.5912,-0.572908 3.3659,-0.912338 5.1336,-0.942798 z"
       style="fill:#000000;stroke-width:1" />
    <g
       transform="translate(-1042.6875,212.61926)"
       id="g4031">
      <path
         style="fill:#000000;stroke-width:1"
         d="m 1105.6475,-38.237936 c -1.8764,-2.60948 -3.4508,-4.893339 -3.4986,-5.075179 -0.1661,-0.632356 12.9438,-9.903703 15.5245,-10.97904 1.6964,-0.706724 3.6692,-2.083242 5.685,-3.966763 3.023,-2.824114 3.3003,-3.257255 3.3351,-5.21076 0.01,-0.527737 0.4706,-1.756351 1.0228,-2.730759 0.8475,-1.492826 1.9034,-2.268726 6.719,-4.936668 16.1419,-8.9433 18.9768,-10.571853 19.2101,-11.035131 0.1395,-0.277377 -0.1,-1.120045 -0.5316,-1.872603 -0.4453,-0.771353 -0.595,-1.462009 -0.3478,-1.583116 0.2406,-0.117939 0.6042,0.148725 0.8075,0.593027 0.2424,0.531648 0.3941,0.607343 0.4404,0.222926 0.056,-0.3981 0.3882,-0.471242 1.069,-0.227598 0.8059,0.288432 2.9693,-0.75375 11.2331,-5.411289 7.1332,-4.0204 10.3764,-5.62704 10.7015,-5.30147 0.3232,0.32383 1.952,-0.37729 5.3096,-2.28538 3.1129,-1.769344 5.064,-2.627241 5.4619,-2.402071 0.3405,0.19261 1.2903,0.497037 2.1112,0.676137 1.2744,0.278104 2.0982,-0.0101 5.6376,-1.972797 2.2798,-1.26414 4.2235,-2.35349 4.3196,-2.42073 0.095,-0.0681 -0.049,-1.44827 -0.3216,-3.06904 l -0.4955,-2.9471 1.1267,-0.70253 c 0.6196,-0.38646 1.2483,-0.69502 1.3974,-0.68579 0.1479,0.0104 0.831,1.04787 1.5159,2.30771 0.6943,1.27765 1.4926,2.2227 1.8042,2.13705 0.3078,-0.0846 0.8114,-0.22203 1.1189,-0.30526 0.3078,-0.0831 0.8808,0.39584 1.2742,1.06438 0.7107,1.19771 0.7056,1.22207 -0.2121,1.82723 -0.5101,0.33636 -0.8912,0.80719 -0.8469,1.04636 0.044,0.23933 -5.4392,3.521387 -12.1857,7.294051 -10.6426,5.951183 -12.3532,7.052293 -12.9186,8.315565 -0.4865,1.087088 -1.7568,2.152911 -5.0131,4.206423 -4.9011,3.090895 -6.3118,4.117064 -9.2596,6.736415 -1.5045,1.336808 -2.3777,1.793305 -3.2642,1.706362 -1.1726,-0.11492 -3.4147,0.883143 -6.0841,2.7084 l -1.2957,0.885773 2.0656,1.989679 c 1.1364,1.094253 2.5425,2.297834 3.1245,2.674847 2.115,1.369272 6.5108,3.069573 9.3513,3.616968 l 2.9064,0.56024 -0.1735,1.771307 c -0.097,0.974207 -0.4293,3.069362 -0.7371,4.656141 l -0.5605,2.884978 -3.003,-0.294392 c -6.1974,-0.607456 -11.536,-3.519939 -18.6873,-10.194641 -0.6472,-0.604723 -1.0601,-0.859384 -0.9164,-0.566538 0.1433,0.293212 -0.2178,1.266486 -0.8033,2.163566 -1.1628,1.782009 -5.2761,4.338323 -6.749,4.193646 -0.4922,-0.04834 -1.0067,0.0039 -1.1433,0.116192 -0.3422,0.281195 0.1241,6.5 0.687,9.163359 0.6257,2.95854 0.5542,3.236806 -0.9875,3.85143 -1.8052,0.720036 -3.2214,0.520208 -4.4138,-0.623009 -0.8156,-0.781322 -0.9873,-1.441372 -0.9537,-3.686576 0.05,-3.451245 -0.4759,-4.953773 -2.1679,-6.189287 l -1.3408,-0.97906 -8.0399,8.658937 c -4.422,4.762502 -9.2144,9.91584 -10.6493,11.452079 -1.4349,1.536077 -2.9095,2.821191 -3.2765,2.855591 -0.3895,0.03662 -2.0902,-1.915472 -4.0795,-4.681752 z m 38.9897,-22.896249 c 1.0707,-0.585554 1.9552,-1.148751 1.9652,-1.25137 0.021,-0.200265 -0.6914,-2.046858 -0.903,-2.346613 -0.1867,-0.264744 -4.7883,2.647226 -4.8284,3.055512 -0.076,0.770795 0.8708,2.093795 1.3294,1.858398 0.2691,-0.138373 1.3658,-0.730475 2.4369,-1.315895 z m 24.47,-26.451955 c 0.01,-0.11548 -0.5952,0.07621 -1.3483,0.426937 -0.7531,0.350526 -1.3851,0.8035 -1.4052,1.005266 -0.02,0.201977 0.587,0.01013 1.3485,-0.426958 0.7613,-0.437525 1.3938,-0.889433 1.405,-1.005269 z m 6.0258,-3.410344 c -0.539,-0.240285 -2.8249,1.169883 -2.5128,1.550084 0.123,0.151166 0.8382,-0.09227 1.5879,-0.540393 0.7493,-0.447816 1.1655,-0.902441 0.9249,-1.009691 z m 9.3929,-4.094695 c 1.8271,-1.0157 3.2417,-2.01058 3.1435,-2.21092 -0.2091,-0.42737 -7.5115,3.61687 -7.5676,4.190975 -0.046,0.474646 0.2349,0.348522 4.4241,-1.980055 z"
         id="path4012"
         inkscape:connector-curvature="0"
         sodipodi:nodetypes="ccccccccccccccccccccccccccccccccccscccccccccscccsccsccccccccccscsccscscsccccccsc" />
      <path
         style="fill:#000000;stroke-width:1"
         d="m 1190.791,-38.237937 c 1.8764,-2.60948 3.4508,-4.89334 3.4986,-5.07518 0.1661,-0.632357 -12.9438,-9.903703 -15.5245,-10.979039 -1.6964,-0.706726 -3.6692,-2.083241 -5.685,-3.966763 -3.023,-2.824114 -3.3003,-3.257256 -3.3351,-5.210762 -0.01,-0.527735 -0.4706,-1.756349 -1.0228,-2.730757 -0.8475,-1.492826 -1.9034,-2.268728 -6.719,-4.93667 -16.1419,-8.9433 -18.9768,-10.571853 -19.2101,-11.03513 -0.1395,-0.277376 0.1,-1.120045 0.5316,-1.872602 0.4453,-0.771353 0.595,-1.46201 0.3478,-1.583117 -0.2406,-0.117939 -0.6042,0.148725 -0.8075,0.593028 -0.2424,0.531648 -0.3941,0.607343 -0.4404,0.222924 -0.056,-0.398099 -0.3882,-0.471241 -1.069,-0.227597 -0.8059,0.288433 -2.9693,-0.75375 -11.2331,-5.411289 -7.1332,-4.020405 -10.3764,-5.627045 -10.7015,-5.301475 -0.3232,0.32383 -1.952,-0.37729 -5.3096,-2.28538 -3.1129,-1.76934 -5.064,-2.627244 -5.4619,-2.402074 -0.3405,0.19261 -1.2903,0.497044 -2.1112,0.676144 -1.2744,0.2781 -2.0982,-0.0101 -5.6376,-1.972804 -2.2798,-1.26414 -4.2235,-2.35349 -4.3196,-2.42073 -0.095,-0.0681 0.049,-1.44827 0.3216,-3.06903 l 0.4955,-2.9471 -1.1267,-0.70253 c -0.6196,-0.38646 -1.2483,-0.69502 -1.3974,-0.68579 -0.1479,0.0104 -0.831,1.04787 -1.5159,2.30771 -0.6943,1.27765 -1.4926,2.22269 -1.8042,2.13705 -0.3078,-0.0846 -0.8114,-0.22203 -1.1189,-0.30526 -0.3078,-0.0831 -0.8808,0.39583 -1.2742,1.06437 -0.7107,1.19771 -0.7056,1.22207 0.2121,1.82723 0.5101,0.33636 0.8912,0.80719 0.8469,1.04636 -0.044,0.23933 5.4392,3.521394 12.1857,7.294054 10.6426,5.951188 12.3532,7.052298 12.9186,8.31557 0.4865,1.087088 1.7568,2.152911 5.0131,4.206423 4.9011,3.090895 6.3118,4.117065 9.2596,6.736416 1.5045,1.336808 2.3777,1.793304 3.2642,1.706362 1.1726,-0.114922 3.4147,0.883142 6.0841,2.708399 l 1.2957,0.885772 -2.0656,1.98968 c -1.1364,1.094253 -2.5425,2.297835 -3.1245,2.674848 -2.115,1.369271 -6.5108,3.069571 -9.3513,3.616968 l -2.9064,0.560239 0.1735,1.771306 c 0.097,0.974209 0.4293,3.069363 0.7371,4.656143 l 0.5605,2.884977 3.003,-0.294391 c 6.1974,-0.607457 11.536,-3.51994 18.6873,-10.194642 0.6472,-0.604721 1.0601,-0.859383 0.9164,-0.566537 -0.1433,0.293211 0.2178,1.266487 0.8033,2.163564 1.1628,1.782011 5.2761,4.338326 6.749,4.193646 0.4922,-0.04834 1.0067,0.0039 1.1433,0.116195 0.3422,0.281193 -0.1241,6.5 -0.687,9.163356 -0.6257,2.958542 -0.5542,3.236807 0.9875,3.851432 1.8052,0.720037 3.2214,0.520207 4.4138,-0.62301 0.8156,-0.781322 0.9873,-1.441373 0.9537,-3.686577 -0.05,-3.451243 0.4759,-4.953772 2.1679,-6.189286 l 1.3408,-0.979059 8.0399,8.658936 c 4.422,4.762503 9.2144,9.91584 10.6493,11.45208 1.4349,1.536075 2.9095,2.821191 3.2765,2.85559 0.3895,0.03662 2.0902,-1.915473 4.0795,-4.681752 z m -38.9897,-22.896248 c -1.0707,-0.585555 -1.9552,-1.148752 -1.9652,-1.251371 -0.021,-0.200266 0.6914,-2.046859 0.903,-2.346613 0.1867,-0.264745 4.7883,2.647225 4.8284,3.055511 0.076,0.770795 -0.8708,2.093796 -1.3294,1.858399 -0.2691,-0.138374 -1.3658,-0.730475 -2.4369,-1.315895 z m -24.47,-26.451957 c -0.01,-0.11548 0.5952,0.07621 1.3483,0.426937 0.7531,0.350526 1.3851,0.8035 1.4052,1.005266 0.02,0.201977 -0.587,0.01013 -1.3485,-0.426958 -0.7613,-0.437525 -1.3938,-0.889433 -1.405,-1.005269 z m -6.0258,-3.410344 c 0.539,-0.240285 2.8249,1.169883 2.5128,1.550084 -0.123,0.151166 -0.8382,-0.09227 -1.5879,-0.540393 -0.7493,-0.447816 -1.1655,-0.902441 -0.9249,-1.009691 z m -9.3929,-4.0947 c -1.8271,-1.0157 -3.2417,-2.01058 -3.1435,-2.21092 0.2091,-0.42737 7.5115,3.61687 7.5676,4.19098 0.046,0.47465 -0.2349,0.34852 -4.4241,-1.98006 z"
         id="path4012-5"
         inkscape:connector-curvature="0"
         sodipodi:nodetypes="ccccccccccccccccccccccccccccccccccscccccccccscccsccsccccccccccscsccscscsccccccsc" />
    </g>
  </g>
</svg>
