<?xml version="1.0" encoding="UTF-8" standalone="no"?>
<svg
   xmlns:osb="http://www.openswatchbook.org/uri/2009/osb"
   xmlns:dc="http://purl.org/dc/elements/1.1/"
   xmlns:cc="http://creativecommons.org/ns#"
   xmlns:rdf="http://www.w3.org/1999/02/22-rdf-syntax-ns#"
   xmlns:svg="http://www.w3.org/2000/svg"
   xmlns="http://www.w3.org/2000/svg"
   xmlns:xlink="http://www.w3.org/1999/xlink"
   xmlns:sodipodi="http://sodipodi.sourceforge.net/DTD/sodipodi-0.dtd"
   xmlns:inkscape="http://www.inkscape.org/namespaces/inkscape"
   width="210mm"
   height="210mm"
   viewBox="0 0 210 210"
   version="1.1"
   id="svg8"
   inkscape:version="1.0 (4035a4fb49, 2020-05-01)"
   sodipodi:docname="Virus.svg">
  <defs
     id="defs2">
    <linearGradient
       inkscape:collect="always"
       id="linearGradient1496">
      <stop
         style="stop-color:#ffffff;stop-opacity:1;"
         offset="0"
         id="stop1492" />
      <stop
         style="stop-color:#ffffff;stop-opacity:0;"
         offset="1"
         id="stop1494" />
    </linearGradient>
    <linearGradient
       id="linearGradient6086"
       osb:paint="solid">
      <stop
         style="stop-color:#000000;stop-opacity:1;"
         offset="0"
         id="stop6084" />
    </linearGradient>
    <clipPath
       clipPathUnits="userSpaceOnUse"
       id="clipPath1660">
      <path
         d="M 0,0 H 596 V 842 H 0 Z"
         id="path1658"
         inkscape:connector-curvature="0" />
    </clipPath>
    <clipPath
       clipPathUnits="userSpaceOnUse"
       id="clipPath1676">
      <path
         d="M 0,0 H 596 V 842 H 0 Z"
         id="path1674"
         inkscape:connector-curvature="0" />
    </clipPath>
    <clipPath
       clipPathUnits="userSpaceOnUse"
       id="clipPath1692">
      <path
         d="M 0,0 H 596 V 842 H 0 Z"
         id="path1690"
         inkscape:connector-curvature="0" />
    </clipPath>
    <clipPath
       clipPathUnits="userSpaceOnUse"
       id="clipPath1712">
      <path
         d="M 0,0 H 596 V 842 H 0 Z"
         id="path1710"
         inkscape:connector-curvature="0" />
    </clipPath>
    <clipPath
       clipPathUnits="userSpaceOnUse"
       id="clipPath1732">
      <path
         d="M 0,0 H 596 V 842 H 0 Z"
         id="path1730"
         inkscape:connector-curvature="0" />
    </clipPath>
    <clipPath
       clipPathUnits="userSpaceOnUse"
       id="clipPath1752">
      <path
         d="M 0,0 H 596 V 842 H 0 Z"
         id="path1750"
         inkscape:connector-curvature="0" />
    </clipPath>
    <clipPath
       clipPathUnits="userSpaceOnUse"
       id="clipPath1768">
      <path
         d="M 0,0 H 596 V 842 H 0 Z"
         id="path1766"
         inkscape:connector-curvature="0" />
    </clipPath>
    <clipPath
       clipPathUnits="userSpaceOnUse"
       id="clipPath1784">
      <path
         d="M 0,0 H 596 V 842 H 0 Z"
         id="path1782"
         inkscape:connector-curvature="0" />
    </clipPath>
    <clipPath
       clipPathUnits="userSpaceOnUse"
       id="clipPath1800">
      <path
         d="M 0,0 H 596 V 842 H 0 Z"
         id="path1798"
         inkscape:connector-curvature="0" />
    </clipPath>
    <clipPath
       clipPathUnits="userSpaceOnUse"
       id="clipPath1816">
      <path
         d="M 0,0 H 596 V 842 H 0 Z"
         id="path1814"
         inkscape:connector-curvature="0" />
    </clipPath>
    <clipPath
       clipPathUnits="userSpaceOnUse"
       id="clipPath1832">
      <path
         d="M 0,0 H 596 V 842 H 0 Z"
         id="path1830"
         inkscape:connector-curvature="0" />
    </clipPath>
    <clipPath
       clipPathUnits="userSpaceOnUse"
       id="clipPath1848">
      <path
         d="M 0,0 H 596 V 842 H 0 Z"
         id="path1846"
         inkscape:connector-curvature="0" />
    </clipPath>
    <clipPath
       clipPathUnits="userSpaceOnUse"
       id="clipPath1864">
      <path
         d="M 0,0 H 596 V 842 H 0 Z"
         id="path1862"
         inkscape:connector-curvature="0" />
    </clipPath>
    <clipPath
       clipPathUnits="userSpaceOnUse"
       id="clipPath1880">
      <path
         d="M 0,0 H 596 V 842 H 0 Z"
         id="path1878"
         inkscape:connector-curvature="0" />
    </clipPath>
    <clipPath
       clipPathUnits="userSpaceOnUse"
       id="clipPath1896">
      <path
         d="M 0,0 H 596 V 842 H 0 Z"
         id="path1894"
         inkscape:connector-curvature="0" />
    </clipPath>
    <clipPath
       clipPathUnits="userSpaceOnUse"
       id="clipPath2052">
      <path
         d="M 0,0 H 596 V 842 H 0 Z"
         id="path2050"
         inkscape:connector-curvature="0" />
    </clipPath>
    <clipPath
       clipPathUnits="userSpaceOnUse"
       id="clipPath2068">
      <path
         d="M 0,0 H 596 V 842 H 0 Z"
         id="path2066"
         inkscape:connector-curvature="0" />
    </clipPath>
    <clipPath
       id="clipPath1504"
       clipPathUnits="userSpaceOnUse">
      <path
         inkscape:connector-curvature="0"
         id="path1502-8"
         d="M 0,0 H 596 V 842 H 0 Z" />
    </clipPath>
    <clipPath
       id="clipPath1520"
       clipPathUnits="userSpaceOnUse">
      <path
         inkscape:connector-curvature="0"
         id="path1518"
         d="M 0,0 H 596 V 842 H 0 Z" />
    </clipPath>
    <clipPath
       id="clipPath1536"
       clipPathUnits="userSpaceOnUse">
      <path
         inkscape:connector-curvature="0"
         id="path1534"
         d="M 0,0 H 596 V 842 H 0 Z" />
    </clipPath>
    <clipPath
       id="clipPath1552"
       clipPathUnits="userSpaceOnUse">
      <path
         inkscape:connector-curvature="0"
         id="path1550"
         d="M 0,0 H 596 V 842 H 0 Z" />
    </clipPath>
    <clipPath
       id="clipPath1568"
       clipPathUnits="userSpaceOnUse">
      <path
         inkscape:connector-curvature="0"
         id="path1566"
         d="M 0,0 H 596 V 842 H 0 Z" />
    </clipPath>
    <clipPath
       id="clipPath1584"
       clipPathUnits="userSpaceOnUse">
      <path
         inkscape:connector-curvature="0"
         id="path1582"
         d="M 0,0 H 596 V 842 H 0 Z" />
    </clipPath>
    <clipPath
       id="clipPath1600"
       clipPathUnits="userSpaceOnUse">
      <path
         inkscape:connector-curvature="0"
         id="path1598"
         d="M 0,0 H 596 V 842 H 0 Z" />
    </clipPath>
    <clipPath
       id="clipPath1616"
       clipPathUnits="userSpaceOnUse">
      <path
         inkscape:connector-curvature="0"
         id="path1614"
         d="M 0,0 H 596 V 842 H 0 Z" />
    </clipPath>
    <clipPath
       id="clipPath1632"
       clipPathUnits="userSpaceOnUse">
      <path
         inkscape:connector-curvature="0"
         id="path1630"
         d="M 0,0 H 596 V 842 H 0 Z" />
    </clipPath>
    <clipPath
       id="clipPath1648"
       clipPathUnits="userSpaceOnUse">
      <path
         inkscape:connector-curvature="0"
         id="path1646"
         d="M 0,0 H 596 V 842 H 0 Z" />
    </clipPath>
    <clipPath
       id="clipPath1664"
       clipPathUnits="userSpaceOnUse">
      <path
         inkscape:connector-curvature="0"
         id="path1662-3"
         d="M 0,0 H 596 V 842 H 0 Z" />
    </clipPath>
    <clipPath
       id="clipPath1680"
       clipPathUnits="userSpaceOnUse">
      <path
         inkscape:connector-curvature="0"
         id="path1678-3"
         d="M 0,0 H 596 V 842 H 0 Z" />
    </clipPath>
    <clipPath
       id="clipPath1696"
       clipPathUnits="userSpaceOnUse">
      <path
         inkscape:connector-curvature="0"
         id="path1694-7"
         d="M 0,0 H 596 V 842 H 0 Z" />
    </clipPath>
    <clipPath
       id="clipPath1712-4"
       clipPathUnits="userSpaceOnUse">
      <path
         inkscape:connector-curvature="0"
         id="path1710-3"
         d="M 0,0 H 596 V 842 H 0 Z" />
    </clipPath>
    <clipPath
       id="clipPath1728"
       clipPathUnits="userSpaceOnUse">
      <path
         inkscape:connector-curvature="0"
         id="path1726"
         d="M 0,0 H 596 V 842 H 0 Z" />
    </clipPath>
    <clipPath
       id="clipPath1744"
       clipPathUnits="userSpaceOnUse">
      <path
         inkscape:connector-curvature="0"
         id="path1742"
         d="M 0,0 H 596 V 842 H 0 Z" />
    </clipPath>
    <clipPath
       id="clipPath1760"
       clipPathUnits="userSpaceOnUse">
      <path
         inkscape:connector-curvature="0"
         id="path1758"
         d="M 0,0 H 596 V 842 H 0 Z" />
    </clipPath>
    <clipPath
       id="clipPath1776"
       clipPathUnits="userSpaceOnUse">
      <path
         inkscape:connector-curvature="0"
         id="path1774"
         d="M 0,0 H 596 V 842 H 0 Z" />
    </clipPath>
    <clipPath
       id="clipPath1792"
       clipPathUnits="userSpaceOnUse">
      <path
         inkscape:connector-curvature="0"
         id="path1790"
         d="M 0,0 H 596 V 842 H 0 Z" />
    </clipPath>
    <clipPath
       id="clipPath1808"
       clipPathUnits="userSpaceOnUse">
      <path
         inkscape:connector-curvature="0"
         id="path1806"
         d="M 0,0 H 596 V 842 H 0 Z" />
    </clipPath>
    <clipPath
       clipPathUnits="userSpaceOnUse"
       id="clipPath1660-5">
      <path
         d="M 0,0 H 596 V 842 H 0 Z"
         id="path1658-8"
         inkscape:connector-curvature="0" />
    </clipPath>
    <clipPath
       clipPathUnits="userSpaceOnUse"
       id="clipPath1676-5">
      <path
         d="M 0,0 H 596 V 842 H 0 Z"
         id="path1674-6"
         inkscape:connector-curvature="0" />
    </clipPath>
    <clipPath
       clipPathUnits="userSpaceOnUse"
       id="clipPath1692-1">
      <path
         d="M 0,0 H 596 V 842 H 0 Z"
         id="path1690-8"
         inkscape:connector-curvature="0" />
    </clipPath>
    <clipPath
       clipPathUnits="userSpaceOnUse"
       id="clipPath1712-5">
      <path
         d="M 0,0 H 596 V 842 H 0 Z"
         id="path1710-1"
         inkscape:connector-curvature="0" />
    </clipPath>
    <clipPath
       clipPathUnits="userSpaceOnUse"
       id="clipPath1732-5">
      <path
         d="M 0,0 H 596 V 842 H 0 Z"
         id="path1730-6"
         inkscape:connector-curvature="0" />
    </clipPath>
    <clipPath
       clipPathUnits="userSpaceOnUse"
       id="clipPath1752-5">
      <path
         d="M 0,0 H 596 V 842 H 0 Z"
         id="path1750-8"
         inkscape:connector-curvature="0" />
    </clipPath>
    <clipPath
       clipPathUnits="userSpaceOnUse"
       id="clipPath1768-1">
      <path
         d="M 0,0 H 596 V 842 H 0 Z"
         id="path1766-0"
         inkscape:connector-curvature="0" />
    </clipPath>
    <clipPath
       clipPathUnits="userSpaceOnUse"
       id="clipPath1784-1">
      <path
         d="M 0,0 H 596 V 842 H 0 Z"
         id="path1782-9"
         inkscape:connector-curvature="0" />
    </clipPath>
    <clipPath
       clipPathUnits="userSpaceOnUse"
       id="clipPath1800-2">
      <path
         d="M 0,0 H 596 V 842 H 0 Z"
         id="path1798-9"
         inkscape:connector-curvature="0" />
    </clipPath>
    <clipPath
       clipPathUnits="userSpaceOnUse"
       id="clipPath1816-6">
      <path
         d="M 0,0 H 596 V 842 H 0 Z"
         id="path1814-1"
         inkscape:connector-curvature="0" />
    </clipPath>
    <clipPath
       clipPathUnits="userSpaceOnUse"
       id="clipPath1832-5">
      <path
         d="M 0,0 H 596 V 842 H 0 Z"
         id="path1830-6"
         inkscape:connector-curvature="0" />
    </clipPath>
    <clipPath
       clipPathUnits="userSpaceOnUse"
       id="clipPath1848-4">
      <path
         d="M 0,0 H 596 V 842 H 0 Z"
         id="path1846-6"
         inkscape:connector-curvature="0" />
    </clipPath>
    <clipPath
       clipPathUnits="userSpaceOnUse"
       id="clipPath1864-9">
      <path
         d="M 0,0 H 596 V 842 H 0 Z"
         id="path1862-0"
         inkscape:connector-curvature="0" />
    </clipPath>
    <clipPath
       clipPathUnits="userSpaceOnUse"
       id="clipPath1880-9">
      <path
         d="M 0,0 H 596 V 842 H 0 Z"
         id="path1878-5"
         inkscape:connector-curvature="0" />
    </clipPath>
    <clipPath
       clipPathUnits="userSpaceOnUse"
       id="clipPath1896-3">
      <path
         d="M 0,0 H 596 V 842 H 0 Z"
         id="path1894-3"
         inkscape:connector-curvature="0" />
    </clipPath>
    <clipPath
       clipPathUnits="userSpaceOnUse"
       id="clipPath2052-1">
      <path
         d="M 0,0 H 596 V 842 H 0 Z"
         id="path2050-5"
         inkscape:connector-curvature="0" />
    </clipPath>
    <clipPath
       clipPathUnits="userSpaceOnUse"
       id="clipPath2068-2">
      <path
         d="M 0,0 H 596 V 842 H 0 Z"
         id="path2066-2"
         inkscape:connector-curvature="0" />
    </clipPath>
    <clipPath
       id="clipPath1504-7"
       clipPathUnits="userSpaceOnUse">
      <path
         inkscape:connector-curvature="0"
         id="path1502-8-1"
         d="M 0,0 H 596 V 842 H 0 Z" />
    </clipPath>
    <clipPath
       id="clipPath1520-5"
       clipPathUnits="userSpaceOnUse">
      <path
         inkscape:connector-curvature="0"
         id="path1518-9"
         d="M 0,0 H 596 V 842 H 0 Z" />
    </clipPath>
    <clipPath
       id="clipPath1536-8"
       clipPathUnits="userSpaceOnUse">
      <path
         inkscape:connector-curvature="0"
         id="path1534-7"
         d="M 0,0 H 596 V 842 H 0 Z" />
    </clipPath>
    <clipPath
       id="clipPath1552-7"
       clipPathUnits="userSpaceOnUse">
      <path
         inkscape:connector-curvature="0"
         id="path1550-8"
         d="M 0,0 H 596 V 842 H 0 Z" />
    </clipPath>
    <clipPath
       id="clipPath1568-5"
       clipPathUnits="userSpaceOnUse">
      <path
         inkscape:connector-curvature="0"
         id="path1566-7"
         d="M 0,0 H 596 V 842 H 0 Z" />
    </clipPath>
    <clipPath
       id="clipPath1584-9"
       clipPathUnits="userSpaceOnUse">
      <path
         inkscape:connector-curvature="0"
         id="path1582-6"
         d="M 0,0 H 596 V 842 H 0 Z" />
    </clipPath>
    <clipPath
       id="clipPath1600-6"
       clipPathUnits="userSpaceOnUse">
      <path
         inkscape:connector-curvature="0"
         id="path1598-0"
         d="M 0,0 H 596 V 842 H 0 Z" />
    </clipPath>
    <clipPath
       id="clipPath1616-2"
       clipPathUnits="userSpaceOnUse">
      <path
         inkscape:connector-curvature="0"
         id="path1614-2"
         d="M 0,0 H 596 V 842 H 0 Z" />
    </clipPath>
    <clipPath
       id="clipPath1632-7"
       clipPathUnits="userSpaceOnUse">
      <path
         inkscape:connector-curvature="0"
         id="path1630-6"
         d="M 0,0 H 596 V 842 H 0 Z" />
    </clipPath>
    <clipPath
       id="clipPath1648-4"
       clipPathUnits="userSpaceOnUse">
      <path
         inkscape:connector-curvature="0"
         id="path1646-8"
         d="M 0,0 H 596 V 842 H 0 Z" />
    </clipPath>
    <clipPath
       id="clipPath1664-2"
       clipPathUnits="userSpaceOnUse">
      <path
         inkscape:connector-curvature="0"
         id="path1662-3-8"
         d="M 0,0 H 596 V 842 H 0 Z" />
    </clipPath>
    <clipPath
       id="clipPath1680-1"
       clipPathUnits="userSpaceOnUse">
      <path
         inkscape:connector-curvature="0"
         id="path1678-3-9"
         d="M 0,0 H 596 V 842 H 0 Z" />
    </clipPath>
    <clipPath
       id="clipPath1696-3"
       clipPathUnits="userSpaceOnUse">
      <path
         inkscape:connector-curvature="0"
         id="path1694-7-7"
         d="M 0,0 H 596 V 842 H 0 Z" />
    </clipPath>
    <clipPath
       id="clipPath1712-4-9"
       clipPathUnits="userSpaceOnUse">
      <path
         inkscape:connector-curvature="0"
         id="path1710-3-0"
         d="M 0,0 H 596 V 842 H 0 Z" />
    </clipPath>
    <clipPath
       id="clipPath1728-4"
       clipPathUnits="userSpaceOnUse">
      <path
         inkscape:connector-curvature="0"
         id="path1726-9"
         d="M 0,0 H 596 V 842 H 0 Z" />
    </clipPath>
    <clipPath
       id="clipPath1744-3"
       clipPathUnits="userSpaceOnUse">
      <path
         inkscape:connector-curvature="0"
         id="path1742-8"
         d="M 0,0 H 596 V 842 H 0 Z" />
    </clipPath>
    <clipPath
       id="clipPath1760-3"
       clipPathUnits="userSpaceOnUse">
      <path
         inkscape:connector-curvature="0"
         id="path1758-1"
         d="M 0,0 H 596 V 842 H 0 Z" />
    </clipPath>
    <clipPath
       id="clipPath1776-7"
       clipPathUnits="userSpaceOnUse">
      <path
         inkscape:connector-curvature="0"
         id="path1774-7"
         d="M 0,0 H 596 V 842 H 0 Z" />
    </clipPath>
    <clipPath
       id="clipPath1792-9"
       clipPathUnits="userSpaceOnUse">
      <path
         inkscape:connector-curvature="0"
         id="path1790-5"
         d="M 0,0 H 596 V 842 H 0 Z" />
    </clipPath>
    <clipPath
       id="clipPath1808-1"
       clipPathUnits="userSpaceOnUse">
      <path
         inkscape:connector-curvature="0"
         id="path1806-8"
         d="M 0,0 H 596 V 842 H 0 Z" />
    </clipPath>
    <linearGradient
       inkscape:collect="always"
       xlink:href="#linearGradient1496"
       id="linearGradient1498"
       x1="-4352.1968"
       y1="-1387.1982"
       x2="-4242.354"
       y2="-1387.1982"
       gradientUnits="userSpaceOnUse"
       gradientTransform="scale(0.26458333)" />
    <clipPath
       id="clipPath2839"
       clipPathUnits="userSpaceOnUse">
      <path
         inkscape:connector-curvature="0"
         id="path2837"
         d="M 0,0 H 596 V 842 H 0 Z" />
    </clipPath>
    <clipPath
       id="clipPath2855"
       clipPathUnits="userSpaceOnUse">
      <path
         inkscape:connector-curvature="0"
         id="path2853"
         d="M 0,0 H 596 V 842 H 0 Z" />
    </clipPath>
  </defs>
  <sodipodi:namedview
     id="base"
     pagecolor="#ffffff"
     bordercolor="#666666"
     borderopacity="1.0"
     inkscape:pageopacity="0.0"
     inkscape:pageshadow="2"
     inkscape:zoom="0.70710678"
     inkscape:cx="457.67982"
     inkscape:cy="472.89011"
     inkscape:document-units="mm"
     inkscape:current-layer="layer1"
     showgrid="false"
     inkscape:window-width="1920"
     inkscape:window-height="1017"
     inkscape:window-x="-8"
     inkscape:window-y="-8"
     inkscape:window-maximized="1"
     showguides="true"
     inkscape:document-rotation="0" />
  <metadata
     id="metadata5">
    <rdf:RDF>
      <cc:Work
         rdf:about="">
        <dc:format>image/svg+xml</dc:format>
        <dc:type
           rdf:resource="http://purl.org/dc/dcmitype/StillImage" />
        <dc:title />
      </cc:Work>
    </rdf:RDF>
  </metadata>
  <g
     inkscape:label="Layer 1"
     inkscape:groupmode="layer"
     id="layer1">
    <g
       id="g922"
       transform="translate(-1170.7618,-1821.1715)" />
    <g
       id="g2835"
       transform="matrix(0.35277777,0,0,0.35277777,-1143.1293,-1214.9265)" />
    <g
       id="g2851"
       transform="matrix(0.35277777,0,0,0.35277777,-1143.1293,-1214.9265)" />
    <path
       id="path1279-4-6-7-6-4-3-2-8-6"
       style="opacity:0.99;fill:#ff0000;fill-opacity:1;stroke:none;stroke-width:0.3;stroke-linecap:round;stroke-linejoin:round;stroke-miterlimit:4.98667;stroke-dasharray:none;stroke-dashoffset:0;stroke-opacity:1;paint-order:fill markers stroke"
       d="m 34.593798,34.735743 a 101.16111,101.16111 0 0 0 -1.10691,141.834777 c 0,0 0,0.003 0,0.003 a 101.16111,101.16111 0 0 0 1.0405,1.06263 101.16111,101.16111 0 0 0 143.063442,0 101.16111,101.16111 0 0 0 0.24352,-142.828782 101.16111,101.16111 0 0 0 -0.22138,-0.221382 101.16111,101.16111 0 0 0 -143.063451,0 z" />
    <path
       sodipodi:nodetypes="ccccccccccccccccccccccccccccccccc"
       id="path1279-4-6-7-6-4-3-2-8"
       style="opacity:0.99;fill:#000000;fill-opacity:0.129032;stroke:none;stroke-width:0.3;stroke-linecap:round;stroke-linejoin:round;stroke-miterlimit:4.98667;stroke-dasharray:none;stroke-dashoffset:0;stroke-opacity:1;paint-order:fill markers stroke"
       d="m 207.19398,108.61079 -63.8044,-63.786686 -11.01816,6.121201 0.4649,3.736922 3.18186,0.668317 -4.74385,5.666359 -21.03222,-23.215025 -4.64458,14.022312 -0.70843,5.581031 0.5756,2.147402 0.41297,6.167654 -3.58608,0.203668 L 78.221476,43.11061 66.782687,54.684441 84.548566,72.456957 82.666815,73.63028 81.092296,78.022946 78.157273,79.202454 55.875214,66.333542 48.686956,80.712281 c 22.916205,22.558329 25.334538,17.827702 14.256972,25.596139 l -22.649552,-1.81533 -3.643943,5.97509 36.466033,15.00581 c -11.177098,6.09594 -18.4333,8.83909 -26.052242,19.19987 L 75.99438,157.3391 v 0 0 l -6.519691,11.16428 38.748431,38.74621 c 26.08022,-0.55254 50.93887,-11.15844 69.38542,-29.60316 18.3579,-18.35769 28.9552,-43.0707 29.59873,-69.02457 z" />
    <path
       transform="scale(0.26458333)"
       d="M 366.69727 248.61328 L 363.09961 258.09375 L 352.55078 252.42188 A 156.28035 156.28035 0 0 0 328.35352 262.45117 L 294.83594 213.72461 A 32.473342 32.473342 0 0 0 309.13672 186.82617 A 32.473342 32.473342 0 0 0 276.68359 154.34961 A 32.473342 32.473342 0 0 0 244.20703 186.82617 A 32.473342 32.473342 0 0 0 276.68359 219.30273 A 32.473342 32.473342 0 0 0 290.12109 216.35742 L 315.62305 269.79883 A 156.28035 156.28035 0 0 0 294.83594 285.75977 L 295.39844 299.34766 L 284.45312 296.14258 A 156.28035 156.28035 0 0 0 268.49219 316.93164 L 226.11914 296.69727 A 32.473342 32.473342 0 0 0 231.69922 278.54297 A 32.473342 32.473342 0 0 0 199.22266 246.06641 A 32.473342 32.473342 0 0 0 166.76758 278.54297 A 32.473342 32.473342 0 0 0 199.22266 311.01953 A 32.473342 32.473342 0 0 0 221.36133 302.27539 L 261.14258 329.59375 A 156.28035 156.28035 0 0 0 251.16016 353.8125 L 257.75 363.25 L 247.35156 368.00391 A 156.28035 156.28035 0 0 0 243.9375 393.99414 L 192.99805 398.00195 A 32.473342 32.473342 0 0 0 192.99805 396.22852 A 32.473342 32.473342 0 0 0 160.52148 363.75195 A 32.473342 32.473342 0 0 0 128.06641 396.22852 A 32.473342 32.473342 0 0 0 160.52148 428.70508 A 32.473342 32.473342 0 0 0 191.91406 404.5293 L 243.80469 408.60547 A 156.28035 156.28035 0 0 0 247.25977 434.63867 L 257.5 438.5 L 251.06836 448.76367 A 156.28035 156.28035 0 0 0 261.0957 472.98242 L 218.76953 502.07227 A 32.473342 32.473342 0 0 0 189.36914 483.4082 A 32.473342 32.473342 0 0 0 156.89258 515.88672 A 32.473342 32.473342 0 0 0 189.36914 548.3418 A 32.473342 32.473342 0 0 0 221.8457 515.88672 A 32.473342 32.473342 0 0 0 220.95898 508.35547 L 268.46875 485.64258 A 156.28035 156.28035 0 0 0 284.38672 506.45312 L 294.76953 516.8125 A 156.28035 156.28035 0 0 0 315.55664 532.81836 L 292.50977 581.16797 A 32.473342 32.473342 0 0 0 283.16797 579.83789 A 32.473342 32.473342 0 0 0 250.71289 612.31445 A 32.473342 32.473342 0 0 0 283.16797 644.79102 A 32.473342 32.473342 0 0 0 315.64453 612.31445 A 32.473342 32.473342 0 0 0 298.39844 583.64453 L 328.28516 540.1875 A 156.28035 156.28035 0 0 0 352.48242 550.17188 L 362 544.5 L 366.62891 553.98047 A 156.28035 156.28035 0 0 0 392.61914 557.45312 L 396.4668 606.13477 A 32.473342 32.473342 0 0 0 365.49609 638.56641 A 32.473342 32.473342 0 0 0 397.97266 671.02148 A 32.473342 32.473342 0 0 0 400.19141 670.94531 L 400.19141 131.07812 A 32.473342 32.473342 0 0 0 368.68945 163.54102 A 32.473342 32.473342 0 0 0 396.62891 195.70703 L 392.6875 245.20898 A 156.28035 156.28035 0 0 0 366.69727 248.61328 z "
       style="opacity:0.999;fill:#2fe72f;fill-opacity:1;stroke:none;stroke-width:3.77953;stroke-linecap:round;stroke-linejoin:round;stroke-miterlimit:4;stroke-dasharray:none;stroke-opacity:1"
       id="path2537" />
    <path
       transform="scale(0.26458333)"
       d="M 432.69531 553.98047 L 435.5 544 L 446.86328 550.2168 A 156.28035 156.28035 0 0 0 471.08398 540.14453 L 499.24219 581.14453 A 32.473342 32.473342 0 0 0 485.0957 607.95312 A 32.473342 32.473342 0 0 0 517.57227 640.42969 A 32.473342 32.473342 0 0 0 550.02734 607.95312 A 32.473342 32.473342 0 0 0 517.57227 575.47656 A 32.473342 32.473342 0 0 0 505.24219 577.88672 L 483.74609 532.83398 A 156.28035 156.28035 0 0 0 504.55664 516.87305 L 506.75 505.75 L 514.93945 506.55664 A 156.28035 156.28035 0 0 0 530.87891 485.74609 L 580.91016 509.56836 A 32.473342 32.473342 0 0 0 574.60156 528.82812 A 32.473342 32.473342 0 0 0 607.07812 561.2832 A 32.473342 32.473342 0 0 0 639.53125 528.82812 A 32.473342 32.473342 0 0 0 607.07812 496.35156 A 32.473342 32.473342 0 0 0 584.93945 505.11719 L 538.22852 473.03906 A 156.28035 156.28035 0 0 0 548.25586 448.77734 L 541.64453 438.9375 L 552.06445 434.65234 A 156.28035 156.28035 0 0 0 555.49414 408.66211 L 609.80078 404.36914 A 32.473342 32.473342 0 0 0 609.54883 407.89258 A 32.473342 32.473342 0 0 0 642.02539 440.3457 A 32.473342 32.473342 0 0 0 674.50195 407.89258 A 32.473342 32.473342 0 0 0 642.02539 375.41602 A 32.473342 32.473342 0 0 0 610.96484 398.41602 L 555.46484 394.01562 A 156.28035 156.28035 0 0 0 552.03516 368.02539 L 542.5 363.5 L 548.22656 353.87891 A 156.28035 156.28035 0 0 0 538.19922 329.66016 L 586.19336 296.67383 A 32.473342 32.473342 0 0 0 614.81836 313.89844 A 32.473342 32.473342 0 0 0 647.29492 281.42188 A 32.473342 32.473342 0 0 0 614.81836 248.94336 A 32.473342 32.473342 0 0 0 582.3418 281.42188 A 32.473342 32.473342 0 0 0 584.11719 291.62695 L 531.00781 316.9082 A 156.28035 156.28035 0 0 0 515.02344 296.12109 L 504.16797 295.2168 L 504.68555 285.73828 A 156.28035 156.28035 0 0 0 483.875 269.77539 L 507.82812 219.5 A 32.473342 32.473342 0 0 0 526.11523 225.16602 A 32.473342 32.473342 0 0 0 558.5918 192.68945 A 32.473342 32.473342 0 0 0 526.11523 160.21094 A 32.473342 32.473342 0 0 0 493.66016 192.68945 A 32.473342 32.473342 0 0 0 503.29102 215.7793 L 471.16797 262.42383 A 156.28035 156.28035 0 0 0 446.94922 252.39453 L 436.63867 259.50781 L 432.7793 248.58789 A 156.28035 156.28035 0 0 0 406.78906 245.17383 L 402.94141 195.87305 A 32.473342 32.473342 0 0 0 433.07031 163.50586 A 32.473342 32.473342 0 0 0 400.61719 131.0293 L 400.60352 131.06445 A 32.473342 32.473342 0 0 0 399.62891 131.07812 L 399.62891 670.94531 A 32.473342 32.473342 0 0 0 429.88672 638.56641 A 32.473342 32.473342 0 0 0 402.85547 606.55469 L 406.70508 557.45312 A 156.28035 156.28035 0 0 0 432.69531 553.98047 z "
       style="opacity:0.999;fill:#31c231;fill-opacity:1;stroke:none;stroke-width:3.77953;stroke-linecap:round;stroke-linejoin:round;stroke-miterlimit:4;stroke-dasharray:none;stroke-opacity:1"
       id="path2550" />
  </g>
</svg>
