<?xml version="1.0" encoding="UTF-8"?>
<svg xmlns="http://www.w3.org/2000/svg" xmlns:xlink="http://www.w3.org/1999/xlink" width="595.275574pt" height="841.889771pt" viewBox="0 0 595.275574 841.889771" version="1.1">
<defs>
<filter id="alpha" filterUnits="objectBoundingBox" x="0%" y="0%" width="100%" height="100%">
  <feColorMatrix type="matrix" in="SourceGraphic" values="0 0 0 0 1 0 0 0 0 1 0 0 0 0 1 0 0 0 1 0"/>
</filter>
<mask id="mask0">
  <g filter="url(#alpha)">
<rect x="0" y="0" width="595.275574" height="841.889771" style="fill:rgb(0%,0%,0%);fill-opacity:0.98;stroke:none;"/>
  </g>
</mask>
<clipPath id="clip1">
  <rect x="0" y="0" width="596" height="842"/>
</clipPath>
<g id="surface5" clip-path="url(#clip1)">
<path style=" stroke:none;fill-rule:nonzero;fill:rgb(7.843018%,50.979614%,82.351685%);fill-opacity:1;" d="M 580.511719 292.761719 C 580.511719 449.683594 453.230469 576.898438 296.21875 576.898438 C 139.207031 576.898438 11.921875 449.683594 11.921875 292.761719 C 11.921875 135.835938 139.207031 8.625 296.21875 8.625 C 453.230469 8.625 580.511719 135.835938 580.511719 292.761719 Z M 580.511719 292.761719 "/>
</g>
<mask id="mask1">
  <g filter="url(#alpha)">
<rect x="0" y="0" width="595.275574" height="841.889771" style="fill:rgb(0%,0%,0%);fill-opacity:0.98;stroke:none;"/>
  </g>
</mask>
<clipPath id="clip2">
  <rect x="0" y="0" width="596" height="842"/>
</clipPath>
<g id="surface8" clip-path="url(#clip2)">
<path style=" stroke:none;fill-rule:nonzero;fill:rgb(14.901733%,44.7052%,66.273499%);fill-opacity:1;" d="M 491.238281 244.976562 L 91.609375 330.816406 L 334.738281 573.949219 C 459.683594 556.789062 558.378906 459.410156 577.15625 334.769531 L 501.894531 259.507812 Z M 491.238281 244.976562 "/>
</g>
<mask id="mask2">
  <g filter="url(#alpha)">
<rect x="0" y="0" width="595.275574" height="841.889771" style="fill:rgb(0%,0%,0%);fill-opacity:0.98;stroke:none;"/>
  </g>
</mask>
<clipPath id="clip3">
  <rect x="0" y="0" width="596" height="842"/>
</clipPath>
<g id="surface11" clip-path="url(#clip3)">
<path style="fill:none;stroke-width:28.346457;stroke-linecap:butt;stroke-linejoin:bevel;stroke:rgb(100%,100%,100%);stroke-opacity:1;stroke-miterlimit:10;" d="M 294.960938 179.457031 C 245.867188 179.460938 199.265625 194.144531 167.5625 219.597656 L 167.5625 365.757812 C 199.21875 391.273438 245.828125 406.019531 294.960938 406.0625 C 345.449219 406.050781 393.210938 390.515625 424.871094 363.816406 L 424.871094 221.804688 C 393.238281 195.066406 345.472656 179.496094 294.960938 179.457031 Z M 294.960938 179.457031 "/>
<path style=" stroke:none;fill-rule:nonzero;fill:rgb(29.803467%,73.724365%,78.038025%);fill-opacity:1;" d="M 294.960938 179.457031 C 245.867188 179.460938 199.265625 194.144531 167.5625 219.597656 L 167.5625 365.757812 C 199.21875 391.273438 245.828125 406.019531 294.960938 406.0625 C 345.449219 406.050781 393.210938 390.515625 424.871094 363.816406 L 424.871094 221.804688 C 393.238281 195.066406 345.472656 179.496094 294.960938 179.457031 Z M 294.960938 179.457031 "/>
</g>
<mask id="mask3">
  <g filter="url(#alpha)">
<rect x="0" y="0" width="595.275574" height="841.889771" style="fill:rgb(0%,0%,0%);fill-opacity:0.98;stroke:none;"/>
  </g>
</mask>
<clipPath id="clip4">
  <rect x="0" y="0" width="596" height="842"/>
</clipPath>
<g id="surface14" clip-path="url(#clip4)">
<path style="fill:none;stroke-width:14.173228;stroke-linecap:butt;stroke-linejoin:bevel;stroke:rgb(100%,100%,100%);stroke-opacity:1;stroke-miterlimit:10;" d="M 157.0625 217.753906 C 138.804688 217.753906 121.296875 225.65625 108.386719 239.722656 C 95.476562 253.789062 88.226562 272.867188 88.226562 292.761719 C 88.226562 334.1875 119.046875 367.765625 157.0625 367.765625 Z M 157.0625 217.753906 "/>
<path style=" stroke:none;fill-rule:nonzero;fill:rgb(14.901733%,44.7052%,66.273499%);fill-opacity:1;" d="M 157.0625 217.753906 C 138.804688 217.753906 121.296875 225.65625 108.386719 239.722656 C 95.476562 253.789062 88.226562 272.867188 88.226562 292.761719 C 88.226562 334.1875 119.046875 367.765625 157.0625 367.765625 Z M 157.0625 217.753906 "/>
</g>
<mask id="mask4">
  <g filter="url(#alpha)">
<rect x="0" y="0" width="595.275574" height="841.889771" style="fill:rgb(0%,0%,0%);fill-opacity:0.98;stroke:none;"/>
  </g>
</mask>
<clipPath id="clip5">
  <rect x="0" y="0" width="596" height="842"/>
</clipPath>
<g id="surface17" clip-path="url(#clip5)">
<path style="fill:none;stroke-width:14.173228;stroke-linecap:butt;stroke-linejoin:bevel;stroke:rgb(100%,100%,100%);stroke-opacity:1;stroke-miterlimit:10;" d="M 435.371094 217.753906 L 435.371094 367.765625 C 473.390625 367.765625 504.210938 334.1875 504.210938 292.761719 C 504.210938 272.867188 496.957031 253.789062 484.050781 239.722656 C 471.140625 225.65625 453.628906 217.753906 435.371094 217.753906 Z M 435.371094 217.753906 "/>
<path style=" stroke:none;fill-rule:nonzero;fill:rgb(14.901733%,44.7052%,66.273499%);fill-opacity:1;" d="M 435.371094 217.753906 L 435.371094 367.765625 C 473.390625 367.765625 504.210938 334.1875 504.210938 292.761719 C 504.210938 272.867188 496.957031 253.789062 484.050781 239.722656 C 471.140625 225.65625 453.628906 217.753906 435.371094 217.753906 Z M 435.371094 217.753906 "/>
</g>
<mask id="mask5">
  <g filter="url(#alpha)">
<rect x="0" y="0" width="595.275574" height="841.889771" style="fill:rgb(0%,0%,0%);fill-opacity:0.98;stroke:none;"/>
  </g>
</mask>
<clipPath id="clip6">
  <rect x="0" y="0" width="596" height="842"/>
</clipPath>
<g id="surface20" clip-path="url(#clip6)">
<path style=" stroke:none;fill-rule:nonzero;fill:rgb(25.489807%,69.410706%,74.116516%);fill-opacity:1;" d="M 167.5625 261.226562 L 167.5625 365.757812 C 199.21875 391.273438 245.828125 406.019531 294.960938 406.066406 C 345.449219 406.050781 393.210938 390.519531 424.871094 363.816406 L 424.871094 261.347656 C 424.53125 264.757812 424.09375 268.15625 423.558594 271.535156 C 422.699219 276.515625 421.625 281.441406 420.347656 286.296875 C 419.066406 291.152344 417.578125 295.929688 415.894531 300.609375 C 414.207031 305.292969 412.320312 309.871094 410.242188 314.332031 C 408.167969 318.789062 405.902344 323.125 403.453125 327.320312 C 401.007812 331.515625 398.386719 335.5625 395.59375 339.449219 C 392.804688 343.335938 389.851562 347.058594 386.742188 350.597656 C 383.636719 354.140625 380.378906 357.496094 376.984375 360.65625 C 373.59375 363.8125 370.066406 366.773438 366.421875 369.519531 C 362.777344 372.265625 359.015625 374.792969 355.15625 377.097656 C 351.292969 379.40625 347.335938 381.480469 343.300781 383.324219 C 339.261719 385.164062 335.148438 386.769531 330.972656 388.128906 C 326.800781 389.488281 322.570312 390.601562 318.300781 391.464844 C 314.035156 392.328125 309.730469 392.941406 305.410156 393.300781 C 302.351562 393.554688 299.285156 393.683594 296.21875 393.683594 C 291.886719 393.683594 287.558594 393.429688 283.246094 392.921875 C 278.9375 392.414062 274.652344 391.652344 270.40625 390.644531 C 266.160156 389.632812 261.960938 388.375 257.820312 386.875 C 253.683594 385.371094 249.609375 383.628906 245.621094 381.652344 C 241.628906 379.671875 237.726562 377.457031 233.925781 375.023438 C 230.125 372.585938 226.429688 369.929688 222.855469 367.058594 C 219.277344 364.191406 215.828125 361.113281 212.515625 357.835938 C 209.203125 354.5625 206.03125 351.097656 203.011719 347.453125 C 199.992188 343.804688 197.132812 339.984375 194.441406 336.003906 C 191.746094 332.023438 189.226562 327.886719 186.886719 323.609375 C 184.546875 319.335938 182.386719 314.921875 180.421875 310.394531 C 178.457031 305.863281 176.6875 301.222656 175.117188 296.484375 C 173.546875 291.75 172.179688 286.921875 171.023438 282.027344 C 169.863281 277.128906 168.914062 272.167969 168.175781 267.160156 C 167.941406 265.1875 167.734375 263.207031 167.5625 261.226562 Z M 167.5625 261.226562 "/>
</g>
<mask id="mask6">
  <g filter="url(#alpha)">
<rect x="0" y="0" width="595.275574" height="841.889771" style="fill:rgb(0%,0%,0%);fill-opacity:0.98;stroke:none;"/>
  </g>
</mask>
<clipPath id="clip7">
  <rect x="0" y="0" width="596" height="842"/>
</clipPath>
<g id="surface23" clip-path="url(#clip7)">
<path style=" stroke:none;fill-rule:nonzero;fill:rgb(25.489807%,69.410706%,74.116516%);fill-opacity:1;" d="M 296.332031 219.429688 C 296.253906 219.484375 296.179688 219.542969 296.105469 219.597656 L 296.105469 221.167969 C 296.179688 220.589844 296.253906 220.007812 296.332031 219.429688 Z M 296.332031 219.429688 "/>
</g>
<mask id="mask7">
  <g filter="url(#alpha)">
<rect x="0" y="0" width="595.275574" height="841.889771" style="fill:rgb(0%,0%,0%);fill-opacity:0.98;stroke:none;"/>
  </g>
</mask>
<clipPath id="clip8">
  <rect x="0" y="0" width="596" height="842"/>
</clipPath>
<g id="surface26" clip-path="url(#clip8)">
<path style=" stroke:none;fill-rule:nonzero;fill:rgb(25.489807%,69.802856%,74.116516%);fill-opacity:1;" d="M 202.722656 241.910156 L 389.714844 241.910156 C 390.738281 241.910156 391.5625 242.734375 391.5625 243.757812 C 391.5625 244.78125 390.738281 245.605469 389.714844 245.605469 L 202.722656 245.605469 C 201.695312 245.605469 200.871094 244.78125 200.871094 243.757812 C 200.871094 242.734375 201.695312 241.910156 202.722656 241.910156 Z M 202.722656 241.910156 "/>
</g>
<mask id="mask8">
  <g filter="url(#alpha)">
<rect x="0" y="0" width="595.275574" height="841.889771" style="fill:rgb(0%,0%,0%);fill-opacity:0.98;stroke:none;"/>
  </g>
</mask>
<clipPath id="clip9">
  <rect x="0" y="0" width="596" height="842"/>
</clipPath>
<g id="surface29" clip-path="url(#clip9)">
<path style=" stroke:none;fill-rule:nonzero;fill:rgb(25.489807%,69.802856%,74.116516%);fill-opacity:1;" d="M 202.722656 275.910156 L 389.714844 275.910156 C 390.738281 275.910156 391.5625 276.738281 391.5625 277.761719 C 391.5625 278.785156 390.738281 279.609375 389.714844 279.609375 L 202.722656 279.609375 C 201.695312 279.609375 200.871094 278.785156 200.871094 277.761719 C 200.871094 276.738281 201.695312 275.910156 202.722656 275.910156 Z M 202.722656 275.910156 "/>
</g>
<mask id="mask9">
  <g filter="url(#alpha)">
<rect x="0" y="0" width="595.275574" height="841.889771" style="fill:rgb(0%,0%,0%);fill-opacity:0.98;stroke:none;"/>
  </g>
</mask>
<clipPath id="clip10">
  <rect x="0" y="0" width="596" height="842"/>
</clipPath>
<g id="surface32" clip-path="url(#clip10)">
<path style=" stroke:none;fill-rule:nonzero;fill:rgb(25.489807%,69.802856%,74.116516%);fill-opacity:1;" d="M 202.722656 309.625 L 389.714844 309.625 C 390.738281 309.625 391.5625 310.449219 391.5625 311.476562 C 391.5625 312.5 390.738281 313.324219 389.714844 313.324219 L 202.722656 313.324219 C 201.695312 313.324219 200.871094 312.5 200.871094 311.476562 C 200.871094 310.449219 201.695312 309.625 202.722656 309.625 Z M 202.722656 309.625 "/>
</g>
<mask id="mask10">
  <g filter="url(#alpha)">
<rect x="0" y="0" width="595.275574" height="841.889771" style="fill:rgb(0%,0%,0%);fill-opacity:0.98;stroke:none;"/>
  </g>
</mask>
<clipPath id="clip11">
  <rect x="0" y="0" width="596" height="842"/>
</clipPath>
<g id="surface35" clip-path="url(#clip11)">
<path style=" stroke:none;fill-rule:nonzero;fill:rgb(25.489807%,69.802856%,74.116516%);fill-opacity:1;" d="M 202.722656 344.113281 L 389.714844 344.113281 C 390.738281 344.113281 391.5625 344.9375 391.5625 345.960938 C 391.5625 346.984375 390.738281 347.808594 389.714844 347.808594 L 202.722656 347.808594 C 201.695312 347.808594 200.871094 346.984375 200.871094 345.960938 C 200.871094 344.9375 201.695312 344.113281 202.722656 344.113281 Z M 202.722656 344.113281 "/>
</g>
<mask id="mask11">
  <g filter="url(#alpha)">
<rect x="0" y="0" width="595.275574" height="841.889771" style="fill:rgb(0%,0%,0%);fill-opacity:0.98;stroke:none;"/>
  </g>
</mask>
<clipPath id="clip12">
  <rect x="0" y="0" width="596" height="842"/>
</clipPath>
<g id="surface38" clip-path="url(#clip12)">
<path style=" stroke:none;fill-rule:nonzero;fill:rgb(100%,100%,100%);fill-opacity:1;" d="M 202.722656 239.808594 L 389.714844 239.808594 C 390.738281 239.808594 391.5625 240.632812 391.5625 241.660156 C 391.5625 242.683594 390.738281 243.507812 389.714844 243.507812 L 202.722656 243.507812 C 201.695312 243.507812 200.871094 242.683594 200.871094 241.660156 C 200.871094 240.632812 201.695312 239.808594 202.722656 239.808594 Z M 202.722656 239.808594 "/>
</g>
<mask id="mask12">
  <g filter="url(#alpha)">
<rect x="0" y="0" width="595.275574" height="841.889771" style="fill:rgb(0%,0%,0%);fill-opacity:0.98;stroke:none;"/>
  </g>
</mask>
<clipPath id="clip13">
  <rect x="0" y="0" width="596" height="842"/>
</clipPath>
<g id="surface41" clip-path="url(#clip13)">
<path style=" stroke:none;fill-rule:nonzero;fill:rgb(100%,100%,100%);fill-opacity:1;" d="M 202.722656 273.8125 L 389.714844 273.8125 C 390.738281 273.8125 391.5625 274.636719 391.5625 275.660156 C 391.5625 276.6875 390.738281 277.511719 389.714844 277.511719 L 202.722656 277.511719 C 201.695312 277.511719 200.871094 276.6875 200.871094 275.660156 C 200.871094 274.636719 201.695312 273.8125 202.722656 273.8125 Z M 202.722656 273.8125 "/>
</g>
<mask id="mask13">
  <g filter="url(#alpha)">
<rect x="0" y="0" width="595.275574" height="841.889771" style="fill:rgb(0%,0%,0%);fill-opacity:0.98;stroke:none;"/>
  </g>
</mask>
<clipPath id="clip14">
  <rect x="0" y="0" width="596" height="842"/>
</clipPath>
<g id="surface44" clip-path="url(#clip14)">
<path style=" stroke:none;fill-rule:nonzero;fill:rgb(100%,100%,100%);fill-opacity:1;" d="M 202.722656 307.527344 L 389.714844 307.527344 C 390.738281 307.527344 391.5625 308.351562 391.5625 309.375 C 391.5625 310.398438 390.738281 311.226562 389.714844 311.226562 L 202.722656 311.226562 C 201.695312 311.226562 200.871094 310.398438 200.871094 309.375 C 200.871094 308.351562 201.695312 307.527344 202.722656 307.527344 Z M 202.722656 307.527344 "/>
</g>
<mask id="mask14">
  <g filter="url(#alpha)">
<rect x="0" y="0" width="595.275574" height="841.889771" style="fill:rgb(0%,0%,0%);fill-opacity:0.98;stroke:none;"/>
  </g>
</mask>
<clipPath id="clip15">
  <rect x="0" y="0" width="596" height="842"/>
</clipPath>
<g id="surface47" clip-path="url(#clip15)">
<path style=" stroke:none;fill-rule:nonzero;fill:rgb(100%,100%,100%);fill-opacity:1;" d="M 202.722656 342.015625 L 389.714844 342.015625 C 390.738281 342.015625 391.5625 342.839844 391.5625 343.863281 C 391.5625 344.886719 390.738281 345.710938 389.714844 345.710938 L 202.722656 345.710938 C 201.695312 345.710938 200.871094 344.886719 200.871094 343.863281 C 200.871094 342.839844 201.695312 342.015625 202.722656 342.015625 Z M 202.722656 342.015625 "/>
</g>
</defs>
<g id="surface1">
<use xlink:href="#surface5" mask="url(#mask0)"/>
<use xlink:href="#surface8" mask="url(#mask1)"/>
<use xlink:href="#surface11" mask="url(#mask2)"/>
<use xlink:href="#surface14" mask="url(#mask3)"/>
<use xlink:href="#surface17" mask="url(#mask4)"/>
<use xlink:href="#surface20" mask="url(#mask5)"/>
<use xlink:href="#surface23" mask="url(#mask6)"/>
<use xlink:href="#surface26" mask="url(#mask7)"/>
<use xlink:href="#surface29" mask="url(#mask8)"/>
<use xlink:href="#surface32" mask="url(#mask9)"/>
<use xlink:href="#surface35" mask="url(#mask10)"/>
<use xlink:href="#surface38" mask="url(#mask11)"/>
<use xlink:href="#surface41" mask="url(#mask12)"/>
<use xlink:href="#surface44" mask="url(#mask13)"/>
<use xlink:href="#surface47" mask="url(#mask14)"/>
</g>
</svg>
