<svg id="Layer_1" data-name="Layer 1" xmlns="http://www.w3.org/2000/svg" viewBox="0 0 911 447.13"><defs><style>.cls-1{fill:#f37721;}.cls-2{fill:#ec1c24;}.cls-3{fill:#0081c5;}.cls-4{fill:#43525a;}.cls-5{fill:#3fac49;}.cls-6{fill:#ffd300;}.cls-7{fill:#fff;fill-rule:evenodd;}</style></defs><title>MC Logo!</title><path class="cls-1" d="M737,590A223.57,223.57,0,0,1,558.63,452.14l-.13-.31,95.44-37a121.37,121.37,0,0,0,94.43,73.64Z" transform="translate(-76 -144.84)"/><path class="cls-2" d="M987,402A223.85,223.85,0,0,1,744.38,591l11.4-101.69a119.32,119.32,0,0,0,26.44-.6,122.78,122.78,0,0,0,79.09-45A121,121,0,0,0,886,386.74Z" transform="translate(-76 -144.84)"/><path class="cls-3" d="M685.74,159.83a221.67,221.67,0,0,1,113-12.57L781.87,248a123.34,123.34,0,0,0-57.94,6.4Z" transform="translate(-76 -144.84)"/><path class="cls-4" d="M806,148.57a218.69,218.69,0,0,1,67,23.63l-48.75,89.54a121,121,0,0,0-18.77-8.25,123.45,123.45,0,0,0-16.24-4.41Z" transform="translate(-76 -144.84)"/><path class="cls-5" d="M571.51,258.33a220.41,220.41,0,0,1,107.32-95.71L717,257.16a124.79,124.79,0,0,0-55.82,49.7Z" transform="translate(-76 -144.84)"/><path class="cls-6" d="M556,444.81A222.69,222.69,0,0,1,568,264.87l89.69,48.52A122.27,122.27,0,0,0,651.12,408Z" transform="translate(-76 -144.84)"/><path class="cls-7" d="M283.65,474.07,178.5,334.59V572.51H76V164.3H178.5L283.65,303.79h0l1.72-2.29L388.79,164.31h102.5V572.51H388.79V334.59L295.4,458.47,285,472.25l-1.36,1.82Z" transform="translate(-76 -144.84)"/></svg>