<?xml version="1.0" encoding="UTF-8"?>
<svg xmlns="http://www.w3.org/2000/svg" xmlns:xlink="http://www.w3.org/1999/xlink" width="595.275574pt" height="841.889771pt" viewBox="0 0 595.275574 841.889771" version="1.1">
<defs>
<filter id="alpha" filterUnits="objectBoundingBox" x="0%" y="0%" width="100%" height="100%">
  <feColorMatrix type="matrix" in="SourceGraphic" values="0 0 0 0 1 0 0 0 0 1 0 0 0 0 1 0 0 0 1 0"/>
</filter>
<mask id="mask0">
  <g filter="url(#alpha)">
<rect x="0" y="0" width="595.275574" height="841.889771" style="fill:rgb(0%,0%,0%);fill-opacity:0.98;stroke:none;"/>
  </g>
</mask>
<clipPath id="clip1">
  <rect width="596" height="842"/>
</clipPath>
<g id="surface7" clip-path="url(#clip1)">
<path style=" stroke:none;fill-rule:nonzero;fill:rgb(9.01947%,51.371765%,82.351685%);fill-opacity:1;" d="M 580.804688 302.316406 C 580.804688 457.875 454.800781 583.984375 299.367188 583.984375 C 143.9375 583.984375 17.933594 457.875 17.933594 302.316406 C 17.933594 146.753906 143.9375 20.644531 299.367188 20.644531 C 454.800781 20.644531 580.804688 146.753906 580.804688 302.316406 Z M 580.804688 302.316406 "/>
</g>
<mask id="mask1">
  <g filter="url(#alpha)">
<rect x="0" y="0" width="595.275574" height="841.889771" style="fill:rgb(0%,0%,0%);fill-opacity:0.98;stroke:none;"/>
  </g>
</mask>
<clipPath id="clip2">
  <rect width="596" height="842"/>
</clipPath>
<g id="surface6" clip-path="url(#clip2)">
<path style=" stroke:none;fill-rule:nonzero;fill:rgb(14.509583%,44.7052%,66.273499%);fill-opacity:1;" d="M 297.125 121.496094 L 128.453125 304.875 L 216.398438 457.195313 L 195.449219 499.523438 L 240.507813 577.566406 C 259.84375 581.75 279.566406 583.882813 299.351563 583.929688 C 447.222656 583.921875 569.871094 469.386719 580.101563 321.75 L 407.511719 149.160156 L 362.828125 135.21875 L 360.625 135.792969 L 340.324219 130.875 C 337.242188 130.46875 336.949219 130.441406 333.484375 129.976563 C 322.503906 128.503906 311.21875 126.929688 310.011719 126.527344 C 309.710938 126.425781 309.390625 126.457031 309.058594 126.585938 C 308.730469 126.71875 308.386719 126.949219 308.046875 127.246094 C 307.363281 127.84375 306.679688 128.714844 306.070313 129.609375 C 304.851563 131.402344 303.9375 133.292969 303.9375 133.292969 Z M 297.125 121.496094 "/>
</g>
</defs>
<g id="surface1">
<use xlink:href="#surface7" mask="url(#mask0)"/>
<use xlink:href="#surface6" mask="url(#mask1)"/>
<path style=" stroke:none;fill-rule:nonzero;fill:rgb(58.822632%,78.430176%,35.293579%);fill-opacity:1;" d="M 339.234375 104.433594 L 338.066406 106.851563 L 336.894531 109.269531 L 334.414063 111.703125 L 331.933594 114.140625 L 324.136719 118.664063 L 320.101563 119.695313 L 316.066406 120.722656 L 301.613281 121.496094 L 301.167969 149.886719 L 300.722656 178.273438 L 299.855469 202.039063 L 299.113281 202.039063 L 299.34375 206.269531 L 299.355469 353.234375 L 299.359375 353.234375 L 299.371094 500.0625 L 353.542969 500.195313 L 378.417969 499.769531 L 403.289063 499.34375 L 402.757813 479.097656 L 402.230469 458.859375 L 401.570313 457.371094 L 400.914063 455.882813 L 400.199219 448.253906 L 399.484375 440.628906 L 396.113281 399.617188 L 392.746094 358.601563 L 391.25 340.613281 L 389.757813 322.625 L 391.414063 241.421875 L 391.859375 238.492188 L 392.300781 235.5625 L 393.230469 244.007813 L 405.332031 316.789063 L 414.332031 316.359375 L 423.328125 315.933594 L 434.871094 314.671875 L 446.417969 313.410156 L 453.324219 312.066406 L 460.226563 310.722656 L 467.65625 308.066406 L 468.96875 306.46875 L 470.285156 304.875 L 468.324219 296.757813 L 460.972656 271.367188 L 458.179688 260.453125 L 455.382813 249.539063 L 447.101563 227.75 L 442.152344 214.40625 L 437.199219 201.058594 L 432.160156 189.339844 L 429.019531 182.832031 L 425.878906 176.320313 L 422.140625 169.8125 L 418.402344 163.300781 L 411.597656 153.535156 L 402.464844 143.121094 L 391.597656 132.925781 L 385.519531 128.777344 L 379.4375 124.632813 L 367.398438 117.71875 L 355.351563 110.804688 L 348.65625 107.976563 L 341.960938 105.152344 Z M 309.464844 131.566406 C 309.59375 131.566406 309.71875 131.570313 309.847656 131.585938 C 309.976563 131.597656 310.105469 131.613281 310.230469 131.640625 C 310.355469 131.664063 310.480469 131.695313 310.601563 131.730469 C 310.726563 131.765625 310.847656 131.808594 310.964844 131.855469 C 311.082031 131.90625 311.199219 131.957031 311.3125 132.019531 C 311.425781 132.078125 311.535156 132.140625 311.640625 132.210938 C 311.746094 132.277344 311.847656 132.351563 311.949219 132.433594 C 312.046875 132.511719 312.140625 132.59375 312.230469 132.683594 C 312.320313 132.773438 312.40625 132.863281 312.484375 132.960938 C 312.5625 133.058594 312.636719 133.15625 312.707031 133.261719 C 312.777344 133.363281 312.839844 133.46875 312.898438 133.578125 C 312.957031 133.6875 313.011719 133.800781 313.058594 133.917969 C 313.105469 134.03125 313.144531 134.148438 313.179688 134.265625 C 313.214844 134.382813 313.242188 134.503906 313.265625 134.625 C 313.285156 134.746094 313.300781 134.867188 313.308594 134.992188 C 313.316406 135.078125 313.320313 135.164063 313.320313 135.253906 C 313.320313 135.375 313.3125 135.496094 313.300781 135.621094 C 313.289063 135.742188 313.269531 135.863281 313.242188 135.984375 C 313.21875 136.101563 313.183594 136.222656 313.148438 136.339844 C 313.109375 136.457031 313.066406 136.574219 313.015625 136.6875 C 312.964844 136.800781 312.910156 136.910156 312.847656 137.019531 C 312.785156 137.125 312.71875 137.230469 312.648438 137.332031 C 312.574219 137.433594 312.496094 137.53125 312.414063 137.625 C 312.332031 137.71875 312.242188 137.808594 312.148438 137.894531 C 312.058594 137.980469 311.960938 138.0625 311.863281 138.136719 C 311.761719 138.214844 311.65625 138.285156 311.546875 138.351563 C 311.4375 138.417969 311.328125 138.480469 311.210938 138.535156 C 311.097656 138.589844 310.980469 138.640625 310.859375 138.6875 C 310.742188 138.730469 310.617188 138.769531 310.496094 138.804688 C 310.371094 138.835938 310.246094 138.863281 310.117188 138.882813 C 309.992188 138.902344 309.863281 138.917969 309.734375 138.925781 C 309.644531 138.933594 309.554688 138.9375 309.464844 138.9375 C 309.335938 138.9375 309.207031 138.929688 309.078125 138.917969 C 308.949219 138.90625 308.820313 138.886719 308.695313 138.863281 C 308.570313 138.839844 308.445313 138.808594 308.324219 138.773438 C 308.199219 138.734375 308.078125 138.695313 307.960938 138.644531 C 307.84375 138.597656 307.726563 138.542969 307.613281 138.484375 C 307.5 138.425781 307.390625 138.363281 307.285156 138.292969 C 307.179688 138.222656 307.078125 138.148438 306.976563 138.070313 C 306.878906 137.992188 306.785156 137.90625 306.695313 137.820313 C 306.605469 137.730469 306.523438 137.636719 306.441406 137.542969 C 306.363281 137.445313 306.285156 137.347656 306.21875 137.242188 C 306.148438 137.140625 306.082031 137.03125 306.027344 136.921875 C 305.96875 136.8125 305.914063 136.703125 305.867188 136.585938 C 305.820313 136.472656 305.78125 136.355469 305.746094 136.238281 C 305.710938 136.117188 305.683594 136 305.664063 135.878906 C 305.640625 135.757813 305.625 135.636719 305.617188 135.511719 C 305.609375 135.425781 305.605469 135.339844 305.605469 135.253906 C 305.605469 135.128906 305.609375 135.003906 305.625 134.882813 C 305.636719 134.761719 305.65625 134.640625 305.683594 134.519531 C 305.707031 134.398438 305.738281 134.28125 305.777344 134.164063 C 305.816406 134.042969 305.859375 133.929688 305.910156 133.816406 C 305.960938 133.703125 306.015625 133.59375 306.078125 133.484375 C 306.140625 133.375 306.207031 133.273438 306.277344 133.171875 C 306.351563 133.070313 306.429688 132.972656 306.511719 132.878906 C 306.597656 132.785156 306.683594 132.695313 306.777344 132.609375 C 306.867188 132.523438 306.964844 132.441406 307.066406 132.363281 C 307.167969 132.289063 307.269531 132.21875 307.378906 132.152344 C 307.488281 132.085938 307.597656 132.023438 307.714844 131.96875 C 307.828125 131.910156 307.945313 131.863281 308.066406 131.816406 C 308.183594 131.773438 308.308594 131.734375 308.429688 131.703125 C 308.554688 131.667969 308.679688 131.640625 308.808594 131.621094 C 308.933594 131.597656 309.0625 131.582031 309.191406 131.574219 C 309.28125 131.570313 309.371094 131.566406 309.464844 131.566406 Z M 308.488281 160.804688 C 308.570313 160.804688 308.648438 160.808594 308.726563 160.816406 C 308.808594 160.824219 308.886719 160.832031 308.964844 160.847656 C 309.042969 160.863281 309.121094 160.882813 309.199219 160.90625 C 309.273438 160.929688 309.347656 160.953125 309.421875 160.984375 C 309.496094 161.011719 309.570313 161.046875 309.640625 161.082031 C 309.710938 161.121094 309.777344 161.160156 309.84375 161.203125 C 309.910156 161.246094 309.972656 161.292969 310.035156 161.34375 C 310.09375 161.390625 310.152344 161.441406 310.210938 161.496094 C 310.265625 161.550781 310.316406 161.609375 310.367188 161.671875 C 310.417969 161.730469 310.464844 161.792969 310.507813 161.855469 C 310.550781 161.921875 310.589844 161.988281 310.625 162.054688 C 310.664063 162.121094 310.695313 162.191406 310.722656 162.265625 C 310.753906 162.335938 310.777344 162.40625 310.800781 162.480469 C 310.820313 162.554688 310.839844 162.628906 310.851563 162.703125 C 310.867188 162.78125 310.875 162.855469 310.878906 162.933594 C 310.882813 162.984375 310.886719 163.039063 310.886719 163.09375 C 310.886719 163.167969 310.882813 163.246094 310.875 163.320313 C 310.867188 163.398438 310.855469 163.472656 310.839844 163.546875 C 310.824219 163.621094 310.804688 163.695313 310.777344 163.769531 C 310.753906 163.84375 310.726563 163.914063 310.695313 163.984375 C 310.664063 164.054688 310.632813 164.125 310.59375 164.191406 C 310.554688 164.257813 310.511719 164.324219 310.46875 164.386719 C 310.421875 164.449219 310.375 164.511719 310.324219 164.570313 C 310.273438 164.628906 310.21875 164.683594 310.160156 164.738281 C 310.101563 164.789063 310.042969 164.839844 309.980469 164.886719 C 309.917969 164.933594 309.851563 164.980469 309.785156 165.019531 C 309.71875 165.0625 309.648438 165.101563 309.578125 165.136719 C 309.503906 165.167969 309.433594 165.199219 309.359375 165.230469 C 309.285156 165.257813 309.207031 165.28125 309.132813 165.300781 C 309.054688 165.320313 308.976563 165.335938 308.898438 165.351563 C 308.816406 165.363281 308.738281 165.371094 308.660156 165.378906 C 308.601563 165.382813 308.546875 165.382813 308.488281 165.382813 C 308.410156 165.382813 308.328125 165.378906 308.25 165.371094 C 308.171875 165.363281 308.09375 165.355469 308.011719 165.339844 C 307.933594 165.324219 307.855469 165.304688 307.78125 165.28125 C 307.703125 165.257813 307.628906 165.230469 307.554688 165.203125 C 307.484375 165.171875 307.410156 165.140625 307.339844 165.101563 C 307.269531 165.066406 307.203125 165.027344 307.136719 164.984375 C 307.070313 164.941406 307.007813 164.894531 306.945313 164.84375 C 306.882813 164.796875 306.824219 164.746094 306.769531 164.691406 C 306.714844 164.632813 306.660156 164.578125 306.613281 164.515625 C 306.5625 164.457031 306.515625 164.394531 306.472656 164.332031 C 306.429688 164.265625 306.390625 164.199219 306.355469 164.132813 C 306.316406 164.066406 306.285156 163.996094 306.253906 163.921875 C 306.226563 163.851563 306.199219 163.78125 306.179688 163.707031 C 306.15625 163.632813 306.140625 163.558594 306.125 163.484375 C 306.113281 163.40625 306.105469 163.332031 306.097656 163.253906 C 306.09375 163.203125 306.09375 163.148438 306.09375 163.09375 C 306.09375 163.015625 306.097656 162.941406 306.105469 162.863281 C 306.113281 162.789063 306.125 162.714844 306.140625 162.640625 C 306.15625 162.5625 306.175781 162.488281 306.199219 162.417969 C 306.222656 162.34375 306.25 162.273438 306.28125 162.203125 C 306.3125 162.132813 306.347656 162.0625 306.386719 161.996094 C 306.425781 161.929688 306.464844 161.863281 306.511719 161.800781 C 306.554688 161.738281 306.605469 161.675781 306.65625 161.617188 C 306.707031 161.558594 306.761719 161.503906 306.820313 161.449219 C 306.875 161.398438 306.9375 161.347656 307 161.300781 C 307.0625 161.253906 307.128906 161.207031 307.195313 161.167969 C 307.261719 161.125 307.332031 161.085938 307.402344 161.050781 C 307.472656 161.019531 307.546875 160.988281 307.621094 160.957031 C 307.695313 160.929688 307.769531 160.90625 307.847656 160.886719 C 307.925781 160.867188 308.003906 160.851563 308.082031 160.835938 C 308.160156 160.824219 308.238281 160.816406 308.320313 160.808594 C 308.375 160.804688 308.433594 160.804688 308.488281 160.804688 Z M 307.699219 186.84375 C 307.746094 186.84375 307.796875 186.847656 307.847656 186.851563 C 307.894531 186.855469 307.945313 186.863281 307.992188 186.871094 C 308.042969 186.882813 308.089844 186.894531 308.136719 186.90625 C 308.183594 186.921875 308.230469 186.9375 308.277344 186.957031 C 308.324219 186.972656 308.367188 186.996094 308.410156 187.015625 C 308.453125 187.039063 308.496094 187.066406 308.535156 187.089844 C 308.578125 187.117188 308.617188 187.144531 308.65625 187.175781 C 308.691406 187.207031 308.730469 187.238281 308.761719 187.273438 C 308.796875 187.308594 308.832031 187.34375 308.863281 187.378906 C 308.890625 187.417969 308.921875 187.457031 308.949219 187.496094 C 308.972656 187.535156 309 187.578125 309.019531 187.617188 C 309.042969 187.660156 309.0625 187.703125 309.082031 187.746094 C 309.101563 187.792969 309.117188 187.835938 309.128906 187.882813 C 309.140625 187.929688 309.152344 187.972656 309.160156 188.019531 C 309.171875 188.066406 309.175781 188.113281 309.179688 188.160156 C 309.183594 188.195313 309.183594 188.226563 309.183594 188.261719 C 309.183594 188.308594 309.179688 188.355469 309.175781 188.402344 C 309.171875 188.449219 309.164063 188.496094 309.152344 188.542969 C 309.144531 188.589844 309.128906 188.636719 309.117188 188.679688 C 309.101563 188.726563 309.085938 188.769531 309.066406 188.8125 C 309.046875 188.859375 309.027344 188.898438 309.003906 188.941406 C 308.976563 188.984375 308.953125 189.023438 308.925781 189.0625 C 308.894531 189.101563 308.867188 189.140625 308.832031 189.175781 C 308.800781 189.210938 308.769531 189.246094 308.734375 189.28125 C 308.695313 189.3125 308.660156 189.34375 308.621094 189.371094 C 308.582031 189.402344 308.542969 189.429688 308.5 189.457031 C 308.460938 189.480469 308.417969 189.503906 308.371094 189.527344 C 308.328125 189.546875 308.28125 189.566406 308.234375 189.582031 C 308.191406 189.601563 308.144531 189.617188 308.09375 189.628906 C 308.046875 189.640625 308 189.652344 307.949219 189.660156 C 307.902344 189.667969 307.851563 189.671875 307.804688 189.675781 C 307.769531 189.679688 307.734375 189.679688 307.699219 189.679688 C 307.648438 189.679688 307.597656 189.675781 307.550781 189.671875 C 307.5 189.667969 307.453125 189.660156 307.402344 189.652344 C 307.355469 189.640625 307.308594 189.628906 307.261719 189.617188 C 307.210938 189.601563 307.164063 189.585938 307.121094 189.570313 C 307.074219 189.550781 307.03125 189.53125 306.988281 189.507813 C 306.941406 189.484375 306.902344 189.460938 306.859375 189.433594 C 306.820313 189.40625 306.78125 189.375 306.742188 189.347656 C 306.703125 189.316406 306.667969 189.285156 306.632813 189.25 C 306.597656 189.214844 306.566406 189.179688 306.535156 189.144531 C 306.503906 189.105469 306.476563 189.066406 306.449219 189.027344 C 306.421875 188.988281 306.398438 188.945313 306.375 188.90625 C 306.351563 188.863281 306.332031 188.820313 306.316406 188.777344 C 306.296875 188.730469 306.28125 188.6875 306.269531 188.640625 C 306.253906 188.597656 306.242188 188.550781 306.234375 188.503906 C 306.226563 188.457031 306.222656 188.410156 306.21875 188.363281 C 306.214844 188.328125 306.214844 188.296875 306.214844 188.261719 C 306.214844 188.214844 306.21875 188.167969 306.222656 188.121094 C 306.226563 188.074219 306.234375 188.027344 306.242188 187.980469 C 306.253906 187.933594 306.265625 187.886719 306.28125 187.84375 C 306.296875 187.796875 306.3125 187.753906 306.332031 187.710938 C 306.351563 187.667969 306.371094 187.625 306.394531 187.582031 C 306.421875 187.539063 306.445313 187.5 306.472656 187.460938 C 306.5 187.421875 306.53125 187.382813 306.5625 187.347656 C 306.59375 187.3125 306.628906 187.277344 306.664063 187.242188 C 306.699219 187.210938 306.738281 187.179688 306.777344 187.152344 C 306.816406 187.121094 306.855469 187.09375 306.898438 187.066406 C 306.9375 187.042969 306.980469 187.019531 307.023438 186.996094 C 307.070313 186.976563 307.113281 186.957031 307.160156 186.941406 C 307.207031 186.921875 307.253906 186.90625 307.300781 186.894531 C 307.347656 186.882813 307.398438 186.871094 307.445313 186.863281 C 307.496094 186.855469 307.542969 186.851563 307.59375 186.847656 C 307.628906 186.84375 307.664063 186.84375 307.699219 186.84375 Z M 307.699219 186.84375 "/>
<path style=" stroke:none;fill-rule:nonzero;fill:rgb(66.665649%,88.626099%,40.391541%);fill-opacity:1;" d="M 259.503906 104.433594 L 256.777344 105.152344 L 250.082031 107.976563 L 243.386719 110.804688 L 219.300781 124.632813 L 213.21875 128.777344 L 207.140625 132.925781 L 196.273438 143.121094 L 187.140625 153.535156 L 180.335938 163.300781 L 176.597656 169.8125 L 172.859375 176.320313 L 169.71875 182.832031 L 166.574219 189.339844 L 164.054688 195.199219 L 161.539063 201.058594 L 156.585938 214.40625 L 151.636719 227.75 L 143.355469 249.539063 L 137.761719 271.367188 L 134.089844 284.0625 L 130.414063 296.757813 L 128.453125 304.875 L 129.769531 306.46875 L 131.082031 308.066406 L 134.796875 309.394531 L 138.507813 310.722656 L 145.414063 312.066406 L 152.324219 313.410156 L 175.410156 315.933594 L 184.410156 316.359375 L 193.402344 316.789063 L 199.457031 280.398438 L 205.507813 244.007813 L 206.4375 235.5625 L 206.878906 238.492188 L 207.324219 241.421875 L 208.980469 322.625 L 207.484375 340.613281 L 205.992188 358.601563 L 202.621094 399.617188 L 199.253906 440.628906 L 198.539063 448.253906 L 197.828125 455.882813 L 196.507813 458.859375 L 195.976563 479.191406 L 195.449219 499.523438 L 212.144531 499.710938 L 228.839844 499.894531 L 291.191406 500.046875 L 299.386719 500.0625 L 299.386719 202.039063 L 298.878906 202.039063 L 298.449219 190.15625 L 298.015625 178.273438 L 297.570313 149.886719 L 297.125 121.496094 L 282.671875 120.722656 L 278.636719 119.695313 L 274.601563 118.664063 L 266.804688 114.140625 L 264.324219 111.703125 L 261.84375 109.269531 L 260.675781 106.851563 Z M 259.503906 104.433594 "/>
</g>
</svg>
